<svg width="45" height="45" viewBox="0 0 45 45" fill="none" xmlns="http://www.w3.org/2000/svg">
<path d="M10.25 27.7903C9.97386 27.7903 9.75 27.5664 9.75 27.2903V9.5C9.75 9.22386 9.97386 9 10.25 9H11.7366C12.0127 9 12.2366 9.22386 12.2366 9.5V25.0729C12.2366 25.349 12.4604 25.5729 12.7366 25.5729H21.4907V27.7903H10.25Z" fill="#151618"/>
<path d="M10.25 27.7903C9.97386 27.7903 9.75 27.5664 9.75 27.2903V9.5C9.75 9.22386 9.97386 9 10.25 9H11.7366C12.0127 9 12.2366 9.22386 12.2366 9.5V25.0729C12.2366 25.349 12.4604 25.5729 12.7366 25.5729H21.4907V27.7903H10.25Z" fill="black" fill-opacity="0.2"/>
<path d="M10.25 27.7903C9.97386 27.7903 9.75 27.5664 9.75 27.2903V9.5C9.75 9.22386 9.97386 9 10.25 9H11.7366C12.0127 9 12.2366 9.22386 12.2366 9.5V25.0729C12.2366 25.349 12.4604 25.5729 12.7366 25.5729H21.4907V27.7903H10.25Z" fill="black" fill-opacity="0.2"/>
<path d="M10.25 27.7903C9.97386 27.7903 9.75 27.5664 9.75 27.2903V9.5C9.75 9.22386 9.97386 9 10.25 9H11.7366C12.0127 9 12.2366 9.22386 12.2366 9.5V25.0729C12.2366 25.349 12.4604 25.5729 12.7366 25.5729H21.4907V27.7903H10.25Z" fill="black" fill-opacity="0.2"/>
<path d="M10.25 27.7903C9.97386 27.7903 9.75 27.5664 9.75 27.2903V9.5C9.75 9.22386 9.97386 9 10.25 9H11.7366C12.0127 9 12.2366 9.22386 12.2366 9.5V25.0729C12.2366 25.349 12.4604 25.5729 12.7366 25.5729H21.4907V27.7903H10.25Z" fill="black" fill-opacity="0.2"/>
<path d="M10.25 27.7903C9.97386 27.7903 9.75 27.5664 9.75 27.2903V9.5C9.75 9.22386 9.97386 9 10.25 9H11.7366C12.0127 9 12.2366 9.22386 12.2366 9.5V25.0729C12.2366 25.349 12.4604 25.5729 12.7366 25.5729H21.4907V27.7903H10.25Z" fill="black" fill-opacity="0.2"/>
<path d="M21.6025 38.2903C21.3264 38.2903 21.1025 38.0664 21.1025 37.7903V17C21.1025 16.7239 21.3264 16.5 21.6025 16.5H28.1906C29.4381 16.5 30.3909 16.5598 31.0488 16.6794C31.9717 16.8333 32.745 17.1281 33.3688 17.5638C33.9926 17.9911 34.4924 18.5935 34.8684 19.3711C35.2529 20.1487 35.4452 21.0032 35.4452 21.9346C35.4452 23.5325 34.9368 24.8868 33.9199 25.9977C32.9031 27.1 31.0659 27.6511 28.4084 27.6511H24.0891C23.813 27.6511 23.5891 27.875 23.5891 28.1511V37.7903C23.5891 38.0664 23.3653 38.2903 23.0891 38.2903H21.6025ZM23.5891 24.9337C23.5891 25.2099 23.813 25.4337 24.0891 25.4337H28.4469C30.0533 25.4337 31.1941 25.1346 31.8691 24.5365C32.5442 23.9384 32.8817 23.0967 32.8817 22.0115C32.8817 21.2253 32.6809 20.5546 32.2793 19.9991C31.8862 19.4352 31.365 19.0635 30.7156 18.884C30.2969 18.7729 29.5236 18.7174 28.3956 18.7174H23.5891V24.9337Z" fill="#151618"/>
<path d="M21.6025 38.2903C21.3264 38.2903 21.1025 38.0664 21.1025 37.7903V17C21.1025 16.7239 21.3264 16.5 21.6025 16.5H28.1906C29.4381 16.5 30.3909 16.5598 31.0488 16.6794C31.9717 16.8333 32.745 17.1281 33.3688 17.5638C33.9926 17.9911 34.4924 18.5935 34.8684 19.3711C35.2529 20.1487 35.4452 21.0032 35.4452 21.9346C35.4452 23.5325 34.9368 24.8868 33.9199 25.9977C32.9031 27.1 31.0659 27.6511 28.4084 27.6511H24.0891C23.813 27.6511 23.5891 27.875 23.5891 28.1511V37.7903C23.5891 38.0664 23.3653 38.2903 23.0891 38.2903H21.6025ZM23.5891 24.9337C23.5891 25.2099 23.813 25.4337 24.0891 25.4337H28.4469C30.0533 25.4337 31.1941 25.1346 31.8691 24.5365C32.5442 23.9384 32.8817 23.0967 32.8817 22.0115C32.8817 21.2253 32.6809 20.5546 32.2793 19.9991C31.8862 19.4352 31.365 19.0635 30.7156 18.884C30.2969 18.7729 29.5236 18.7174 28.3956 18.7174H23.5891V24.9337Z" fill="black" fill-opacity="0.2"/>
<path d="M21.6025 38.2903C21.3264 38.2903 21.1025 38.0664 21.1025 37.7903V17C21.1025 16.7239 21.3264 16.5 21.6025 16.5H28.1906C29.4381 16.5 30.3909 16.5598 31.0488 16.6794C31.9717 16.8333 32.745 17.1281 33.3688 17.5638C33.9926 17.9911 34.4924 18.5935 34.8684 19.3711C35.2529 20.1487 35.4452 21.0032 35.4452 21.9346C35.4452 23.5325 34.9368 24.8868 33.9199 25.9977C32.9031 27.1 31.0659 27.6511 28.4084 27.6511H24.0891C23.813 27.6511 23.5891 27.875 23.5891 28.1511V37.7903C23.5891 38.0664 23.3653 38.2903 23.0891 38.2903H21.6025ZM23.5891 24.9337C23.5891 25.2099 23.813 25.4337 24.0891 25.4337H28.4469C30.0533 25.4337 31.1941 25.1346 31.8691 24.5365C32.5442 23.9384 32.8817 23.0967 32.8817 22.0115C32.8817 21.2253 32.6809 20.5546 32.2793 19.9991C31.8862 19.4352 31.365 19.0635 30.7156 18.884C30.2969 18.7729 29.5236 18.7174 28.3956 18.7174H23.5891V24.9337Z" fill="black" fill-opacity="0.2"/>
<path d="M21.6025 38.2903C21.3264 38.2903 21.1025 38.0664 21.1025 37.7903V17C21.1025 16.7239 21.3264 16.5 21.6025 16.5H28.1906C29.4381 16.5 30.3909 16.5598 31.0488 16.6794C31.9717 16.8333 32.745 17.1281 33.3688 17.5638C33.9926 17.9911 34.4924 18.5935 34.8684 19.3711C35.2529 20.1487 35.4452 21.0032 35.4452 21.9346C35.4452 23.5325 34.9368 24.8868 33.9199 25.9977C32.9031 27.1 31.0659 27.6511 28.4084 27.6511H24.0891C23.813 27.6511 23.5891 27.875 23.5891 28.1511V37.7903C23.5891 38.0664 23.3653 38.2903 23.0891 38.2903H21.6025ZM23.5891 24.9337C23.5891 25.2099 23.813 25.4337 24.0891 25.4337H28.4469C30.0533 25.4337 31.1941 25.1346 31.8691 24.5365C32.5442 23.9384 32.8817 23.0967 32.8817 22.0115C32.8817 21.2253 32.6809 20.5546 32.2793 19.9991C31.8862 19.4352 31.365 19.0635 30.7156 18.884C30.2969 18.7729 29.5236 18.7174 28.3956 18.7174H23.5891V24.9337Z" fill="black" fill-opacity="0.2"/>
<path d="M21.6025 38.2903C21.3264 38.2903 21.1025 38.0664 21.1025 37.7903V17C21.1025 16.7239 21.3264 16.5 21.6025 16.5H28.1906C29.4381 16.5 30.3909 16.5598 31.0488 16.6794C31.9717 16.8333 32.745 17.1281 33.3688 17.5638C33.9926 17.9911 34.4924 18.5935 34.8684 19.3711C35.2529 20.1487 35.4452 21.0032 35.4452 21.9346C35.4452 23.5325 34.9368 24.8868 33.9199 25.9977C32.9031 27.1 31.0659 27.6511 28.4084 27.6511H24.0891C23.813 27.6511 23.5891 27.875 23.5891 28.1511V37.7903C23.5891 38.0664 23.3653 38.2903 23.0891 38.2903H21.6025ZM23.5891 24.9337C23.5891 25.2099 23.813 25.4337 24.0891 25.4337H28.4469C30.0533 25.4337 31.1941 25.1346 31.8691 24.5365C32.5442 23.9384 32.8817 23.0967 32.8817 22.0115C32.8817 21.2253 32.6809 20.5546 32.2793 19.9991C31.8862 19.4352 31.365 19.0635 30.7156 18.884C30.2969 18.7729 29.5236 18.7174 28.3956 18.7174H23.5891V24.9337Z" fill="black" fill-opacity="0.2"/>
<path d="M21.6025 38.2903C21.3264 38.2903 21.1025 38.0664 21.1025 37.7903V17C21.1025 16.7239 21.3264 16.5 21.6025 16.5H28.1906C29.4381 16.5 30.3909 16.5598 31.0488 16.6794C31.9717 16.8333 32.745 17.1281 33.3688 17.5638C33.9926 17.9911 34.4924 18.5935 34.8684 19.3711C35.2529 20.1487 35.4452 21.0032 35.4452 21.9346C35.4452 23.5325 34.9368 24.8868 33.9199 25.9977C32.9031 27.1 31.0659 27.6511 28.4084 27.6511H24.0891C23.813 27.6511 23.5891 27.875 23.5891 28.1511V37.7903C23.5891 38.0664 23.3653 38.2903 23.0891 38.2903H21.6025ZM23.5891 24.9337C23.5891 25.2099 23.813 25.4337 24.0891 25.4337H28.4469C30.0533 25.4337 31.1941 25.1346 31.8691 24.5365C32.5442 23.9384 32.8817 23.0967 32.8817 22.0115C32.8817 21.2253 32.6809 20.5546 32.2793 19.9991C31.8862 19.4352 31.365 19.0635 30.7156 18.884C30.2969 18.7729 29.5236 18.7174 28.3956 18.7174H23.5891V24.9337Z" fill="black" fill-opacity="0.2"/>
<circle cx="22.5" cy="22.5" r="22.25" stroke="#3A6FB6" stroke-width="0.5"/>
</svg>
