<svg width="53" height="65" viewBox="0 0 53 65" fill="none" xmlns="http://www.w3.org/2000/svg">
<path d="M24.2833 54.3955H29.0333V38.4073L35.5628 44.9368L38.8878 41.6118L26.5 29.5595L14.2894 41.7701L17.6144 45.0951L24.2833 38.4073V54.3955ZM6.08698 64.6406C4.63037 64.6406 3.36727 64.1059 2.29767 63.0363C1.22813 61.9667 0.693359 60.7036 0.693359 59.247V5.75442C0.693359 4.29264 1.22813 3.0251 2.29767 1.95181C3.36727 0.878468 4.63037 0.341797 6.08698 0.341797H34.704L52.3255 17.9633V59.247C52.3255 60.7036 51.7889 61.9667 50.7155 63.0363C49.6422 64.1059 48.3747 64.6406 46.9129 64.6406H6.08698ZM31.9504 20.4794V5.75442H6.08698V59.247H46.9129V20.4794H31.9504Z" fill="#C3CAD2"/>
</svg>
