<svg width="20" height="20" viewBox="0 0 20 20" fill="none" xmlns="http://www.w3.org/2000/svg">
<path d="M5.8335 1.66602C5.17045 1.66602 4.53457 1.92941 4.06573 2.39825C3.59689 2.86709 3.3335 3.50297 3.3335 4.16602V15.8327C3.3335 16.4957 3.59689 17.1316 4.06573 17.6004C4.53457 18.0693 5.17045 18.3327 5.8335 18.3327H14.1668C14.8299 18.3327 15.4658 18.0693 15.9346 17.6004C16.4034 17.1316 16.6668 16.4957 16.6668 15.8327V14.9993C16.6668 14.5391 16.2937 14.166 15.8335 14.166C15.3733 14.166 15.0002 14.5391 15.0002 14.9993V15.8327C15.0002 16.0537 14.9124 16.2657 14.7561 16.4219C14.5998 16.5782 14.3878 16.666 14.1668 16.666H5.8335C5.61248 16.666 5.40052 16.5782 5.24424 16.4219C5.08796 16.2657 5.00016 16.0537 5.00016 15.8327V4.16602C5.00016 3.945 5.08796 3.73304 5.24424 3.57676C5.40052 3.42048 5.61248 3.33268 5.8335 3.33268H14.1668C14.3878 3.33268 14.5998 3.42048 14.7561 3.57676C14.9124 3.73304 15.0002 3.945 15.0002 4.16602V4.99935C15.0002 5.45959 15.3733 5.83268 15.8335 5.83268C16.2937 5.83268 16.6668 5.45959 16.6668 4.99935V4.16602C16.6668 3.50297 16.4034 2.86709 15.9346 2.39825C15.4658 1.92941 14.8299 1.66602 14.1668 1.66602H5.8335Z" fill="#C72222"/>
<path d="M13.9228 6.91009C13.5973 6.58466 13.0697 6.58466 12.7442 6.91009C12.4188 7.23553 12.4188 7.76317 12.7442 8.0886L13.8217 9.16602H10.0002C9.53993 9.16602 9.16683 9.53911 9.16683 9.99935C9.16683 10.4596 9.53993 10.8327 10.0002 10.8327H13.8217L12.7442 11.9101C12.4188 12.2355 12.4188 12.7632 12.7442 13.0886C13.0697 13.414 13.5973 13.414 13.9228 13.0886L16.4228 10.5886C16.7482 10.2632 16.7482 9.73553 16.4228 9.41009L13.9228 6.91009Z" fill="#C72222"/>
</svg>
