<svg width="247" height="45" viewBox="0 0 247 45" fill="none" xmlns="http://www.w3.org/2000/svg">
<path d="M10.25 27.7903C9.97386 27.7903 9.75 27.5664 9.75 27.2903V9.5C9.75 9.22386 9.97386 9 10.25 9H11.7366C12.0127 9 12.2366 9.22386 12.2366 9.5V25.0729C12.2366 25.349 12.4604 25.5729 12.7366 25.5729H21.4907V27.7903H10.25Z" fill="#151618"/>
<path d="M10.25 27.7903C9.97386 27.7903 9.75 27.5664 9.75 27.2903V9.5C9.75 9.22386 9.97386 9 10.25 9H11.7366C12.0127 9 12.2366 9.22386 12.2366 9.5V25.0729C12.2366 25.349 12.4604 25.5729 12.7366 25.5729H21.4907V27.7903H10.25Z" fill="black" fill-opacity="0.2"/>
<path d="M10.25 27.7903C9.97386 27.7903 9.75 27.5664 9.75 27.2903V9.5C9.75 9.22386 9.97386 9 10.25 9H11.7366C12.0127 9 12.2366 9.22386 12.2366 9.5V25.0729C12.2366 25.349 12.4604 25.5729 12.7366 25.5729H21.4907V27.7903H10.25Z" fill="black" fill-opacity="0.2"/>
<path d="M10.25 27.7903C9.97386 27.7903 9.75 27.5664 9.75 27.2903V9.5C9.75 9.22386 9.97386 9 10.25 9H11.7366C12.0127 9 12.2366 9.22386 12.2366 9.5V25.0729C12.2366 25.349 12.4604 25.5729 12.7366 25.5729H21.4907V27.7903H10.25Z" fill="black" fill-opacity="0.2"/>
<path d="M10.25 27.7903C9.97386 27.7903 9.75 27.5664 9.75 27.2903V9.5C9.75 9.22386 9.97386 9 10.25 9H11.7366C12.0127 9 12.2366 9.22386 12.2366 9.5V25.0729C12.2366 25.349 12.4604 25.5729 12.7366 25.5729H21.4907V27.7903H10.25Z" fill="black" fill-opacity="0.2"/>
<path d="M10.25 27.7903C9.97386 27.7903 9.75 27.5664 9.75 27.2903V9.5C9.75 9.22386 9.97386 9 10.25 9H11.7366C12.0127 9 12.2366 9.22386 12.2366 9.5V25.0729C12.2366 25.349 12.4604 25.5729 12.7366 25.5729H21.4907V27.7903H10.25Z" fill="black" fill-opacity="0.2"/>
<path d="M21.6025 38.2903C21.3264 38.2903 21.1025 38.0664 21.1025 37.7903V17C21.1025 16.7239 21.3264 16.5 21.6025 16.5H28.1906C29.4381 16.5 30.3909 16.5598 31.0488 16.6794C31.9717 16.8333 32.745 17.1281 33.3688 17.5638C33.9926 17.9911 34.4924 18.5935 34.8684 19.3711C35.2529 20.1487 35.4452 21.0032 35.4452 21.9346C35.4452 23.5325 34.9368 24.8868 33.9199 25.9977C32.9031 27.1 31.0659 27.6511 28.4084 27.6511H24.0891C23.813 27.6511 23.5891 27.875 23.5891 28.1511V37.7903C23.5891 38.0664 23.3653 38.2903 23.0891 38.2903H21.6025ZM23.5891 24.9337C23.5891 25.2099 23.813 25.4337 24.0891 25.4337H28.4469C30.0533 25.4337 31.1941 25.1346 31.8691 24.5365C32.5442 23.9384 32.8817 23.0967 32.8817 22.0115C32.8817 21.2253 32.6809 20.5546 32.2793 19.9991C31.8862 19.4352 31.365 19.0635 30.7156 18.884C30.2969 18.7729 29.5236 18.7174 28.3956 18.7174H23.5891V24.9337Z" fill="#151618"/>
<path d="M21.6025 38.2903C21.3264 38.2903 21.1025 38.0664 21.1025 37.7903V17C21.1025 16.7239 21.3264 16.5 21.6025 16.5H28.1906C29.4381 16.5 30.3909 16.5598 31.0488 16.6794C31.9717 16.8333 32.745 17.1281 33.3688 17.5638C33.9926 17.9911 34.4924 18.5935 34.8684 19.3711C35.2529 20.1487 35.4452 21.0032 35.4452 21.9346C35.4452 23.5325 34.9368 24.8868 33.9199 25.9977C32.9031 27.1 31.0659 27.6511 28.4084 27.6511H24.0891C23.813 27.6511 23.5891 27.875 23.5891 28.1511V37.7903C23.5891 38.0664 23.3653 38.2903 23.0891 38.2903H21.6025ZM23.5891 24.9337C23.5891 25.2099 23.813 25.4337 24.0891 25.4337H28.4469C30.0533 25.4337 31.1941 25.1346 31.8691 24.5365C32.5442 23.9384 32.8817 23.0967 32.8817 22.0115C32.8817 21.2253 32.6809 20.5546 32.2793 19.9991C31.8862 19.4352 31.365 19.0635 30.7156 18.884C30.2969 18.7729 29.5236 18.7174 28.3956 18.7174H23.5891V24.9337Z" fill="black" fill-opacity="0.2"/>
<path d="M21.6025 38.2903C21.3264 38.2903 21.1025 38.0664 21.1025 37.7903V17C21.1025 16.7239 21.3264 16.5 21.6025 16.5H28.1906C29.4381 16.5 30.3909 16.5598 31.0488 16.6794C31.9717 16.8333 32.745 17.1281 33.3688 17.5638C33.9926 17.9911 34.4924 18.5935 34.8684 19.3711C35.2529 20.1487 35.4452 21.0032 35.4452 21.9346C35.4452 23.5325 34.9368 24.8868 33.9199 25.9977C32.9031 27.1 31.0659 27.6511 28.4084 27.6511H24.0891C23.813 27.6511 23.5891 27.875 23.5891 28.1511V37.7903C23.5891 38.0664 23.3653 38.2903 23.0891 38.2903H21.6025ZM23.5891 24.9337C23.5891 25.2099 23.813 25.4337 24.0891 25.4337H28.4469C30.0533 25.4337 31.1941 25.1346 31.8691 24.5365C32.5442 23.9384 32.8817 23.0967 32.8817 22.0115C32.8817 21.2253 32.6809 20.5546 32.2793 19.9991C31.8862 19.4352 31.365 19.0635 30.7156 18.884C30.2969 18.7729 29.5236 18.7174 28.3956 18.7174H23.5891V24.9337Z" fill="black" fill-opacity="0.2"/>
<path d="M21.6025 38.2903C21.3264 38.2903 21.1025 38.0664 21.1025 37.7903V17C21.1025 16.7239 21.3264 16.5 21.6025 16.5H28.1906C29.4381 16.5 30.3909 16.5598 31.0488 16.6794C31.9717 16.8333 32.745 17.1281 33.3688 17.5638C33.9926 17.9911 34.4924 18.5935 34.8684 19.3711C35.2529 20.1487 35.4452 21.0032 35.4452 21.9346C35.4452 23.5325 34.9368 24.8868 33.9199 25.9977C32.9031 27.1 31.0659 27.6511 28.4084 27.6511H24.0891C23.813 27.6511 23.5891 27.875 23.5891 28.1511V37.7903C23.5891 38.0664 23.3653 38.2903 23.0891 38.2903H21.6025ZM23.5891 24.9337C23.5891 25.2099 23.813 25.4337 24.0891 25.4337H28.4469C30.0533 25.4337 31.1941 25.1346 31.8691 24.5365C32.5442 23.9384 32.8817 23.0967 32.8817 22.0115C32.8817 21.2253 32.6809 20.5546 32.2793 19.9991C31.8862 19.4352 31.365 19.0635 30.7156 18.884C30.2969 18.7729 29.5236 18.7174 28.3956 18.7174H23.5891V24.9337Z" fill="black" fill-opacity="0.2"/>
<path d="M21.6025 38.2903C21.3264 38.2903 21.1025 38.0664 21.1025 37.7903V17C21.1025 16.7239 21.3264 16.5 21.6025 16.5H28.1906C29.4381 16.5 30.3909 16.5598 31.0488 16.6794C31.9717 16.8333 32.745 17.1281 33.3688 17.5638C33.9926 17.9911 34.4924 18.5935 34.8684 19.3711C35.2529 20.1487 35.4452 21.0032 35.4452 21.9346C35.4452 23.5325 34.9368 24.8868 33.9199 25.9977C32.9031 27.1 31.0659 27.6511 28.4084 27.6511H24.0891C23.813 27.6511 23.5891 27.875 23.5891 28.1511V37.7903C23.5891 38.0664 23.3653 38.2903 23.0891 38.2903H21.6025ZM23.5891 24.9337C23.5891 25.2099 23.813 25.4337 24.0891 25.4337H28.4469C30.0533 25.4337 31.1941 25.1346 31.8691 24.5365C32.5442 23.9384 32.8817 23.0967 32.8817 22.0115C32.8817 21.2253 32.6809 20.5546 32.2793 19.9991C31.8862 19.4352 31.365 19.0635 30.7156 18.884C30.2969 18.7729 29.5236 18.7174 28.3956 18.7174H23.5891V24.9337Z" fill="black" fill-opacity="0.2"/>
<path d="M21.6025 38.2903C21.3264 38.2903 21.1025 38.0664 21.1025 37.7903V17C21.1025 16.7239 21.3264 16.5 21.6025 16.5H28.1906C29.4381 16.5 30.3909 16.5598 31.0488 16.6794C31.9717 16.8333 32.745 17.1281 33.3688 17.5638C33.9926 17.9911 34.4924 18.5935 34.8684 19.3711C35.2529 20.1487 35.4452 21.0032 35.4452 21.9346C35.4452 23.5325 34.9368 24.8868 33.9199 25.9977C32.9031 27.1 31.0659 27.6511 28.4084 27.6511H24.0891C23.813 27.6511 23.5891 27.875 23.5891 28.1511V37.7903C23.5891 38.0664 23.3653 38.2903 23.0891 38.2903H21.6025ZM23.5891 24.9337C23.5891 25.2099 23.813 25.4337 24.0891 25.4337H28.4469C30.0533 25.4337 31.1941 25.1346 31.8691 24.5365C32.5442 23.9384 32.8817 23.0967 32.8817 22.0115C32.8817 21.2253 32.6809 20.5546 32.2793 19.9991C31.8862 19.4352 31.365 19.0635 30.7156 18.884C30.2969 18.7729 29.5236 18.7174 28.3956 18.7174H23.5891V24.9337Z" fill="black" fill-opacity="0.2"/>
<circle cx="22.5" cy="22.5" r="22.25" stroke="#3A6FB6" stroke-width="0.5"/>
<path d="M50.6177 25.0034V6.75H53.0332V22.8494H62.0229V25.0034H50.6177Z" fill="#151618"/>
<path d="M50.6177 25.0034V6.75H53.0332V22.8494H62.0229V25.0034H50.6177Z" fill="black" fill-opacity="0.2"/>
<path d="M50.6177 25.0034V6.75H53.0332V22.8494H62.0229V25.0034H50.6177Z" fill="black" fill-opacity="0.2"/>
<path d="M50.6177 25.0034V6.75H53.0332V22.8494H62.0229V25.0034H50.6177Z" fill="black" fill-opacity="0.2"/>
<path d="M50.6177 25.0034V6.75H53.0332V22.8494H62.0229V25.0034H50.6177Z" fill="black" fill-opacity="0.2"/>
<path d="M50.6177 25.0034V6.75H53.0332V22.8494H62.0229V25.0034H50.6177Z" fill="black" fill-opacity="0.2"/>
<path d="M74.3335 20.7451L76.6494 21.0315C76.2842 22.3845 75.6077 23.4346 74.6199 24.1816C73.6321 24.9287 72.3704 25.3022 70.8347 25.3022C68.9006 25.3022 67.365 24.7087 66.2278 23.5217C65.0989 22.3264 64.5344 20.6538 64.5344 18.5039C64.5344 16.2793 65.1072 14.5527 66.2527 13.3242C67.3982 12.0957 68.884 11.4814 70.7102 11.4814C72.4783 11.4814 73.9226 12.0833 75.0432 13.2869C76.1638 14.4905 76.7241 16.1838 76.7241 18.3669C76.7241 18.4998 76.72 18.699 76.7117 18.9646H66.8503C66.9333 20.4172 67.3442 21.5295 68.083 22.3015C68.8218 23.0735 69.7432 23.4595 70.8472 23.4595C71.6689 23.4595 72.3704 23.2437 72.9514 22.812C73.5325 22.3804 73.9932 21.6914 74.3335 20.7451ZM66.9749 17.1218H74.3584C74.2588 16.0095 73.9766 15.1753 73.5117 14.6191C72.7979 13.7559 71.8723 13.3242 70.7351 13.3242C69.7058 13.3242 68.8384 13.6687 68.1328 14.3577C67.4355 15.0466 67.0496 15.968 66.9749 17.1218Z" fill="#151618"/>
<path d="M74.3335 20.7451L76.6494 21.0315C76.2842 22.3845 75.6077 23.4346 74.6199 24.1816C73.6321 24.9287 72.3704 25.3022 70.8347 25.3022C68.9006 25.3022 67.365 24.7087 66.2278 23.5217C65.0989 22.3264 64.5344 20.6538 64.5344 18.5039C64.5344 16.2793 65.1072 14.5527 66.2527 13.3242C67.3982 12.0957 68.884 11.4814 70.7102 11.4814C72.4783 11.4814 73.9226 12.0833 75.0432 13.2869C76.1638 14.4905 76.7241 16.1838 76.7241 18.3669C76.7241 18.4998 76.72 18.699 76.7117 18.9646H66.8503C66.9333 20.4172 67.3442 21.5295 68.083 22.3015C68.8218 23.0735 69.7432 23.4595 70.8472 23.4595C71.6689 23.4595 72.3704 23.2437 72.9514 22.812C73.5325 22.3804 73.9932 21.6914 74.3335 20.7451ZM66.9749 17.1218H74.3584C74.2588 16.0095 73.9766 15.1753 73.5117 14.6191C72.7979 13.7559 71.8723 13.3242 70.7351 13.3242C69.7058 13.3242 68.8384 13.6687 68.1328 14.3577C67.4355 15.0466 67.0496 15.968 66.9749 17.1218Z" fill="black" fill-opacity="0.2"/>
<path d="M74.3335 20.7451L76.6494 21.0315C76.2842 22.3845 75.6077 23.4346 74.6199 24.1816C73.6321 24.9287 72.3704 25.3022 70.8347 25.3022C68.9006 25.3022 67.365 24.7087 66.2278 23.5217C65.0989 22.3264 64.5344 20.6538 64.5344 18.5039C64.5344 16.2793 65.1072 14.5527 66.2527 13.3242C67.3982 12.0957 68.884 11.4814 70.7102 11.4814C72.4783 11.4814 73.9226 12.0833 75.0432 13.2869C76.1638 14.4905 76.7241 16.1838 76.7241 18.3669C76.7241 18.4998 76.72 18.699 76.7117 18.9646H66.8503C66.9333 20.4172 67.3442 21.5295 68.083 22.3015C68.8218 23.0735 69.7432 23.4595 70.8472 23.4595C71.6689 23.4595 72.3704 23.2437 72.9514 22.812C73.5325 22.3804 73.9932 21.6914 74.3335 20.7451ZM66.9749 17.1218H74.3584C74.2588 16.0095 73.9766 15.1753 73.5117 14.6191C72.7979 13.7559 71.8723 13.3242 70.7351 13.3242C69.7058 13.3242 68.8384 13.6687 68.1328 14.3577C67.4355 15.0466 67.0496 15.968 66.9749 17.1218Z" fill="black" fill-opacity="0.2"/>
<path d="M74.3335 20.7451L76.6494 21.0315C76.2842 22.3845 75.6077 23.4346 74.6199 24.1816C73.6321 24.9287 72.3704 25.3022 70.8347 25.3022C68.9006 25.3022 67.365 24.7087 66.2278 23.5217C65.0989 22.3264 64.5344 20.6538 64.5344 18.5039C64.5344 16.2793 65.1072 14.5527 66.2527 13.3242C67.3982 12.0957 68.884 11.4814 70.7102 11.4814C72.4783 11.4814 73.9226 12.0833 75.0432 13.2869C76.1638 14.4905 76.7241 16.1838 76.7241 18.3669C76.7241 18.4998 76.72 18.699 76.7117 18.9646H66.8503C66.9333 20.4172 67.3442 21.5295 68.083 22.3015C68.8218 23.0735 69.7432 23.4595 70.8472 23.4595C71.6689 23.4595 72.3704 23.2437 72.9514 22.812C73.5325 22.3804 73.9932 21.6914 74.3335 20.7451ZM66.9749 17.1218H74.3584C74.2588 16.0095 73.9766 15.1753 73.5117 14.6191C72.7979 13.7559 71.8723 13.3242 70.7351 13.3242C69.7058 13.3242 68.8384 13.6687 68.1328 14.3577C67.4355 15.0466 67.0496 15.968 66.9749 17.1218Z" fill="black" fill-opacity="0.2"/>
<path d="M74.3335 20.7451L76.6494 21.0315C76.2842 22.3845 75.6077 23.4346 74.6199 24.1816C73.6321 24.9287 72.3704 25.3022 70.8347 25.3022C68.9006 25.3022 67.365 24.7087 66.2278 23.5217C65.0989 22.3264 64.5344 20.6538 64.5344 18.5039C64.5344 16.2793 65.1072 14.5527 66.2527 13.3242C67.3982 12.0957 68.884 11.4814 70.7102 11.4814C72.4783 11.4814 73.9226 12.0833 75.0432 13.2869C76.1638 14.4905 76.7241 16.1838 76.7241 18.3669C76.7241 18.4998 76.72 18.699 76.7117 18.9646H66.8503C66.9333 20.4172 67.3442 21.5295 68.083 22.3015C68.8218 23.0735 69.7432 23.4595 70.8472 23.4595C71.6689 23.4595 72.3704 23.2437 72.9514 22.812C73.5325 22.3804 73.9932 21.6914 74.3335 20.7451ZM66.9749 17.1218H74.3584C74.2588 16.0095 73.9766 15.1753 73.5117 14.6191C72.7979 13.7559 71.8723 13.3242 70.7351 13.3242C69.7058 13.3242 68.8384 13.6687 68.1328 14.3577C67.4355 15.0466 67.0496 15.968 66.9749 17.1218Z" fill="black" fill-opacity="0.2"/>
<path d="M74.3335 20.7451L76.6494 21.0315C76.2842 22.3845 75.6077 23.4346 74.6199 24.1816C73.6321 24.9287 72.3704 25.3022 70.8347 25.3022C68.9006 25.3022 67.365 24.7087 66.2278 23.5217C65.0989 22.3264 64.5344 20.6538 64.5344 18.5039C64.5344 16.2793 65.1072 14.5527 66.2527 13.3242C67.3982 12.0957 68.884 11.4814 70.7102 11.4814C72.4783 11.4814 73.9226 12.0833 75.0432 13.2869C76.1638 14.4905 76.7241 16.1838 76.7241 18.3669C76.7241 18.4998 76.72 18.699 76.7117 18.9646H66.8503C66.9333 20.4172 67.3442 21.5295 68.083 22.3015C68.8218 23.0735 69.7432 23.4595 70.8472 23.4595C71.6689 23.4595 72.3704 23.2437 72.9514 22.812C73.5325 22.3804 73.9932 21.6914 74.3335 20.7451ZM66.9749 17.1218H74.3584C74.2588 16.0095 73.9766 15.1753 73.5117 14.6191C72.7979 13.7559 71.8723 13.3242 70.7351 13.3242C69.7058 13.3242 68.8384 13.6687 68.1328 14.3577C67.4355 15.0466 67.0496 15.968 66.9749 17.1218Z" fill="black" fill-opacity="0.2"/>
<path d="M88.7607 23.3723C87.9307 24.0779 87.1296 24.5759 86.3577 24.8665C85.594 25.157 84.7722 25.3022 83.8923 25.3022C82.4397 25.3022 81.3232 24.9495 80.543 24.2439C79.7627 23.53 79.3726 22.6211 79.3726 21.5171C79.3726 20.8696 79.5178 20.2803 79.8083 19.749C80.1072 19.2095 80.4932 18.7778 80.9663 18.4541C81.4478 18.1304 81.9873 17.8855 82.585 17.7195C83.0249 17.6033 83.689 17.4912 84.5771 17.3833C86.3867 17.1675 87.719 16.9102 88.574 16.6113C88.5823 16.3042 88.5864 16.1091 88.5864 16.0261C88.5864 15.113 88.3748 14.4697 87.9514 14.0962C87.3787 13.5898 86.5278 13.3367 85.3989 13.3367C84.3447 13.3367 83.5645 13.5234 83.0581 13.897C82.5601 14.2622 82.1907 14.9138 81.95 15.8518L79.7585 15.553C79.9578 14.615 80.2856 13.8596 80.7422 13.2869C81.1987 12.7058 81.8586 12.2617 82.7219 11.9546C83.5852 11.6392 84.5854 11.4814 85.7227 11.4814C86.8516 11.4814 87.7688 11.6143 88.4744 11.8799C89.1799 12.1455 89.6987 12.4817 90.0308 12.8884C90.3628 13.2869 90.5952 13.7932 90.728 14.4075C90.8027 14.7893 90.8401 15.4783 90.8401 16.4744V19.4626C90.8401 21.5461 90.8857 22.866 90.9771 23.4221C91.0767 23.97 91.2676 24.4971 91.5498 25.0034H89.209C88.9766 24.5386 88.8271 23.9949 88.7607 23.3723ZM88.574 18.3669C87.7605 18.699 86.5403 18.9812 84.9133 19.2136C83.9919 19.3464 83.3403 19.4958 82.9585 19.6619C82.5767 19.8279 82.282 20.0728 82.0745 20.3965C81.8669 20.7119 81.7632 21.0647 81.7632 21.4548C81.7632 22.0525 81.9873 22.5505 82.4355 22.949C82.8921 23.3474 83.5562 23.5466 84.4277 23.5466C85.291 23.5466 86.0588 23.3599 86.7312 22.9863C87.4036 22.6045 87.8975 22.0857 88.2129 21.4299C88.4536 20.9236 88.574 20.1765 88.574 19.1887V18.3669Z" fill="#151618"/>
<path d="M88.7607 23.3723C87.9307 24.0779 87.1296 24.5759 86.3577 24.8665C85.594 25.157 84.7722 25.3022 83.8923 25.3022C82.4397 25.3022 81.3232 24.9495 80.543 24.2439C79.7627 23.53 79.3726 22.6211 79.3726 21.5171C79.3726 20.8696 79.5178 20.2803 79.8083 19.749C80.1072 19.2095 80.4932 18.7778 80.9663 18.4541C81.4478 18.1304 81.9873 17.8855 82.585 17.7195C83.0249 17.6033 83.689 17.4912 84.5771 17.3833C86.3867 17.1675 87.719 16.9102 88.574 16.6113C88.5823 16.3042 88.5864 16.1091 88.5864 16.0261C88.5864 15.113 88.3748 14.4697 87.9514 14.0962C87.3787 13.5898 86.5278 13.3367 85.3989 13.3367C84.3447 13.3367 83.5645 13.5234 83.0581 13.897C82.5601 14.2622 82.1907 14.9138 81.95 15.8518L79.7585 15.553C79.9578 14.615 80.2856 13.8596 80.7422 13.2869C81.1987 12.7058 81.8586 12.2617 82.7219 11.9546C83.5852 11.6392 84.5854 11.4814 85.7227 11.4814C86.8516 11.4814 87.7688 11.6143 88.4744 11.8799C89.1799 12.1455 89.6987 12.4817 90.0308 12.8884C90.3628 13.2869 90.5952 13.7932 90.728 14.4075C90.8027 14.7893 90.8401 15.4783 90.8401 16.4744V19.4626C90.8401 21.5461 90.8857 22.866 90.9771 23.4221C91.0767 23.97 91.2676 24.4971 91.5498 25.0034H89.209C88.9766 24.5386 88.8271 23.9949 88.7607 23.3723ZM88.574 18.3669C87.7605 18.699 86.5403 18.9812 84.9133 19.2136C83.9919 19.3464 83.3403 19.4958 82.9585 19.6619C82.5767 19.8279 82.282 20.0728 82.0745 20.3965C81.8669 20.7119 81.7632 21.0647 81.7632 21.4548C81.7632 22.0525 81.9873 22.5505 82.4355 22.949C82.8921 23.3474 83.5562 23.5466 84.4277 23.5466C85.291 23.5466 86.0588 23.3599 86.7312 22.9863C87.4036 22.6045 87.8975 22.0857 88.2129 21.4299C88.4536 20.9236 88.574 20.1765 88.574 19.1887V18.3669Z" fill="black" fill-opacity="0.2"/>
<path d="M88.7607 23.3723C87.9307 24.0779 87.1296 24.5759 86.3577 24.8665C85.594 25.157 84.7722 25.3022 83.8923 25.3022C82.4397 25.3022 81.3232 24.9495 80.543 24.2439C79.7627 23.53 79.3726 22.6211 79.3726 21.5171C79.3726 20.8696 79.5178 20.2803 79.8083 19.749C80.1072 19.2095 80.4932 18.7778 80.9663 18.4541C81.4478 18.1304 81.9873 17.8855 82.585 17.7195C83.0249 17.6033 83.689 17.4912 84.5771 17.3833C86.3867 17.1675 87.719 16.9102 88.574 16.6113C88.5823 16.3042 88.5864 16.1091 88.5864 16.0261C88.5864 15.113 88.3748 14.4697 87.9514 14.0962C87.3787 13.5898 86.5278 13.3367 85.3989 13.3367C84.3447 13.3367 83.5645 13.5234 83.0581 13.897C82.5601 14.2622 82.1907 14.9138 81.95 15.8518L79.7585 15.553C79.9578 14.615 80.2856 13.8596 80.7422 13.2869C81.1987 12.7058 81.8586 12.2617 82.7219 11.9546C83.5852 11.6392 84.5854 11.4814 85.7227 11.4814C86.8516 11.4814 87.7688 11.6143 88.4744 11.8799C89.1799 12.1455 89.6987 12.4817 90.0308 12.8884C90.3628 13.2869 90.5952 13.7932 90.728 14.4075C90.8027 14.7893 90.8401 15.4783 90.8401 16.4744V19.4626C90.8401 21.5461 90.8857 22.866 90.9771 23.4221C91.0767 23.97 91.2676 24.4971 91.5498 25.0034H89.209C88.9766 24.5386 88.8271 23.9949 88.7607 23.3723ZM88.574 18.3669C87.7605 18.699 86.5403 18.9812 84.9133 19.2136C83.9919 19.3464 83.3403 19.4958 82.9585 19.6619C82.5767 19.8279 82.282 20.0728 82.0745 20.3965C81.8669 20.7119 81.7632 21.0647 81.7632 21.4548C81.7632 22.0525 81.9873 22.5505 82.4355 22.949C82.8921 23.3474 83.5562 23.5466 84.4277 23.5466C85.291 23.5466 86.0588 23.3599 86.7312 22.9863C87.4036 22.6045 87.8975 22.0857 88.2129 21.4299C88.4536 20.9236 88.574 20.1765 88.574 19.1887V18.3669Z" fill="black" fill-opacity="0.2"/>
<path d="M88.7607 23.3723C87.9307 24.0779 87.1296 24.5759 86.3577 24.8665C85.594 25.157 84.7722 25.3022 83.8923 25.3022C82.4397 25.3022 81.3232 24.9495 80.543 24.2439C79.7627 23.53 79.3726 22.6211 79.3726 21.5171C79.3726 20.8696 79.5178 20.2803 79.8083 19.749C80.1072 19.2095 80.4932 18.7778 80.9663 18.4541C81.4478 18.1304 81.9873 17.8855 82.585 17.7195C83.0249 17.6033 83.689 17.4912 84.5771 17.3833C86.3867 17.1675 87.719 16.9102 88.574 16.6113C88.5823 16.3042 88.5864 16.1091 88.5864 16.0261C88.5864 15.113 88.3748 14.4697 87.9514 14.0962C87.3787 13.5898 86.5278 13.3367 85.3989 13.3367C84.3447 13.3367 83.5645 13.5234 83.0581 13.897C82.5601 14.2622 82.1907 14.9138 81.95 15.8518L79.7585 15.553C79.9578 14.615 80.2856 13.8596 80.7422 13.2869C81.1987 12.7058 81.8586 12.2617 82.7219 11.9546C83.5852 11.6392 84.5854 11.4814 85.7227 11.4814C86.8516 11.4814 87.7688 11.6143 88.4744 11.8799C89.1799 12.1455 89.6987 12.4817 90.0308 12.8884C90.3628 13.2869 90.5952 13.7932 90.728 14.4075C90.8027 14.7893 90.8401 15.4783 90.8401 16.4744V19.4626C90.8401 21.5461 90.8857 22.866 90.9771 23.4221C91.0767 23.97 91.2676 24.4971 91.5498 25.0034H89.209C88.9766 24.5386 88.8271 23.9949 88.7607 23.3723ZM88.574 18.3669C87.7605 18.699 86.5403 18.9812 84.9133 19.2136C83.9919 19.3464 83.3403 19.4958 82.9585 19.6619C82.5767 19.8279 82.282 20.0728 82.0745 20.3965C81.8669 20.7119 81.7632 21.0647 81.7632 21.4548C81.7632 22.0525 81.9873 22.5505 82.4355 22.949C82.8921 23.3474 83.5562 23.5466 84.4277 23.5466C85.291 23.5466 86.0588 23.3599 86.7312 22.9863C87.4036 22.6045 87.8975 22.0857 88.2129 21.4299C88.4536 20.9236 88.574 20.1765 88.574 19.1887V18.3669Z" fill="black" fill-opacity="0.2"/>
<path d="M88.7607 23.3723C87.9307 24.0779 87.1296 24.5759 86.3577 24.8665C85.594 25.157 84.7722 25.3022 83.8923 25.3022C82.4397 25.3022 81.3232 24.9495 80.543 24.2439C79.7627 23.53 79.3726 22.6211 79.3726 21.5171C79.3726 20.8696 79.5178 20.2803 79.8083 19.749C80.1072 19.2095 80.4932 18.7778 80.9663 18.4541C81.4478 18.1304 81.9873 17.8855 82.585 17.7195C83.0249 17.6033 83.689 17.4912 84.5771 17.3833C86.3867 17.1675 87.719 16.9102 88.574 16.6113C88.5823 16.3042 88.5864 16.1091 88.5864 16.0261C88.5864 15.113 88.3748 14.4697 87.9514 14.0962C87.3787 13.5898 86.5278 13.3367 85.3989 13.3367C84.3447 13.3367 83.5645 13.5234 83.0581 13.897C82.5601 14.2622 82.1907 14.9138 81.95 15.8518L79.7585 15.553C79.9578 14.615 80.2856 13.8596 80.7422 13.2869C81.1987 12.7058 81.8586 12.2617 82.7219 11.9546C83.5852 11.6392 84.5854 11.4814 85.7227 11.4814C86.8516 11.4814 87.7688 11.6143 88.4744 11.8799C89.1799 12.1455 89.6987 12.4817 90.0308 12.8884C90.3628 13.2869 90.5952 13.7932 90.728 14.4075C90.8027 14.7893 90.8401 15.4783 90.8401 16.4744V19.4626C90.8401 21.5461 90.8857 22.866 90.9771 23.4221C91.0767 23.97 91.2676 24.4971 91.5498 25.0034H89.209C88.9766 24.5386 88.8271 23.9949 88.7607 23.3723ZM88.574 18.3669C87.7605 18.699 86.5403 18.9812 84.9133 19.2136C83.9919 19.3464 83.3403 19.4958 82.9585 19.6619C82.5767 19.8279 82.282 20.0728 82.0745 20.3965C81.8669 20.7119 81.7632 21.0647 81.7632 21.4548C81.7632 22.0525 81.9873 22.5505 82.4355 22.949C82.8921 23.3474 83.5562 23.5466 84.4277 23.5466C85.291 23.5466 86.0588 23.3599 86.7312 22.9863C87.4036 22.6045 87.8975 22.0857 88.2129 21.4299C88.4536 20.9236 88.574 20.1765 88.574 19.1887V18.3669Z" fill="black" fill-opacity="0.2"/>
<path d="M88.7607 23.3723C87.9307 24.0779 87.1296 24.5759 86.3577 24.8665C85.594 25.157 84.7722 25.3022 83.8923 25.3022C82.4397 25.3022 81.3232 24.9495 80.543 24.2439C79.7627 23.53 79.3726 22.6211 79.3726 21.5171C79.3726 20.8696 79.5178 20.2803 79.8083 19.749C80.1072 19.2095 80.4932 18.7778 80.9663 18.4541C81.4478 18.1304 81.9873 17.8855 82.585 17.7195C83.0249 17.6033 83.689 17.4912 84.5771 17.3833C86.3867 17.1675 87.719 16.9102 88.574 16.6113C88.5823 16.3042 88.5864 16.1091 88.5864 16.0261C88.5864 15.113 88.3748 14.4697 87.9514 14.0962C87.3787 13.5898 86.5278 13.3367 85.3989 13.3367C84.3447 13.3367 83.5645 13.5234 83.0581 13.897C82.5601 14.2622 82.1907 14.9138 81.95 15.8518L79.7585 15.553C79.9578 14.615 80.2856 13.8596 80.7422 13.2869C81.1987 12.7058 81.8586 12.2617 82.7219 11.9546C83.5852 11.6392 84.5854 11.4814 85.7227 11.4814C86.8516 11.4814 87.7688 11.6143 88.4744 11.8799C89.1799 12.1455 89.6987 12.4817 90.0308 12.8884C90.3628 13.2869 90.5952 13.7932 90.728 14.4075C90.8027 14.7893 90.8401 15.4783 90.8401 16.4744V19.4626C90.8401 21.5461 90.8857 22.866 90.9771 23.4221C91.0767 23.97 91.2676 24.4971 91.5498 25.0034H89.209C88.9766 24.5386 88.8271 23.9949 88.7607 23.3723ZM88.574 18.3669C87.7605 18.699 86.5403 18.9812 84.9133 19.2136C83.9919 19.3464 83.3403 19.4958 82.9585 19.6619C82.5767 19.8279 82.282 20.0728 82.0745 20.3965C81.8669 20.7119 81.7632 21.0647 81.7632 21.4548C81.7632 22.0525 81.9873 22.5505 82.4355 22.949C82.8921 23.3474 83.5562 23.5466 84.4277 23.5466C85.291 23.5466 86.0588 23.3599 86.7312 22.9863C87.4036 22.6045 87.8975 22.0857 88.2129 21.4299C88.4536 20.9236 88.574 20.1765 88.574 19.1887V18.3669Z" fill="black" fill-opacity="0.2"/>
<path d="M103.562 25.0034V23.335C102.723 24.6465 101.49 25.3022 99.8635 25.3022C98.8093 25.3022 97.8381 25.0117 96.95 24.4307C96.0701 23.8496 95.3853 23.0403 94.8955 22.0027C94.4141 20.9568 94.1733 19.7573 94.1733 18.4043C94.1733 17.0845 94.3933 15.8892 94.8333 14.8184C95.2732 13.7393 95.9331 12.9133 96.813 12.3406C97.6929 11.7678 98.6765 11.4814 99.7639 11.4814C100.561 11.4814 101.271 11.6516 101.893 11.9919C102.516 12.324 103.022 12.7598 103.412 13.2993V6.75H105.641V25.0034H103.562ZM96.4768 18.4043C96.4768 20.0977 96.8337 21.3635 97.5476 22.2019C98.2615 23.0403 99.104 23.4595 100.075 23.4595C101.055 23.4595 101.885 23.061 102.565 22.2642C103.254 21.459 103.599 20.2346 103.599 18.5911C103.599 16.7815 103.25 15.4534 102.553 14.6067C101.856 13.76 100.997 13.3367 99.9756 13.3367C98.9795 13.3367 98.1453 13.7434 97.4729 14.5569C96.8088 15.3704 96.4768 16.6528 96.4768 18.4043Z" fill="#151618"/>
<path d="M103.562 25.0034V23.335C102.723 24.6465 101.49 25.3022 99.8635 25.3022C98.8093 25.3022 97.8381 25.0117 96.95 24.4307C96.0701 23.8496 95.3853 23.0403 94.8955 22.0027C94.4141 20.9568 94.1733 19.7573 94.1733 18.4043C94.1733 17.0845 94.3933 15.8892 94.8333 14.8184C95.2732 13.7393 95.9331 12.9133 96.813 12.3406C97.6929 11.7678 98.6765 11.4814 99.7639 11.4814C100.561 11.4814 101.271 11.6516 101.893 11.9919C102.516 12.324 103.022 12.7598 103.412 13.2993V6.75H105.641V25.0034H103.562ZM96.4768 18.4043C96.4768 20.0977 96.8337 21.3635 97.5476 22.2019C98.2615 23.0403 99.104 23.4595 100.075 23.4595C101.055 23.4595 101.885 23.061 102.565 22.2642C103.254 21.459 103.599 20.2346 103.599 18.5911C103.599 16.7815 103.25 15.4534 102.553 14.6067C101.856 13.76 100.997 13.3367 99.9756 13.3367C98.9795 13.3367 98.1453 13.7434 97.4729 14.5569C96.8088 15.3704 96.4768 16.6528 96.4768 18.4043Z" fill="black" fill-opacity="0.2"/>
<path d="M103.562 25.0034V23.335C102.723 24.6465 101.49 25.3022 99.8635 25.3022C98.8093 25.3022 97.8381 25.0117 96.95 24.4307C96.0701 23.8496 95.3853 23.0403 94.8955 22.0027C94.4141 20.9568 94.1733 19.7573 94.1733 18.4043C94.1733 17.0845 94.3933 15.8892 94.8333 14.8184C95.2732 13.7393 95.9331 12.9133 96.813 12.3406C97.6929 11.7678 98.6765 11.4814 99.7639 11.4814C100.561 11.4814 101.271 11.6516 101.893 11.9919C102.516 12.324 103.022 12.7598 103.412 13.2993V6.75H105.641V25.0034H103.562ZM96.4768 18.4043C96.4768 20.0977 96.8337 21.3635 97.5476 22.2019C98.2615 23.0403 99.104 23.4595 100.075 23.4595C101.055 23.4595 101.885 23.061 102.565 22.2642C103.254 21.459 103.599 20.2346 103.599 18.5911C103.599 16.7815 103.25 15.4534 102.553 14.6067C101.856 13.76 100.997 13.3367 99.9756 13.3367C98.9795 13.3367 98.1453 13.7434 97.4729 14.5569C96.8088 15.3704 96.4768 16.6528 96.4768 18.4043Z" fill="black" fill-opacity="0.2"/>
<path d="M103.562 25.0034V23.335C102.723 24.6465 101.49 25.3022 99.8635 25.3022C98.8093 25.3022 97.8381 25.0117 96.95 24.4307C96.0701 23.8496 95.3853 23.0403 94.8955 22.0027C94.4141 20.9568 94.1733 19.7573 94.1733 18.4043C94.1733 17.0845 94.3933 15.8892 94.8333 14.8184C95.2732 13.7393 95.9331 12.9133 96.813 12.3406C97.6929 11.7678 98.6765 11.4814 99.7639 11.4814C100.561 11.4814 101.271 11.6516 101.893 11.9919C102.516 12.324 103.022 12.7598 103.412 13.2993V6.75H105.641V25.0034H103.562ZM96.4768 18.4043C96.4768 20.0977 96.8337 21.3635 97.5476 22.2019C98.2615 23.0403 99.104 23.4595 100.075 23.4595C101.055 23.4595 101.885 23.061 102.565 22.2642C103.254 21.459 103.599 20.2346 103.599 18.5911C103.599 16.7815 103.25 15.4534 102.553 14.6067C101.856 13.76 100.997 13.3367 99.9756 13.3367C98.9795 13.3367 98.1453 13.7434 97.4729 14.5569C96.8088 15.3704 96.4768 16.6528 96.4768 18.4043Z" fill="black" fill-opacity="0.2"/>
<path d="M103.562 25.0034V23.335C102.723 24.6465 101.49 25.3022 99.8635 25.3022C98.8093 25.3022 97.8381 25.0117 96.95 24.4307C96.0701 23.8496 95.3853 23.0403 94.8955 22.0027C94.4141 20.9568 94.1733 19.7573 94.1733 18.4043C94.1733 17.0845 94.3933 15.8892 94.8333 14.8184C95.2732 13.7393 95.9331 12.9133 96.813 12.3406C97.6929 11.7678 98.6765 11.4814 99.7639 11.4814C100.561 11.4814 101.271 11.6516 101.893 11.9919C102.516 12.324 103.022 12.7598 103.412 13.2993V6.75H105.641V25.0034H103.562ZM96.4768 18.4043C96.4768 20.0977 96.8337 21.3635 97.5476 22.2019C98.2615 23.0403 99.104 23.4595 100.075 23.4595C101.055 23.4595 101.885 23.061 102.565 22.2642C103.254 21.459 103.599 20.2346 103.599 18.5911C103.599 16.7815 103.25 15.4534 102.553 14.6067C101.856 13.76 100.997 13.3367 99.9756 13.3367C98.9795 13.3367 98.1453 13.7434 97.4729 14.5569C96.8088 15.3704 96.4768 16.6528 96.4768 18.4043Z" fill="black" fill-opacity="0.2"/>
<path d="M103.562 25.0034V23.335C102.723 24.6465 101.49 25.3022 99.8635 25.3022C98.8093 25.3022 97.8381 25.0117 96.95 24.4307C96.0701 23.8496 95.3853 23.0403 94.8955 22.0027C94.4141 20.9568 94.1733 19.7573 94.1733 18.4043C94.1733 17.0845 94.3933 15.8892 94.8333 14.8184C95.2732 13.7393 95.9331 12.9133 96.813 12.3406C97.6929 11.7678 98.6765 11.4814 99.7639 11.4814C100.561 11.4814 101.271 11.6516 101.893 11.9919C102.516 12.324 103.022 12.7598 103.412 13.2993V6.75H105.641V25.0034H103.562ZM96.4768 18.4043C96.4768 20.0977 96.8337 21.3635 97.5476 22.2019C98.2615 23.0403 99.104 23.4595 100.075 23.4595C101.055 23.4595 101.885 23.061 102.565 22.2642C103.254 21.459 103.599 20.2346 103.599 18.5911C103.599 16.7815 103.25 15.4534 102.553 14.6067C101.856 13.76 100.997 13.3367 99.9756 13.3367C98.9795 13.3367 98.1453 13.7434 97.4729 14.5569C96.8088 15.3704 96.4768 16.6528 96.4768 18.4043Z" fill="black" fill-opacity="0.2"/>
<path d="M110.12 25.0034V6.75H117.005C118.217 6.75 119.143 6.80811 119.782 6.92432C120.678 7.07373 121.429 7.36011 122.035 7.78345C122.641 8.19849 123.127 8.78369 123.492 9.53906C123.866 10.2944 124.052 11.1245 124.052 12.0293C124.052 13.5815 123.559 14.8972 122.571 15.9763C121.583 17.0471 119.798 17.5825 117.217 17.5825H112.535V25.0034H110.12ZM112.535 15.4285H117.254C118.815 15.4285 119.923 15.1379 120.579 14.5569C121.234 13.9758 121.562 13.1582 121.562 12.104C121.562 11.3403 121.367 10.6887 120.977 10.1492C120.595 9.60132 120.089 9.24023 119.458 9.06592C119.051 8.95801 118.3 8.90405 117.204 8.90405H112.535V15.4285Z" fill="#151618"/>
<path d="M110.12 25.0034V6.75H117.005C118.217 6.75 119.143 6.80811 119.782 6.92432C120.678 7.07373 121.429 7.36011 122.035 7.78345C122.641 8.19849 123.127 8.78369 123.492 9.53906C123.866 10.2944 124.052 11.1245 124.052 12.0293C124.052 13.5815 123.559 14.8972 122.571 15.9763C121.583 17.0471 119.798 17.5825 117.217 17.5825H112.535V25.0034H110.12ZM112.535 15.4285H117.254C118.815 15.4285 119.923 15.1379 120.579 14.5569C121.234 13.9758 121.562 13.1582 121.562 12.104C121.562 11.3403 121.367 10.6887 120.977 10.1492C120.595 9.60132 120.089 9.24023 119.458 9.06592C119.051 8.95801 118.3 8.90405 117.204 8.90405H112.535V15.4285Z" fill="black" fill-opacity="0.2"/>
<path d="M110.12 25.0034V6.75H117.005C118.217 6.75 119.143 6.80811 119.782 6.92432C120.678 7.07373 121.429 7.36011 122.035 7.78345C122.641 8.19849 123.127 8.78369 123.492 9.53906C123.866 10.2944 124.052 11.1245 124.052 12.0293C124.052 13.5815 123.559 14.8972 122.571 15.9763C121.583 17.0471 119.798 17.5825 117.217 17.5825H112.535V25.0034H110.12ZM112.535 15.4285H117.254C118.815 15.4285 119.923 15.1379 120.579 14.5569C121.234 13.9758 121.562 13.1582 121.562 12.104C121.562 11.3403 121.367 10.6887 120.977 10.1492C120.595 9.60132 120.089 9.24023 119.458 9.06592C119.051 8.95801 118.3 8.90405 117.204 8.90405H112.535V15.4285Z" fill="black" fill-opacity="0.2"/>
<path d="M110.12 25.0034V6.75H117.005C118.217 6.75 119.143 6.80811 119.782 6.92432C120.678 7.07373 121.429 7.36011 122.035 7.78345C122.641 8.19849 123.127 8.78369 123.492 9.53906C123.866 10.2944 124.052 11.1245 124.052 12.0293C124.052 13.5815 123.559 14.8972 122.571 15.9763C121.583 17.0471 119.798 17.5825 117.217 17.5825H112.535V25.0034H110.12ZM112.535 15.4285H117.254C118.815 15.4285 119.923 15.1379 120.579 14.5569C121.234 13.9758 121.562 13.1582 121.562 12.104C121.562 11.3403 121.367 10.6887 120.977 10.1492C120.595 9.60132 120.089 9.24023 119.458 9.06592C119.051 8.95801 118.3 8.90405 117.204 8.90405H112.535V15.4285Z" fill="black" fill-opacity="0.2"/>
<path d="M110.12 25.0034V6.75H117.005C118.217 6.75 119.143 6.80811 119.782 6.92432C120.678 7.07373 121.429 7.36011 122.035 7.78345C122.641 8.19849 123.127 8.78369 123.492 9.53906C123.866 10.2944 124.052 11.1245 124.052 12.0293C124.052 13.5815 123.559 14.8972 122.571 15.9763C121.583 17.0471 119.798 17.5825 117.217 17.5825H112.535V25.0034H110.12ZM112.535 15.4285H117.254C118.815 15.4285 119.923 15.1379 120.579 14.5569C121.234 13.9758 121.562 13.1582 121.562 12.104C121.562 11.3403 121.367 10.6887 120.977 10.1492C120.595 9.60132 120.089 9.24023 119.458 9.06592C119.051 8.95801 118.3 8.90405 117.204 8.90405H112.535V15.4285Z" fill="black" fill-opacity="0.2"/>
<path d="M110.12 25.0034V6.75H117.005C118.217 6.75 119.143 6.80811 119.782 6.92432C120.678 7.07373 121.429 7.36011 122.035 7.78345C122.641 8.19849 123.127 8.78369 123.492 9.53906C123.866 10.2944 124.052 11.1245 124.052 12.0293C124.052 13.5815 123.559 14.8972 122.571 15.9763C121.583 17.0471 119.798 17.5825 117.217 17.5825H112.535V25.0034H110.12ZM112.535 15.4285H117.254C118.815 15.4285 119.923 15.1379 120.579 14.5569C121.234 13.9758 121.562 13.1582 121.562 12.104C121.562 11.3403 121.367 10.6887 120.977 10.1492C120.595 9.60132 120.089 9.24023 119.458 9.06592C119.051 8.95801 118.3 8.90405 117.204 8.90405H112.535V15.4285Z" fill="black" fill-opacity="0.2"/>
<path d="M126.664 18.3918C126.664 15.9431 127.344 14.1294 128.706 12.9507C129.843 11.9712 131.229 11.4814 132.864 11.4814C134.682 11.4814 136.168 12.0791 137.322 13.2744C138.476 14.4614 139.052 16.105 139.052 18.2051C139.052 19.9067 138.795 21.2473 138.281 22.2268C137.774 23.198 137.031 23.9534 136.052 24.4929C135.081 25.0325 134.018 25.3022 132.864 25.3022C131.013 25.3022 129.515 24.7087 128.369 23.5217C127.232 22.3347 126.664 20.6248 126.664 18.3918ZM128.967 18.3918C128.967 20.0852 129.336 21.3552 130.075 22.2019C130.814 23.0403 131.744 23.4595 132.864 23.4595C133.977 23.4595 134.902 23.0361 135.641 22.1895C136.38 21.3428 136.749 20.052 136.749 18.3171C136.749 16.6819 136.375 15.4451 135.628 14.6067C134.89 13.76 133.968 13.3367 132.864 13.3367C131.744 13.3367 130.814 13.7559 130.075 14.5942C129.336 15.4326 128.967 16.6985 128.967 18.3918Z" fill="#151618"/>
<path d="M126.664 18.3918C126.664 15.9431 127.344 14.1294 128.706 12.9507C129.843 11.9712 131.229 11.4814 132.864 11.4814C134.682 11.4814 136.168 12.0791 137.322 13.2744C138.476 14.4614 139.052 16.105 139.052 18.2051C139.052 19.9067 138.795 21.2473 138.281 22.2268C137.774 23.198 137.031 23.9534 136.052 24.4929C135.081 25.0325 134.018 25.3022 132.864 25.3022C131.013 25.3022 129.515 24.7087 128.369 23.5217C127.232 22.3347 126.664 20.6248 126.664 18.3918ZM128.967 18.3918C128.967 20.0852 129.336 21.3552 130.075 22.2019C130.814 23.0403 131.744 23.4595 132.864 23.4595C133.977 23.4595 134.902 23.0361 135.641 22.1895C136.38 21.3428 136.749 20.052 136.749 18.3171C136.749 16.6819 136.375 15.4451 135.628 14.6067C134.89 13.76 133.968 13.3367 132.864 13.3367C131.744 13.3367 130.814 13.7559 130.075 14.5942C129.336 15.4326 128.967 16.6985 128.967 18.3918Z" fill="black" fill-opacity="0.2"/>
<path d="M126.664 18.3918C126.664 15.9431 127.344 14.1294 128.706 12.9507C129.843 11.9712 131.229 11.4814 132.864 11.4814C134.682 11.4814 136.168 12.0791 137.322 13.2744C138.476 14.4614 139.052 16.105 139.052 18.2051C139.052 19.9067 138.795 21.2473 138.281 22.2268C137.774 23.198 137.031 23.9534 136.052 24.4929C135.081 25.0325 134.018 25.3022 132.864 25.3022C131.013 25.3022 129.515 24.7087 128.369 23.5217C127.232 22.3347 126.664 20.6248 126.664 18.3918ZM128.967 18.3918C128.967 20.0852 129.336 21.3552 130.075 22.2019C130.814 23.0403 131.744 23.4595 132.864 23.4595C133.977 23.4595 134.902 23.0361 135.641 22.1895C136.38 21.3428 136.749 20.052 136.749 18.3171C136.749 16.6819 136.375 15.4451 135.628 14.6067C134.89 13.76 133.968 13.3367 132.864 13.3367C131.744 13.3367 130.814 13.7559 130.075 14.5942C129.336 15.4326 128.967 16.6985 128.967 18.3918Z" fill="black" fill-opacity="0.2"/>
<path d="M126.664 18.3918C126.664 15.9431 127.344 14.1294 128.706 12.9507C129.843 11.9712 131.229 11.4814 132.864 11.4814C134.682 11.4814 136.168 12.0791 137.322 13.2744C138.476 14.4614 139.052 16.105 139.052 18.2051C139.052 19.9067 138.795 21.2473 138.281 22.2268C137.774 23.198 137.031 23.9534 136.052 24.4929C135.081 25.0325 134.018 25.3022 132.864 25.3022C131.013 25.3022 129.515 24.7087 128.369 23.5217C127.232 22.3347 126.664 20.6248 126.664 18.3918ZM128.967 18.3918C128.967 20.0852 129.336 21.3552 130.075 22.2019C130.814 23.0403 131.744 23.4595 132.864 23.4595C133.977 23.4595 134.902 23.0361 135.641 22.1895C136.38 21.3428 136.749 20.052 136.749 18.3171C136.749 16.6819 136.375 15.4451 135.628 14.6067C134.89 13.76 133.968 13.3367 132.864 13.3367C131.744 13.3367 130.814 13.7559 130.075 14.5942C129.336 15.4326 128.967 16.6985 128.967 18.3918Z" fill="black" fill-opacity="0.2"/>
<path d="M126.664 18.3918C126.664 15.9431 127.344 14.1294 128.706 12.9507C129.843 11.9712 131.229 11.4814 132.864 11.4814C134.682 11.4814 136.168 12.0791 137.322 13.2744C138.476 14.4614 139.052 16.105 139.052 18.2051C139.052 19.9067 138.795 21.2473 138.281 22.2268C137.774 23.198 137.031 23.9534 136.052 24.4929C135.081 25.0325 134.018 25.3022 132.864 25.3022C131.013 25.3022 129.515 24.7087 128.369 23.5217C127.232 22.3347 126.664 20.6248 126.664 18.3918ZM128.967 18.3918C128.967 20.0852 129.336 21.3552 130.075 22.2019C130.814 23.0403 131.744 23.4595 132.864 23.4595C133.977 23.4595 134.902 23.0361 135.641 22.1895C136.38 21.3428 136.749 20.052 136.749 18.3171C136.749 16.6819 136.375 15.4451 135.628 14.6067C134.89 13.76 133.968 13.3367 132.864 13.3367C131.744 13.3367 130.814 13.7559 130.075 14.5942C129.336 15.4326 128.967 16.6985 128.967 18.3918Z" fill="black" fill-opacity="0.2"/>
<path d="M126.664 18.3918C126.664 15.9431 127.344 14.1294 128.706 12.9507C129.843 11.9712 131.229 11.4814 132.864 11.4814C134.682 11.4814 136.168 12.0791 137.322 13.2744C138.476 14.4614 139.052 16.105 139.052 18.2051C139.052 19.9067 138.795 21.2473 138.281 22.2268C137.774 23.198 137.031 23.9534 136.052 24.4929C135.081 25.0325 134.018 25.3022 132.864 25.3022C131.013 25.3022 129.515 24.7087 128.369 23.5217C127.232 22.3347 126.664 20.6248 126.664 18.3918ZM128.967 18.3918C128.967 20.0852 129.336 21.3552 130.075 22.2019C130.814 23.0403 131.744 23.4595 132.864 23.4595C133.977 23.4595 134.902 23.0361 135.641 22.1895C136.38 21.3428 136.749 20.052 136.749 18.3171C136.749 16.6819 136.375 15.4451 135.628 14.6067C134.89 13.76 133.968 13.3367 132.864 13.3367C131.744 13.3367 130.814 13.7559 130.075 14.5942C129.336 15.4326 128.967 16.6985 128.967 18.3918Z" fill="black" fill-opacity="0.2"/>
<path d="M142.361 9.32739V6.75H144.602V9.32739H142.361ZM142.361 25.0034V11.7803H144.602V25.0034H142.361Z" fill="#151618"/>
<path d="M142.361 9.32739V6.75H144.602V9.32739H142.361ZM142.361 25.0034V11.7803H144.602V25.0034H142.361Z" fill="black" fill-opacity="0.2"/>
<path d="M142.361 9.32739V6.75H144.602V9.32739H142.361ZM142.361 25.0034V11.7803H144.602V25.0034H142.361Z" fill="black" fill-opacity="0.2"/>
<path d="M142.361 9.32739V6.75H144.602V9.32739H142.361ZM142.361 25.0034V11.7803H144.602V25.0034H142.361Z" fill="black" fill-opacity="0.2"/>
<path d="M142.361 9.32739V6.75H144.602V9.32739H142.361ZM142.361 25.0034V11.7803H144.602V25.0034H142.361Z" fill="black" fill-opacity="0.2"/>
<path d="M142.361 9.32739V6.75H144.602V9.32739H142.361ZM142.361 25.0034V11.7803H144.602V25.0034H142.361Z" fill="black" fill-opacity="0.2"/>
<path d="M148.682 25.0034V11.7803H150.699V13.6604C151.671 12.2078 153.073 11.4814 154.908 11.4814C155.705 11.4814 156.435 11.6267 157.099 11.9172C157.772 12.1995 158.274 12.573 158.606 13.0378C158.938 13.5027 159.17 14.0547 159.303 14.6938C159.386 15.1089 159.428 15.8352 159.428 16.8728V25.0034H157.187V16.96C157.187 16.0469 157.099 15.3662 156.925 14.918C156.751 14.4614 156.439 14.1003 155.991 13.8347C155.551 13.5608 155.032 13.4238 154.435 13.4238C153.48 13.4238 152.654 13.7268 151.957 14.3328C151.268 14.9387 150.924 16.0884 150.924 17.7817V25.0034H148.682Z" fill="#151618"/>
<path d="M148.682 25.0034V11.7803H150.699V13.6604C151.671 12.2078 153.073 11.4814 154.908 11.4814C155.705 11.4814 156.435 11.6267 157.099 11.9172C157.772 12.1995 158.274 12.573 158.606 13.0378C158.938 13.5027 159.17 14.0547 159.303 14.6938C159.386 15.1089 159.428 15.8352 159.428 16.8728V25.0034H157.187V16.96C157.187 16.0469 157.099 15.3662 156.925 14.918C156.751 14.4614 156.439 14.1003 155.991 13.8347C155.551 13.5608 155.032 13.4238 154.435 13.4238C153.48 13.4238 152.654 13.7268 151.957 14.3328C151.268 14.9387 150.924 16.0884 150.924 17.7817V25.0034H148.682Z" fill="black" fill-opacity="0.2"/>
<path d="M148.682 25.0034V11.7803H150.699V13.6604C151.671 12.2078 153.073 11.4814 154.908 11.4814C155.705 11.4814 156.435 11.6267 157.099 11.9172C157.772 12.1995 158.274 12.573 158.606 13.0378C158.938 13.5027 159.17 14.0547 159.303 14.6938C159.386 15.1089 159.428 15.8352 159.428 16.8728V25.0034H157.187V16.96C157.187 16.0469 157.099 15.3662 156.925 14.918C156.751 14.4614 156.439 14.1003 155.991 13.8347C155.551 13.5608 155.032 13.4238 154.435 13.4238C153.48 13.4238 152.654 13.7268 151.957 14.3328C151.268 14.9387 150.924 16.0884 150.924 17.7817V25.0034H148.682Z" fill="black" fill-opacity="0.2"/>
<path d="M148.682 25.0034V11.7803H150.699V13.6604C151.671 12.2078 153.073 11.4814 154.908 11.4814C155.705 11.4814 156.435 11.6267 157.099 11.9172C157.772 12.1995 158.274 12.573 158.606 13.0378C158.938 13.5027 159.17 14.0547 159.303 14.6938C159.386 15.1089 159.428 15.8352 159.428 16.8728V25.0034H157.187V16.96C157.187 16.0469 157.099 15.3662 156.925 14.918C156.751 14.4614 156.439 14.1003 155.991 13.8347C155.551 13.5608 155.032 13.4238 154.435 13.4238C153.48 13.4238 152.654 13.7268 151.957 14.3328C151.268 14.9387 150.924 16.0884 150.924 17.7817V25.0034H148.682Z" fill="black" fill-opacity="0.2"/>
<path d="M148.682 25.0034V11.7803H150.699V13.6604C151.671 12.2078 153.073 11.4814 154.908 11.4814C155.705 11.4814 156.435 11.6267 157.099 11.9172C157.772 12.1995 158.274 12.573 158.606 13.0378C158.938 13.5027 159.17 14.0547 159.303 14.6938C159.386 15.1089 159.428 15.8352 159.428 16.8728V25.0034H157.187V16.96C157.187 16.0469 157.099 15.3662 156.925 14.918C156.751 14.4614 156.439 14.1003 155.991 13.8347C155.551 13.5608 155.032 13.4238 154.435 13.4238C153.48 13.4238 152.654 13.7268 151.957 14.3328C151.268 14.9387 150.924 16.0884 150.924 17.7817V25.0034H148.682Z" fill="black" fill-opacity="0.2"/>
<path d="M148.682 25.0034V11.7803H150.699V13.6604C151.671 12.2078 153.073 11.4814 154.908 11.4814C155.705 11.4814 156.435 11.6267 157.099 11.9172C157.772 12.1995 158.274 12.573 158.606 13.0378C158.938 13.5027 159.17 14.0547 159.303 14.6938C159.386 15.1089 159.428 15.8352 159.428 16.8728V25.0034H157.187V16.96C157.187 16.0469 157.099 15.3662 156.925 14.918C156.751 14.4614 156.439 14.1003 155.991 13.8347C155.551 13.5608 155.032 13.4238 154.435 13.4238C153.48 13.4238 152.654 13.7268 151.957 14.3328C151.268 14.9387 150.924 16.0884 150.924 17.7817V25.0034H148.682Z" fill="black" fill-opacity="0.2"/>
<path d="M168.426 22.9988L168.75 24.9785C168.119 25.1113 167.555 25.1777 167.057 25.1777C166.243 25.1777 165.612 25.0491 165.164 24.7917C164.716 24.5344 164.4 24.1982 164.218 23.7832C164.035 23.3599 163.944 22.4758 163.944 21.1311V13.5234H162.3V11.7803H163.944V8.50562L166.173 7.16089V11.7803H168.426V13.5234H166.173V21.2556C166.173 21.8948 166.21 22.3057 166.285 22.4883C166.368 22.6709 166.496 22.8162 166.671 22.9241C166.853 23.032 167.111 23.0859 167.443 23.0859C167.692 23.0859 168.02 23.0569 168.426 22.9988Z" fill="#151618"/>
<path d="M168.426 22.9988L168.75 24.9785C168.119 25.1113 167.555 25.1777 167.057 25.1777C166.243 25.1777 165.612 25.0491 165.164 24.7917C164.716 24.5344 164.4 24.1982 164.218 23.7832C164.035 23.3599 163.944 22.4758 163.944 21.1311V13.5234H162.3V11.7803H163.944V8.50562L166.173 7.16089V11.7803H168.426V13.5234H166.173V21.2556C166.173 21.8948 166.21 22.3057 166.285 22.4883C166.368 22.6709 166.496 22.8162 166.671 22.9241C166.853 23.032 167.111 23.0859 167.443 23.0859C167.692 23.0859 168.02 23.0569 168.426 22.9988Z" fill="black" fill-opacity="0.2"/>
<path d="M168.426 22.9988L168.75 24.9785C168.119 25.1113 167.555 25.1777 167.057 25.1777C166.243 25.1777 165.612 25.0491 165.164 24.7917C164.716 24.5344 164.4 24.1982 164.218 23.7832C164.035 23.3599 163.944 22.4758 163.944 21.1311V13.5234H162.3V11.7803H163.944V8.50562L166.173 7.16089V11.7803H168.426V13.5234H166.173V21.2556C166.173 21.8948 166.21 22.3057 166.285 22.4883C166.368 22.6709 166.496 22.8162 166.671 22.9241C166.853 23.032 167.111 23.0859 167.443 23.0859C167.692 23.0859 168.02 23.0569 168.426 22.9988Z" fill="black" fill-opacity="0.2"/>
<path d="M168.426 22.9988L168.75 24.9785C168.119 25.1113 167.555 25.1777 167.057 25.1777C166.243 25.1777 165.612 25.0491 165.164 24.7917C164.716 24.5344 164.4 24.1982 164.218 23.7832C164.035 23.3599 163.944 22.4758 163.944 21.1311V13.5234H162.3V11.7803H163.944V8.50562L166.173 7.16089V11.7803H168.426V13.5234H166.173V21.2556C166.173 21.8948 166.21 22.3057 166.285 22.4883C166.368 22.6709 166.496 22.8162 166.671 22.9241C166.853 23.032 167.111 23.0859 167.443 23.0859C167.692 23.0859 168.02 23.0569 168.426 22.9988Z" fill="black" fill-opacity="0.2"/>
<path d="M168.426 22.9988L168.75 24.9785C168.119 25.1113 167.555 25.1777 167.057 25.1777C166.243 25.1777 165.612 25.0491 165.164 24.7917C164.716 24.5344 164.4 24.1982 164.218 23.7832C164.035 23.3599 163.944 22.4758 163.944 21.1311V13.5234H162.3V11.7803H163.944V8.50562L166.173 7.16089V11.7803H168.426V13.5234H166.173V21.2556C166.173 21.8948 166.21 22.3057 166.285 22.4883C166.368 22.6709 166.496 22.8162 166.671 22.9241C166.853 23.032 167.111 23.0859 167.443 23.0859C167.692 23.0859 168.02 23.0569 168.426 22.9988Z" fill="black" fill-opacity="0.2"/>
<path d="M168.426 22.9988L168.75 24.9785C168.119 25.1113 167.555 25.1777 167.057 25.1777C166.243 25.1777 165.612 25.0491 165.164 24.7917C164.716 24.5344 164.4 24.1982 164.218 23.7832C164.035 23.3599 163.944 22.4758 163.944 21.1311V13.5234H162.3V11.7803H163.944V8.50562L166.173 7.16089V11.7803H168.426V13.5234H166.173V21.2556C166.173 21.8948 166.21 22.3057 166.285 22.4883C166.368 22.6709 166.496 22.8162 166.671 22.9241C166.853 23.032 167.111 23.0859 167.443 23.0859C167.692 23.0859 168.02 23.0569 168.426 22.9988Z" fill="black" fill-opacity="0.2"/>
<path d="M54.9229 32.8682L55.9175 33.1194C55.709 33.9363 55.333 34.5601 54.7896 34.9907C54.2495 35.418 53.5881 35.6316 52.8054 35.6316C51.9954 35.6316 51.3357 35.4675 50.8264 35.1394C50.3206 34.8079 49.9343 34.3293 49.6677 33.7039C49.4045 33.0784 49.2729 32.4067 49.2729 31.689C49.2729 30.9062 49.4216 30.2244 49.719 29.6433C50.0198 29.0588 50.4453 28.6162 50.9956 28.3154C51.5493 28.0112 52.1577 27.8591 52.8208 27.8591C53.5728 27.8591 54.2051 28.0505 54.7178 28.4333C55.2305 28.8162 55.5876 29.3545 55.7893 30.0483L54.8101 30.2791C54.6357 29.7322 54.3828 29.334 54.0513 29.0845C53.7197 28.835 53.3027 28.7102 52.8003 28.7102C52.2227 28.7102 51.739 28.8486 51.3494 29.1255C50.9631 29.4023 50.6914 29.7749 50.5342 30.2432C50.377 30.708 50.2983 31.1882 50.2983 31.6838C50.2983 32.323 50.3906 32.8818 50.5752 33.3604C50.7632 33.8354 51.0537 34.1909 51.4468 34.4268C51.8398 34.6626 52.2654 34.7805 52.7234 34.7805C53.2805 34.7805 53.7522 34.6199 54.1384 34.2986C54.5247 33.9773 54.7861 33.5005 54.9229 32.8682Z" fill="#3A6FB6"/>
<path d="M57.3428 32.781C57.3428 31.7727 57.623 31.0259 58.1836 30.5405C58.6519 30.1372 59.2227 29.9355 59.896 29.9355C60.6445 29.9355 61.2563 30.1816 61.7314 30.6738C62.2065 31.1626 62.4441 31.8394 62.4441 32.7041C62.4441 33.4048 62.3381 33.9568 62.1262 34.3601C61.9177 34.76 61.6118 35.071 61.2085 35.2932C60.8086 35.5154 60.3711 35.6265 59.896 35.6265C59.1338 35.6265 58.5168 35.3821 58.0452 34.8933C57.5769 34.4045 57.3428 33.7004 57.3428 32.781ZM58.2913 32.781C58.2913 33.4783 58.4434 34.0012 58.7476 34.3499C59.0518 34.6951 59.4346 34.8677 59.896 34.8677C60.354 34.8677 60.7351 34.6934 61.0393 34.3447C61.3435 33.9961 61.4956 33.4646 61.4956 32.7502C61.4956 32.0769 61.3418 31.5676 61.0342 31.2224C60.73 30.8738 60.3506 30.6995 59.896 30.6995C59.4346 30.6995 59.0518 30.8721 58.7476 31.2173C58.4434 31.5625 58.2913 32.0837 58.2913 32.781Z" fill="#3A6FB6"/>
<path d="M64.1873 35.5034V30.0586H65.0127V30.8225C65.1836 30.5559 65.4109 30.3423 65.6946 30.1816C65.9783 30.0176 66.3013 29.9355 66.6636 29.9355C67.0669 29.9355 67.3967 30.0193 67.6531 30.1868C67.9128 30.3542 68.0957 30.5884 68.2017 30.8892C68.6323 30.2534 69.1929 29.9355 69.8833 29.9355C70.4233 29.9355 70.8386 30.0859 71.1292 30.3867C71.4197 30.6841 71.5649 31.1438 71.5649 31.7659V35.5034H70.6472V32.0735C70.6472 31.7043 70.6165 31.4395 70.5549 31.2788C70.4968 31.1147 70.3892 30.9832 70.2319 30.884C70.0747 30.7849 69.8901 30.7354 69.6782 30.7354C69.2954 30.7354 68.9775 30.8635 68.7246 31.1199C68.4717 31.3728 68.3452 31.7795 68.3452 32.3401V35.5034H67.4224V31.9658C67.4224 31.5557 67.3472 31.248 67.1968 31.043C67.0464 30.8379 66.8003 30.7354 66.4585 30.7354C66.1987 30.7354 65.9578 30.8037 65.7356 30.9404C65.5168 31.0771 65.3579 31.2771 65.2588 31.5403C65.1597 31.8035 65.1101 32.1829 65.1101 32.6785V35.5034H64.1873Z" fill="#3A6FB6"/>
<path d="M73.5901 37.5901V30.0586H74.4309V30.7661C74.6292 30.4893 74.853 30.2825 75.1025 30.1458C75.3521 30.0056 75.6545 29.9355 76.01 29.9355C76.4749 29.9355 76.885 30.0552 77.2405 30.2944C77.5959 30.5337 77.8643 30.8721 78.0454 31.3096C78.2266 31.7437 78.3171 32.2205 78.3171 32.74C78.3171 33.2971 78.2163 33.7996 78.0146 34.2473C77.8164 34.6917 77.5259 35.0334 77.1431 35.2727C76.7637 35.5085 76.3638 35.6265 75.9434 35.6265C75.6357 35.6265 75.3589 35.5615 75.1128 35.4316C74.8701 35.3018 74.6702 35.1377 74.5129 34.9395V37.5901H73.5901ZM74.4258 32.8118C74.4258 33.5125 74.5676 34.0303 74.8513 34.3652C75.135 34.7002 75.4785 34.8677 75.8818 34.8677C76.292 34.8677 76.6423 34.6951 76.9329 34.3499C77.2268 34.0012 77.3738 33.4629 77.3738 32.7349C77.3738 32.041 77.2302 31.5215 76.9431 31.1763C76.6594 30.8311 76.3193 30.6584 75.9229 30.6584C75.5298 30.6584 75.1812 30.843 74.877 31.2122C74.5762 31.5779 74.4258 32.1111 74.4258 32.8118Z" fill="#3A6FB6"/>
<path d="M80.0706 35.5034V27.9873H80.9934V35.5034H80.0706Z" fill="#3A6FB6"/>
<path d="M83.0903 29.0486V27.9873H84.0132V29.0486H83.0903ZM83.0903 35.5034V30.0586H84.0132V35.5034H83.0903Z" fill="#3A6FB6"/>
<path d="M89.6323 34.8318C89.2905 35.1223 88.9607 35.3274 88.6428 35.447C88.3284 35.5667 87.99 35.6265 87.6277 35.6265C87.0295 35.6265 86.5698 35.4812 86.2485 35.1907C85.9272 34.8967 85.7666 34.5225 85.7666 34.0679C85.7666 33.8013 85.8264 33.5586 85.946 33.3398C86.0691 33.1177 86.228 32.9399 86.4229 32.8066C86.6211 32.6733 86.8433 32.5725 87.0894 32.5042C87.2705 32.4563 87.5439 32.4102 87.9097 32.3657C88.6548 32.2769 89.2034 32.1709 89.5554 32.0479C89.5588 31.9214 89.5605 31.8411 89.5605 31.8069C89.5605 31.4309 89.4734 31.166 89.2991 31.0122C89.0632 30.8037 88.7129 30.6995 88.248 30.6995C87.814 30.6995 87.4927 30.7764 87.2842 30.9302C87.0791 31.0806 86.927 31.3489 86.8279 31.7351L85.9255 31.6121C86.0076 31.2258 86.1426 30.9148 86.3306 30.679C86.5186 30.4397 86.7903 30.2568 87.1458 30.1304C87.5012 30.0005 87.9131 29.9355 88.3813 29.9355C88.8462 29.9355 89.2239 29.9902 89.5144 30.0996C89.8049 30.209 90.0186 30.3474 90.1553 30.5149C90.292 30.679 90.3877 30.8875 90.4424 31.1404C90.4731 31.2976 90.4885 31.5813 90.4885 31.9915V33.2219C90.4885 34.0798 90.5073 34.6233 90.5449 34.8523C90.5859 35.0779 90.6646 35.2949 90.7808 35.5034H89.8169C89.7212 35.312 89.6597 35.0881 89.6323 34.8318ZM89.5554 32.7708C89.2205 32.9075 88.718 33.0237 88.0481 33.1194C87.6687 33.1741 87.4004 33.2356 87.2432 33.304C87.0859 33.3723 86.9646 33.4731 86.8792 33.6064C86.7937 33.7363 86.751 33.8816 86.751 34.0422C86.751 34.2883 86.8433 34.4934 87.0278 34.6575C87.2158 34.8215 87.4893 34.9036 87.8481 34.9036C88.2036 34.9036 88.5198 34.8267 88.7966 34.6729C89.0735 34.5156 89.2769 34.302 89.4067 34.032C89.5059 33.8235 89.5554 33.5159 89.5554 33.1091V32.7708Z" fill="#3A6FB6"/>
<path d="M92.5803 35.5034V30.0586H93.4109V30.8328C93.8108 30.2346 94.3884 29.9355 95.1438 29.9355C95.4719 29.9355 95.7727 29.9954 96.0461 30.115C96.323 30.2312 96.5298 30.385 96.6665 30.5764C96.8032 30.7678 96.8989 30.9951 96.9536 31.2583C96.9878 31.4292 97.0049 31.7283 97.0049 32.1555V35.5034H96.082V32.1914C96.082 31.8154 96.0461 31.5352 95.9744 31.3506C95.9026 31.1626 95.7744 31.0139 95.5898 30.9045C95.4087 30.7917 95.1951 30.7354 94.949 30.7354C94.5559 30.7354 94.2158 30.8601 93.9287 31.1096C93.645 31.3591 93.5032 31.8325 93.5032 32.5298V35.5034H92.5803Z" fill="#3A6FB6"/>
<path d="M102.634 33.509L103.542 33.627C103.443 34.2524 103.188 34.7429 102.778 35.0984C102.371 35.4504 101.87 35.6265 101.276 35.6265C100.531 35.6265 99.9307 35.3838 99.4761 34.8984C99.0249 34.4097 98.7993 33.7107 98.7993 32.8015C98.7993 32.2136 98.8967 31.6992 99.0916 31.2583C99.2864 30.8174 99.582 30.4875 99.9785 30.2688C100.378 30.0466 100.812 29.9355 101.281 29.9355C101.872 29.9355 102.356 30.0859 102.732 30.3867C103.108 30.6841 103.349 31.1079 103.455 31.6582L102.557 31.7966C102.472 31.4309 102.32 31.1558 102.101 30.9712C101.886 30.7866 101.624 30.6943 101.317 30.6943C100.852 30.6943 100.474 30.8618 100.184 31.1968C99.8931 31.5283 99.7478 32.0547 99.7478 32.7759C99.7478 33.5073 99.8879 34.0388 100.168 34.3704C100.448 34.7019 100.814 34.8677 101.265 34.8677C101.628 34.8677 101.93 34.7566 102.173 34.5344C102.416 34.3123 102.569 33.9705 102.634 33.509Z" fill="#3A6FB6"/>
<path d="M108.715 33.75L109.668 33.8679C109.518 34.425 109.24 34.8574 108.833 35.165C108.426 35.4727 107.906 35.6265 107.274 35.6265C106.478 35.6265 105.845 35.3821 105.377 34.8933C104.912 34.4011 104.68 33.7124 104.68 32.8271C104.68 31.9111 104.916 31.2002 105.387 30.6943C105.859 30.1885 106.471 29.9355 107.223 29.9355C107.951 29.9355 108.546 30.1833 109.007 30.679C109.469 31.1746 109.699 31.8718 109.699 32.7708C109.699 32.8254 109.698 32.9075 109.694 33.0168H105.634C105.668 33.615 105.837 34.073 106.141 34.3909C106.445 34.7087 106.825 34.8677 107.279 34.8677C107.618 34.8677 107.906 34.7788 108.146 34.6011C108.385 34.4233 108.575 34.1396 108.715 33.75ZM105.685 32.2581H108.725C108.684 31.8 108.568 31.4565 108.376 31.2275C108.083 30.8721 107.701 30.6943 107.233 30.6943C106.809 30.6943 106.452 30.8362 106.162 31.1199C105.875 31.4036 105.716 31.783 105.685 32.2581Z" fill="#3A6FB6"/>
</svg>
