<svg width="36" height="36" viewBox="0 0 36 36" fill="none" xmlns="http://www.w3.org/2000/svg">
<g id="UI/account_circle_FILL0_wght500_GRAD0_opsz48 1">
<path id="Vector" d="M8.36094 26.3386C9.92994 25.2506 11.4865 24.4158 13.0305 23.8343C14.5745 23.2528 16.2323 22.962 18.004 22.962C19.7756 22.962 21.4411 23.2551 23.0005 23.8412C24.5599 24.4273 26.1186 25.2598 27.6767 26.3386C28.7647 24.9827 29.5355 23.6307 29.989 22.2829C30.4426 20.9351 30.6694 19.5074 30.6694 17.9998C30.6694 14.4032 29.4571 11.3925 27.0326 8.96768C24.6081 6.54288 21.5978 5.33048 18.0016 5.33048C14.4055 5.33048 11.3946 6.54288 8.96908 8.96768C6.54353 11.3925 5.33075 14.4032 5.33075 17.9998C5.33075 19.5069 5.56235 20.9336 6.02555 22.28C6.48878 23.6264 7.26724 24.9793 8.36094 26.3386ZM17.9931 19.1876C16.5289 19.1876 15.2987 18.687 14.3027 17.6859C13.3067 16.6848 12.8087 15.4541 12.8087 13.9938C12.8087 12.5335 13.3091 11.3036 14.3097 10.3041C15.3104 9.30466 16.5428 8.80493 18.007 8.80493C19.4713 8.80493 20.7014 9.30699 21.6974 10.3111C22.6934 11.3152 23.1914 12.5474 23.1914 14.0077C23.1914 15.468 22.691 16.6964 21.6904 17.6928C20.6897 18.6893 19.4573 19.1876 17.9931 19.1876ZM18.0124 33.224C15.9243 33.224 13.9546 32.8249 12.1034 32.0266C10.2521 31.2285 8.63389 30.1368 7.24862 28.7517C5.86337 27.3665 4.77159 25.7511 3.97329 23.9054C3.17502 22.0597 2.77588 20.0876 2.77588 17.9891C2.77588 15.8973 3.1756 13.9302 3.97505 12.0878C4.7745 10.2454 5.86594 8.63251 7.24937 7.24909C8.63279 5.86566 10.2475 4.77273 12.0935 3.97028C13.9395 3.16783 15.9119 2.7666 18.0108 2.7666C20.1026 2.7666 22.0696 3.16783 23.912 3.97028C25.7544 4.77273 27.3673 5.86566 28.7507 7.24909C30.1342 8.63251 31.2271 10.2461 32.0296 12.0898C32.832 13.9335 33.2332 15.8994 33.2332 17.9875C33.2332 20.0756 32.832 22.0456 32.0296 23.8975C31.2271 25.7494 30.1342 27.367 28.7507 28.7505C27.3673 30.1339 25.7538 31.2253 23.9101 32.0248C22.0664 32.8242 20.1005 33.224 18.0124 33.224ZM18.0001 30.6691C19.3571 30.6691 20.677 30.475 21.9596 30.087C23.2422 29.6989 24.521 29.0139 25.796 28.0318C24.515 27.1378 23.2299 26.4608 21.9408 26.0007C20.6517 25.5407 19.3381 25.3107 18.0001 25.3107C16.662 25.3107 15.3499 25.5407 14.0638 26.0007C12.7776 26.4608 11.4941 27.1378 10.2131 28.0318C11.4881 29.0139 12.7654 29.6989 14.045 30.087C15.3246 30.475 16.643 30.6691 18.0001 30.6691ZM18.0001 16.8299C18.8313 16.8299 19.5114 16.5672 20.0404 16.0416C20.5693 15.5161 20.8337 14.8358 20.8337 14.0007C20.8337 13.1657 20.5693 12.4839 20.0404 11.9553C19.5114 11.4268 18.8313 11.1626 18.0001 11.1626C17.1688 11.1626 16.4887 11.4268 15.9598 11.9553C15.4308 12.4839 15.1664 13.1657 15.1664 14.0007C15.1664 14.8358 15.4308 15.5161 15.9598 16.0416C16.4887 16.5672 17.1688 16.8299 18.0001 16.8299Z" fill="#5C6670" fill-opacity="0.8"/>
</g>
</svg>
