<svg width="11" height="10" viewBox="0 0 11 10" fill="none" xmlns="http://www.w3.org/2000/svg">
<path fill-rule="evenodd" clip-rule="evenodd" d="M5.07693 7.80246C5.2518 7.81846 5.43204 7.82687 5.61784 7.82687C8.55358 7.82687 11 4.09 11 4.09C11 4.09 10.5996 3.47833 9.9283 2.74995L5.07693 7.80246Z" fill="#2D1B81"/>
<path fill-rule="evenodd" clip-rule="evenodd" d="M5.07693 7.80246C5.2518 7.81846 5.43204 7.82687 5.61784 7.82687C8.55358 7.82687 11 4.09 11 4.09C11 4.09 10.5996 3.47833 9.9283 2.74995L5.07693 7.80246Z" fill="#2D1B81" fill-opacity="0.2"/>
<path fill-rule="evenodd" clip-rule="evenodd" d="M5.07693 7.80246C5.2518 7.81846 5.43204 7.82687 5.61784 7.82687C8.55358 7.82687 11 4.09 11 4.09C11 4.09 10.5996 3.47833 9.9283 2.74995L5.07693 7.80246Z" fill="#2D1B81" fill-opacity="0.2"/>
<path fill-rule="evenodd" clip-rule="evenodd" d="M5.07693 7.80246C5.2518 7.81846 5.43204 7.82687 5.61784 7.82687C8.55358 7.82687 11 4.09 11 4.09C11 4.09 10.5996 3.47833 9.9283 2.74995L5.07693 7.80246Z" fill="#2D1B81" fill-opacity="0.2"/>
<path fill-rule="evenodd" clip-rule="evenodd" d="M5.07693 7.80246C5.2518 7.81846 5.43204 7.82687 5.61784 7.82687C8.55358 7.82687 11 4.09 11 4.09C11 4.09 10.5996 3.47833 9.9283 2.74995L5.07693 7.80246Z" fill="#2D1B81" fill-opacity="0.2"/>
<path fill-rule="evenodd" clip-rule="evenodd" d="M5.07693 7.80246C5.2518 7.81846 5.43204 7.82687 5.61784 7.82687C8.55358 7.82687 11 4.09 11 4.09C11 4.09 10.5996 3.47833 9.9283 2.74995L5.07693 7.80246Z" fill="#2D1B81" fill-opacity="0.2"/>
<path fill-rule="evenodd" clip-rule="evenodd" d="M6.76923 0.565083C6.30001 0.345072 5.80513 0.211487 5.29531 0.211487C1.44418 0.211487 0 4.49879 0 4.49879C0 4.49879 0.441311 5.80892 1.48658 6.98072L3.53021 4.49879C3.53021 3.31485 4.32044 2.35514 5.29531 2.35514L6.76923 0.565083Z" fill="#2D1B81"/>
<path fill-rule="evenodd" clip-rule="evenodd" d="M6.76923 0.565083C6.30001 0.345072 5.80513 0.211487 5.29531 0.211487C1.44418 0.211487 0 4.49879 0 4.49879C0 4.49879 0.441311 5.80892 1.48658 6.98072L3.53021 4.49879C3.53021 3.31485 4.32044 2.35514 5.29531 2.35514L6.76923 0.565083Z" fill="#2D1B81" fill-opacity="0.2"/>
<path fill-rule="evenodd" clip-rule="evenodd" d="M6.76923 0.565083C6.30001 0.345072 5.80513 0.211487 5.29531 0.211487C1.44418 0.211487 0 4.49879 0 4.49879C0 4.49879 0.441311 5.80892 1.48658 6.98072L3.53021 4.49879C3.53021 3.31485 4.32044 2.35514 5.29531 2.35514L6.76923 0.565083Z" fill="#2D1B81" fill-opacity="0.2"/>
<path fill-rule="evenodd" clip-rule="evenodd" d="M6.76923 0.565083C6.30001 0.345072 5.80513 0.211487 5.29531 0.211487C1.44418 0.211487 0 4.49879 0 4.49879C0 4.49879 0.441311 5.80892 1.48658 6.98072L3.53021 4.49879C3.53021 3.31485 4.32044 2.35514 5.29531 2.35514L6.76923 0.565083Z" fill="#2D1B81" fill-opacity="0.2"/>
<path fill-rule="evenodd" clip-rule="evenodd" d="M6.76923 0.565083C6.30001 0.345072 5.80513 0.211487 5.29531 0.211487C1.44418 0.211487 0 4.49879 0 4.49879C0 4.49879 0.441311 5.80892 1.48658 6.98072L3.53021 4.49879C3.53021 3.31485 4.32044 2.35514 5.29531 2.35514L6.76923 0.565083Z" fill="#2D1B81" fill-opacity="0.2"/>
<path fill-rule="evenodd" clip-rule="evenodd" d="M6.76923 0.565083C6.30001 0.345072 5.80513 0.211487 5.29531 0.211487C1.44418 0.211487 0 4.49879 0 4.49879C0 4.49879 0.441311 5.80892 1.48658 6.98072L3.53021 4.49879C3.53021 3.31485 4.32044 2.35514 5.29531 2.35514L6.76923 0.565083Z" fill="#2D1B81" fill-opacity="0.2"/>
<g opacity="0.3">
<path d="M9.64738 1.5849e-05L1.12131 8.52609L2.01879 9.42357L10.5449 0.897497L9.64738 1.5849e-05Z" fill="#2D1B81"/>
<path d="M9.64738 1.5849e-05L1.12131 8.52609L2.01879 9.42357L10.5449 0.897497L9.64738 1.5849e-05Z" fill="#2D1B81" fill-opacity="0.2"/>
<path d="M9.64738 1.5849e-05L1.12131 8.52609L2.01879 9.42357L10.5449 0.897497L9.64738 1.5849e-05Z" fill="#2D1B81" fill-opacity="0.2"/>
<path d="M9.64738 1.5849e-05L1.12131 8.52609L2.01879 9.42357L10.5449 0.897497L9.64738 1.5849e-05Z" fill="#2D1B81" fill-opacity="0.2"/>
<path d="M9.64738 1.5849e-05L1.12131 8.52609L2.01879 9.42357L10.5449 0.897497L9.64738 1.5849e-05Z" fill="#2D1B81" fill-opacity="0.2"/>
<path d="M9.64738 1.5849e-05L1.12131 8.52609L2.01879 9.42357L10.5449 0.897497L9.64738 1.5849e-05Z" fill="#2D1B81" fill-opacity="0.2"/>
</g>
</svg>
