<svg width="20" height="20" viewBox="0 0 20 20" fill="none" xmlns="http://www.w3.org/2000/svg">
<path d="M8.3335 7.5026C8.3335 7.01346 8.51594 6.70063 8.75546 6.4974C9.01309 6.2788 9.3863 6.14844 9.79183 6.14844C10.1974 6.14844 10.5706 6.2788 10.8282 6.4974C11.0677 6.70063 11.2502 7.01346 11.2502 7.5026C11.2502 7.86691 11.1643 8.06916 11.0646 8.21874C10.9483 8.39325 10.7952 8.53086 10.5363 8.76358L10.4844 8.81028C10.218 9.04998 9.86764 9.37402 9.60047 9.84601C9.32514 10.3324 9.16683 10.9202 9.16683 11.6693C9.16683 12.1295 9.53993 12.5026 10.0002 12.5026C10.4604 12.5026 10.8335 12.1295 10.8335 11.6693C10.8335 11.1684 10.9356 10.8707 11.0509 10.667C11.1744 10.4489 11.3448 10.2781 11.5993 10.0491C11.6222 10.0285 11.6464 10.007 11.6715 9.98451C11.8993 9.78152 12.2112 9.50348 12.4514 9.14324C12.7423 8.70688 12.9168 8.17997 12.9168 7.5026C12.9168 6.53341 12.5264 5.75249 11.9065 5.22655C11.3048 4.71599 10.5321 4.48177 9.79183 4.48177C9.05153 4.48177 8.2789 4.71599 7.67716 5.22655C7.0573 5.75249 6.66683 6.53341 6.66683 7.5026C6.66683 7.96284 7.03993 8.33594 7.50016 8.33594C7.9604 8.33594 8.3335 7.96284 8.3335 7.5026Z" fill="#151618"/>
<path d="M8.3335 7.5026C8.3335 7.01346 8.51594 6.70063 8.75546 6.4974C9.01309 6.2788 9.3863 6.14844 9.79183 6.14844C10.1974 6.14844 10.5706 6.2788 10.8282 6.4974C11.0677 6.70063 11.2502 7.01346 11.2502 7.5026C11.2502 7.86691 11.1643 8.06916 11.0646 8.21874C10.9483 8.39325 10.7952 8.53086 10.5363 8.76358L10.4844 8.81028C10.218 9.04998 9.86764 9.37402 9.60047 9.84601C9.32514 10.3324 9.16683 10.9202 9.16683 11.6693C9.16683 12.1295 9.53993 12.5026 10.0002 12.5026C10.4604 12.5026 10.8335 12.1295 10.8335 11.6693C10.8335 11.1684 10.9356 10.8707 11.0509 10.667C11.1744 10.4489 11.3448 10.2781 11.5993 10.0491C11.6222 10.0285 11.6464 10.007 11.6715 9.98451C11.8993 9.78152 12.2112 9.50348 12.4514 9.14324C12.7423 8.70688 12.9168 8.17997 12.9168 7.5026C12.9168 6.53341 12.5264 5.75249 11.9065 5.22655C11.3048 4.71599 10.5321 4.48177 9.79183 4.48177C9.05153 4.48177 8.2789 4.71599 7.67716 5.22655C7.0573 5.75249 6.66683 6.53341 6.66683 7.5026C6.66683 7.96284 7.03993 8.33594 7.50016 8.33594C7.9604 8.33594 8.3335 7.96284 8.3335 7.5026Z" fill="black" fill-opacity="0.2"/>
<path d="M8.3335 7.5026C8.3335 7.01346 8.51594 6.70063 8.75546 6.4974C9.01309 6.2788 9.3863 6.14844 9.79183 6.14844C10.1974 6.14844 10.5706 6.2788 10.8282 6.4974C11.0677 6.70063 11.2502 7.01346 11.2502 7.5026C11.2502 7.86691 11.1643 8.06916 11.0646 8.21874C10.9483 8.39325 10.7952 8.53086 10.5363 8.76358L10.4844 8.81028C10.218 9.04998 9.86764 9.37402 9.60047 9.84601C9.32514 10.3324 9.16683 10.9202 9.16683 11.6693C9.16683 12.1295 9.53993 12.5026 10.0002 12.5026C10.4604 12.5026 10.8335 12.1295 10.8335 11.6693C10.8335 11.1684 10.9356 10.8707 11.0509 10.667C11.1744 10.4489 11.3448 10.2781 11.5993 10.0491C11.6222 10.0285 11.6464 10.007 11.6715 9.98451C11.8993 9.78152 12.2112 9.50348 12.4514 9.14324C12.7423 8.70688 12.9168 8.17997 12.9168 7.5026C12.9168 6.53341 12.5264 5.75249 11.9065 5.22655C11.3048 4.71599 10.5321 4.48177 9.79183 4.48177C9.05153 4.48177 8.2789 4.71599 7.67716 5.22655C7.0573 5.75249 6.66683 6.53341 6.66683 7.5026C6.66683 7.96284 7.03993 8.33594 7.50016 8.33594C7.9604 8.33594 8.3335 7.96284 8.3335 7.5026Z" fill="black" fill-opacity="0.2"/>
<path d="M8.3335 7.5026C8.3335 7.01346 8.51594 6.70063 8.75546 6.4974C9.01309 6.2788 9.3863 6.14844 9.79183 6.14844C10.1974 6.14844 10.5706 6.2788 10.8282 6.4974C11.0677 6.70063 11.2502 7.01346 11.2502 7.5026C11.2502 7.86691 11.1643 8.06916 11.0646 8.21874C10.9483 8.39325 10.7952 8.53086 10.5363 8.76358L10.4844 8.81028C10.218 9.04998 9.86764 9.37402 9.60047 9.84601C9.32514 10.3324 9.16683 10.9202 9.16683 11.6693C9.16683 12.1295 9.53993 12.5026 10.0002 12.5026C10.4604 12.5026 10.8335 12.1295 10.8335 11.6693C10.8335 11.1684 10.9356 10.8707 11.0509 10.667C11.1744 10.4489 11.3448 10.2781 11.5993 10.0491C11.6222 10.0285 11.6464 10.007 11.6715 9.98451C11.8993 9.78152 12.2112 9.50348 12.4514 9.14324C12.7423 8.70688 12.9168 8.17997 12.9168 7.5026C12.9168 6.53341 12.5264 5.75249 11.9065 5.22655C11.3048 4.71599 10.5321 4.48177 9.79183 4.48177C9.05153 4.48177 8.2789 4.71599 7.67716 5.22655C7.0573 5.75249 6.66683 6.53341 6.66683 7.5026C6.66683 7.96284 7.03993 8.33594 7.50016 8.33594C7.9604 8.33594 8.3335 7.96284 8.3335 7.5026Z" fill="black" fill-opacity="0.2"/>
<path d="M8.3335 7.5026C8.3335 7.01346 8.51594 6.70063 8.75546 6.4974C9.01309 6.2788 9.3863 6.14844 9.79183 6.14844C10.1974 6.14844 10.5706 6.2788 10.8282 6.4974C11.0677 6.70063 11.2502 7.01346 11.2502 7.5026C11.2502 7.86691 11.1643 8.06916 11.0646 8.21874C10.9483 8.39325 10.7952 8.53086 10.5363 8.76358L10.4844 8.81028C10.218 9.04998 9.86764 9.37402 9.60047 9.84601C9.32514 10.3324 9.16683 10.9202 9.16683 11.6693C9.16683 12.1295 9.53993 12.5026 10.0002 12.5026C10.4604 12.5026 10.8335 12.1295 10.8335 11.6693C10.8335 11.1684 10.9356 10.8707 11.0509 10.667C11.1744 10.4489 11.3448 10.2781 11.5993 10.0491C11.6222 10.0285 11.6464 10.007 11.6715 9.98451C11.8993 9.78152 12.2112 9.50348 12.4514 9.14324C12.7423 8.70688 12.9168 8.17997 12.9168 7.5026C12.9168 6.53341 12.5264 5.75249 11.9065 5.22655C11.3048 4.71599 10.5321 4.48177 9.79183 4.48177C9.05153 4.48177 8.2789 4.71599 7.67716 5.22655C7.0573 5.75249 6.66683 6.53341 6.66683 7.5026C6.66683 7.96284 7.03993 8.33594 7.50016 8.33594C7.9604 8.33594 8.3335 7.96284 8.3335 7.5026Z" fill="black" fill-opacity="0.2"/>
<path d="M8.3335 7.5026C8.3335 7.01346 8.51594 6.70063 8.75546 6.4974C9.01309 6.2788 9.3863 6.14844 9.79183 6.14844C10.1974 6.14844 10.5706 6.2788 10.8282 6.4974C11.0677 6.70063 11.2502 7.01346 11.2502 7.5026C11.2502 7.86691 11.1643 8.06916 11.0646 8.21874C10.9483 8.39325 10.7952 8.53086 10.5363 8.76358L10.4844 8.81028C10.218 9.04998 9.86764 9.37402 9.60047 9.84601C9.32514 10.3324 9.16683 10.9202 9.16683 11.6693C9.16683 12.1295 9.53993 12.5026 10.0002 12.5026C10.4604 12.5026 10.8335 12.1295 10.8335 11.6693C10.8335 11.1684 10.9356 10.8707 11.0509 10.667C11.1744 10.4489 11.3448 10.2781 11.5993 10.0491C11.6222 10.0285 11.6464 10.007 11.6715 9.98451C11.8993 9.78152 12.2112 9.50348 12.4514 9.14324C12.7423 8.70688 12.9168 8.17997 12.9168 7.5026C12.9168 6.53341 12.5264 5.75249 11.9065 5.22655C11.3048 4.71599 10.5321 4.48177 9.79183 4.48177C9.05153 4.48177 8.2789 4.71599 7.67716 5.22655C7.0573 5.75249 6.66683 6.53341 6.66683 7.5026C6.66683 7.96284 7.03993 8.33594 7.50016 8.33594C7.9604 8.33594 8.3335 7.96284 8.3335 7.5026Z" fill="black" fill-opacity="0.2"/>
<path d="M10.6251 15.5623C10.9347 15.2218 10.9096 14.6948 10.5691 14.3852C10.2285 14.0756 9.70149 14.1007 9.39189 14.4412L9.38356 14.4504C9.07396 14.7909 9.09905 15.3179 9.43959 15.6275C9.78013 15.9371 10.3072 15.9121 10.6168 15.5715L10.6251 15.5623Z" fill="#151618"/>
<path d="M10.6251 15.5623C10.9347 15.2218 10.9096 14.6948 10.5691 14.3852C10.2285 14.0756 9.70149 14.1007 9.39189 14.4412L9.38356 14.4504C9.07396 14.7909 9.09905 15.3179 9.43959 15.6275C9.78013 15.9371 10.3072 15.9121 10.6168 15.5715L10.6251 15.5623Z" fill="black" fill-opacity="0.2"/>
<path d="M10.6251 15.5623C10.9347 15.2218 10.9096 14.6948 10.5691 14.3852C10.2285 14.0756 9.70149 14.1007 9.39189 14.4412L9.38356 14.4504C9.07396 14.7909 9.09905 15.3179 9.43959 15.6275C9.78013 15.9371 10.3072 15.9121 10.6168 15.5715L10.6251 15.5623Z" fill="black" fill-opacity="0.2"/>
<path d="M10.6251 15.5623C10.9347 15.2218 10.9096 14.6948 10.5691 14.3852C10.2285 14.0756 9.70149 14.1007 9.39189 14.4412L9.38356 14.4504C9.07396 14.7909 9.09905 15.3179 9.43959 15.6275C9.78013 15.9371 10.3072 15.9121 10.6168 15.5715L10.6251 15.5623Z" fill="black" fill-opacity="0.2"/>
<path d="M10.6251 15.5623C10.9347 15.2218 10.9096 14.6948 10.5691 14.3852C10.2285 14.0756 9.70149 14.1007 9.39189 14.4412L9.38356 14.4504C9.07396 14.7909 9.09905 15.3179 9.43959 15.6275C9.78013 15.9371 10.3072 15.9121 10.6168 15.5715L10.6251 15.5623Z" fill="black" fill-opacity="0.2"/>
<path d="M10.6251 15.5623C10.9347 15.2218 10.9096 14.6948 10.5691 14.3852C10.2285 14.0756 9.70149 14.1007 9.39189 14.4412L9.38356 14.4504C9.07396 14.7909 9.09905 15.3179 9.43959 15.6275C9.78013 15.9371 10.3072 15.9121 10.6168 15.5715L10.6251 15.5623Z" fill="black" fill-opacity="0.2"/>
<path fill-rule="evenodd" clip-rule="evenodd" d="M10.0002 0.835938C4.93743 0.835938 0.833496 4.93987 0.833496 10.0026C0.833496 15.0653 4.93743 19.1693 10.0002 19.1693C15.0629 19.1693 19.1668 15.0653 19.1668 10.0026C19.1668 4.93987 15.0629 0.835938 10.0002 0.835938ZM2.50016 10.0026C2.50016 5.86034 5.8579 2.5026 10.0002 2.5026C14.1424 2.5026 17.5002 5.86034 17.5002 10.0026C17.5002 14.1449 14.1424 17.5026 10.0002 17.5026C5.8579 17.5026 2.50016 14.1449 2.50016 10.0026Z" fill="#151618"/>
<path fill-rule="evenodd" clip-rule="evenodd" d="M10.0002 0.835938C4.93743 0.835938 0.833496 4.93987 0.833496 10.0026C0.833496 15.0653 4.93743 19.1693 10.0002 19.1693C15.0629 19.1693 19.1668 15.0653 19.1668 10.0026C19.1668 4.93987 15.0629 0.835938 10.0002 0.835938ZM2.50016 10.0026C2.50016 5.86034 5.8579 2.5026 10.0002 2.5026C14.1424 2.5026 17.5002 5.86034 17.5002 10.0026C17.5002 14.1449 14.1424 17.5026 10.0002 17.5026C5.8579 17.5026 2.50016 14.1449 2.50016 10.0026Z" fill="black" fill-opacity="0.2"/>
<path fill-rule="evenodd" clip-rule="evenodd" d="M10.0002 0.835938C4.93743 0.835938 0.833496 4.93987 0.833496 10.0026C0.833496 15.0653 4.93743 19.1693 10.0002 19.1693C15.0629 19.1693 19.1668 15.0653 19.1668 10.0026C19.1668 4.93987 15.0629 0.835938 10.0002 0.835938ZM2.50016 10.0026C2.50016 5.86034 5.8579 2.5026 10.0002 2.5026C14.1424 2.5026 17.5002 5.86034 17.5002 10.0026C17.5002 14.1449 14.1424 17.5026 10.0002 17.5026C5.8579 17.5026 2.50016 14.1449 2.50016 10.0026Z" fill="black" fill-opacity="0.2"/>
<path fill-rule="evenodd" clip-rule="evenodd" d="M10.0002 0.835938C4.93743 0.835938 0.833496 4.93987 0.833496 10.0026C0.833496 15.0653 4.93743 19.1693 10.0002 19.1693C15.0629 19.1693 19.1668 15.0653 19.1668 10.0026C19.1668 4.93987 15.0629 0.835938 10.0002 0.835938ZM2.50016 10.0026C2.50016 5.86034 5.8579 2.5026 10.0002 2.5026C14.1424 2.5026 17.5002 5.86034 17.5002 10.0026C17.5002 14.1449 14.1424 17.5026 10.0002 17.5026C5.8579 17.5026 2.50016 14.1449 2.50016 10.0026Z" fill="black" fill-opacity="0.2"/>
<path fill-rule="evenodd" clip-rule="evenodd" d="M10.0002 0.835938C4.93743 0.835938 0.833496 4.93987 0.833496 10.0026C0.833496 15.0653 4.93743 19.1693 10.0002 19.1693C15.0629 19.1693 19.1668 15.0653 19.1668 10.0026C19.1668 4.93987 15.0629 0.835938 10.0002 0.835938ZM2.50016 10.0026C2.50016 5.86034 5.8579 2.5026 10.0002 2.5026C14.1424 2.5026 17.5002 5.86034 17.5002 10.0026C17.5002 14.1449 14.1424 17.5026 10.0002 17.5026C5.8579 17.5026 2.50016 14.1449 2.50016 10.0026Z" fill="black" fill-opacity="0.2"/>
<path fill-rule="evenodd" clip-rule="evenodd" d="M10.0002 0.835938C4.93743 0.835938 0.833496 4.93987 0.833496 10.0026C0.833496 15.0653 4.93743 19.1693 10.0002 19.1693C15.0629 19.1693 19.1668 15.0653 19.1668 10.0026C19.1668 4.93987 15.0629 0.835938 10.0002 0.835938ZM2.50016 10.0026C2.50016 5.86034 5.8579 2.5026 10.0002 2.5026C14.1424 2.5026 17.5002 5.86034 17.5002 10.0026C17.5002 14.1449 14.1424 17.5026 10.0002 17.5026C5.8579 17.5026 2.50016 14.1449 2.50016 10.0026Z" fill="black" fill-opacity="0.2"/>
</svg>
