<svg width="200" height="140" viewBox="0 0 225 60" fill="none" xmlns="http://www.w3.org/2000/svg">
<path d="M13.5 37.0537C13.2239 37.0537 13 36.8299 13 36.5537V12.5C13 12.2239 13.2239 12 13.5 12H15.8154C16.0916 12 16.3154 12.2239 16.3154 12.5V33.5972C16.3154 33.8733 16.5393 34.0972 16.8154 34.0972H28.6543V37.0537H13.5Z" fill="#151618"/>
<path d="M13.5 37.0537C13.2239 37.0537 13 36.8299 13 36.5537V12.5C13 12.2239 13.2239 12 13.5 12H15.8154C16.0916 12 16.3154 12.2239 16.3154 12.5V33.5972C16.3154 33.8733 16.5393 34.0972 16.8154 34.0972H28.6543V37.0537H13.5Z" fill="black" fill-opacity="0.2"/>
<path d="M13.5 37.0537C13.2239 37.0537 13 36.8299 13 36.5537V12.5C13 12.2239 13.2239 12 13.5 12H15.8154C16.0916 12 16.3154 12.2239 16.3154 12.5V33.5972C16.3154 33.8733 16.5393 34.0972 16.8154 34.0972H28.6543V37.0537H13.5Z" fill="black" fill-opacity="0.2"/>
<path d="M13.5 37.0537C13.2239 37.0537 13 36.8299 13 36.5537V12.5C13 12.2239 13.2239 12 13.5 12H15.8154C16.0916 12 16.3154 12.2239 16.3154 12.5V33.5972C16.3154 33.8733 16.5393 34.0972 16.8154 34.0972H28.6543V37.0537H13.5Z" fill="black" fill-opacity="0.2"/>
<path d="M13.5 37.0537C13.2239 37.0537 13 36.8299 13 36.5537V12.5C13 12.2239 13.2239 12 13.5 12H15.8154C16.0916 12 16.3154 12.2239 16.3154 12.5V33.5972C16.3154 33.8733 16.5393 34.0972 16.8154 34.0972H28.6543V37.0537H13.5Z" fill="black" fill-opacity="0.2"/>
<path d="M13.5 37.0537C13.2239 37.0537 13 36.8299 13 36.5537V12.5C13 12.2239 13.2239 12 13.5 12H15.8154C16.0916 12 16.3154 12.2239 16.3154 12.5V33.5972C16.3154 33.8733 16.5393 34.0972 16.8154 34.0972H28.6543V37.0537H13.5Z" fill="black" fill-opacity="0.2"/>
<path d="M28.6367 51.0537C28.3606 51.0537 28.1367 50.8299 28.1367 50.5537V22.5C28.1367 22.2239 28.3606 22 28.6367 22H37.5874C39.2508 22 40.5212 22.0798 41.3984 22.2393C42.6289 22.4443 43.66 22.8374 44.4917 23.4185C45.3234 23.9881 45.9899 24.7913 46.4912 25.8281C47.0039 26.8649 47.2603 28.0042 47.2603 29.2461C47.2603 31.3766 46.5824 33.1825 45.2266 34.6636C43.8708 36.1333 41.4212 36.8682 37.8779 36.8682H31.9521C31.676 36.8682 31.4521 37.092 31.4521 37.3682V50.5537C31.4521 50.8299 31.2283 51.0537 30.9521 51.0537H28.6367ZM31.4521 33.4116C31.4521 33.6878 31.676 33.9116 31.9521 33.9116H37.9292C40.0711 33.9116 41.5921 33.5129 42.4922 32.7153C43.3923 31.9178 43.8423 30.7956 43.8423 29.3486C43.8423 28.3005 43.5745 27.4061 43.0391 26.6655C42.515 25.9136 41.82 25.418 40.9541 25.1787C40.3958 25.0306 39.3647 24.9565 37.8608 24.9565H31.4521V33.4116Z" fill="#151618"/>
<path d="M28.6367 51.0537C28.3606 51.0537 28.1367 50.8299 28.1367 50.5537V22.5C28.1367 22.2239 28.3606 22 28.6367 22H37.5874C39.2508 22 40.5212 22.0798 41.3984 22.2393C42.6289 22.4443 43.66 22.8374 44.4917 23.4185C45.3234 23.9881 45.9899 24.7913 46.4912 25.8281C47.0039 26.8649 47.2603 28.0042 47.2603 29.2461C47.2603 31.3766 46.5824 33.1825 45.2266 34.6636C43.8708 36.1333 41.4212 36.8682 37.8779 36.8682H31.9521C31.676 36.8682 31.4521 37.092 31.4521 37.3682V50.5537C31.4521 50.8299 31.2283 51.0537 30.9521 51.0537H28.6367ZM31.4521 33.4116C31.4521 33.6878 31.676 33.9116 31.9521 33.9116H37.9292C40.0711 33.9116 41.5921 33.5129 42.4922 32.7153C43.3923 31.9178 43.8423 30.7956 43.8423 29.3486C43.8423 28.3005 43.5745 27.4061 43.0391 26.6655C42.515 25.9136 41.82 25.418 40.9541 25.1787C40.3958 25.0306 39.3647 24.9565 37.8608 24.9565H31.4521V33.4116Z" fill="black" fill-opacity="0.2"/>
<path d="M28.6367 51.0537C28.3606 51.0537 28.1367 50.8299 28.1367 50.5537V22.5C28.1367 22.2239 28.3606 22 28.6367 22H37.5874C39.2508 22 40.5212 22.0798 41.3984 22.2393C42.6289 22.4443 43.66 22.8374 44.4917 23.4185C45.3234 23.9881 45.9899 24.7913 46.4912 25.8281C47.0039 26.8649 47.2603 28.0042 47.2603 29.2461C47.2603 31.3766 46.5824 33.1825 45.2266 34.6636C43.8708 36.1333 41.4212 36.8682 37.8779 36.8682H31.9521C31.676 36.8682 31.4521 37.092 31.4521 37.3682V50.5537C31.4521 50.8299 31.2283 51.0537 30.9521 51.0537H28.6367ZM31.4521 33.4116C31.4521 33.6878 31.676 33.9116 31.9521 33.9116H37.9292C40.0711 33.9116 41.5921 33.5129 42.4922 32.7153C43.3923 31.9178 43.8423 30.7956 43.8423 29.3486C43.8423 28.3005 43.5745 27.4061 43.0391 26.6655C42.515 25.9136 41.82 25.418 40.9541 25.1787C40.3958 25.0306 39.3647 24.9565 37.8608 24.9565H31.4521V33.4116Z" fill="black" fill-opacity="0.2"/>
<path d="M28.6367 51.0537C28.3606 51.0537 28.1367 50.8299 28.1367 50.5537V22.5C28.1367 22.2239 28.3606 22 28.6367 22H37.5874C39.2508 22 40.5212 22.0798 41.3984 22.2393C42.6289 22.4443 43.66 22.8374 44.4917 23.4185C45.3234 23.9881 45.9899 24.7913 46.4912 25.8281C47.0039 26.8649 47.2603 28.0042 47.2603 29.2461C47.2603 31.3766 46.5824 33.1825 45.2266 34.6636C43.8708 36.1333 41.4212 36.8682 37.8779 36.8682H31.9521C31.676 36.8682 31.4521 37.092 31.4521 37.3682V50.5537C31.4521 50.8299 31.2283 51.0537 30.9521 51.0537H28.6367ZM31.4521 33.4116C31.4521 33.6878 31.676 33.9116 31.9521 33.9116H37.9292C40.0711 33.9116 41.5921 33.5129 42.4922 32.7153C43.3923 31.9178 43.8423 30.7956 43.8423 29.3486C43.8423 28.3005 43.5745 27.4061 43.0391 26.6655C42.515 25.9136 41.82 25.418 40.9541 25.1787C40.3958 25.0306 39.3647 24.9565 37.8608 24.9565H31.4521V33.4116Z" fill="black" fill-opacity="0.2"/>
<path d="M28.6367 51.0537C28.3606 51.0537 28.1367 50.8299 28.1367 50.5537V22.5C28.1367 22.2239 28.3606 22 28.6367 22H37.5874C39.2508 22 40.5212 22.0798 41.3984 22.2393C42.6289 22.4443 43.66 22.8374 44.4917 23.4185C45.3234 23.9881 45.9899 24.7913 46.4912 25.8281C47.0039 26.8649 47.2603 28.0042 47.2603 29.2461C47.2603 31.3766 46.5824 33.1825 45.2266 34.6636C43.8708 36.1333 41.4212 36.8682 37.8779 36.8682H31.9521C31.676 36.8682 31.4521 37.092 31.4521 37.3682V50.5537C31.4521 50.8299 31.2283 51.0537 30.9521 51.0537H28.6367ZM31.4521 33.4116C31.4521 33.6878 31.676 33.9116 31.9521 33.9116H37.9292C40.0711 33.9116 41.5921 33.5129 42.4922 32.7153C43.3923 31.9178 43.8423 30.7956 43.8423 29.3486C43.8423 28.3005 43.5745 27.4061 43.0391 26.6655C42.515 25.9136 41.82 25.418 40.9541 25.1787C40.3958 25.0306 39.3647 24.9565 37.8608 24.9565H31.4521V33.4116Z" fill="black" fill-opacity="0.2"/>
<path d="M28.6367 51.0537C28.3606 51.0537 28.1367 50.8299 28.1367 50.5537V22.5C28.1367 22.2239 28.3606 22 28.6367 22H37.5874C39.2508 22 40.5212 22.0798 41.3984 22.2393C42.6289 22.4443 43.66 22.8374 44.4917 23.4185C45.3234 23.9881 45.9899 24.7913 46.4912 25.8281C47.0039 26.8649 47.2603 28.0042 47.2603 29.2461C47.2603 31.3766 46.5824 33.1825 45.2266 34.6636C43.8708 36.1333 41.4212 36.8682 37.8779 36.8682H31.9521C31.676 36.8682 31.4521 37.092 31.4521 37.3682V50.5537C31.4521 50.8299 31.2283 51.0537 30.9521 51.0537H28.6367ZM31.4521 33.4116C31.4521 33.6878 31.676 33.9116 31.9521 33.9116H37.9292C40.0711 33.9116 41.5921 33.5129 42.4922 32.7153C43.3923 31.9178 43.8423 30.7956 43.8423 29.3486C43.8423 28.3005 43.5745 27.4061 43.0391 26.6655C42.515 25.9136 41.82 25.418 40.9541 25.1787C40.3958 25.0306 39.3647 24.9565 37.8608 24.9565H31.4521V33.4116Z" fill="black" fill-opacity="0.2"/>
<circle cx="30" cy="30" r="29.75" stroke="#3A6FB6" stroke-width="0.5"/>
<path d="M67.4902 33.3379V9H70.7109V30.4658H82.6973V33.3379H67.4902Z" fill="#151618"/>
<path d="M67.4902 33.3379V9H70.7109V30.4658H82.6973V33.3379H67.4902Z" fill="black" fill-opacity="0.2"/>
<path d="M67.4902 33.3379V9H70.7109V30.4658H82.6973V33.3379H67.4902Z" fill="black" fill-opacity="0.2"/>
<path d="M67.4902 33.3379V9H70.7109V30.4658H82.6973V33.3379H67.4902Z" fill="black" fill-opacity="0.2"/>
<path d="M67.4902 33.3379V9H70.7109V30.4658H82.6973V33.3379H67.4902Z" fill="black" fill-opacity="0.2"/>
<path d="M67.4902 33.3379V9H70.7109V30.4658H82.6973V33.3379H67.4902Z" fill="black" fill-opacity="0.2"/>
<path d="M99.1113 27.6602L102.199 28.042C101.712 29.846 100.81 31.2461 99.4932 32.2422C98.1761 33.2383 96.4938 33.7363 94.4463 33.7363C91.8675 33.7363 89.82 32.945 88.3037 31.3623C86.7985 29.7686 86.0459 27.5384 86.0459 24.6719C86.0459 21.7057 86.8096 19.4036 88.3369 17.7656C89.8643 16.1276 91.8454 15.3086 94.2803 15.3086C96.6377 15.3086 98.5635 16.111 100.058 17.7158C101.552 19.3206 102.299 21.5785 102.299 24.4893C102.299 24.6663 102.293 24.932 102.282 25.2861H89.1338C89.2445 27.223 89.7923 28.7061 90.7773 29.7354C91.7624 30.7646 92.9909 31.2793 94.4629 31.2793C95.5586 31.2793 96.4938 30.9915 97.2686 30.416C98.0433 29.8405 98.6576 28.9219 99.1113 27.6602ZM89.2998 22.8291H99.1445C99.0117 21.346 98.6354 20.2337 98.0156 19.4922C97.0638 18.3411 95.8298 17.7656 94.3135 17.7656C92.9411 17.7656 91.7845 18.2249 90.8438 19.1436C89.9141 20.0622 89.3994 21.2907 89.2998 22.8291Z" fill="#151618"/>
<path d="M99.1113 27.6602L102.199 28.042C101.712 29.846 100.81 31.2461 99.4932 32.2422C98.1761 33.2383 96.4938 33.7363 94.4463 33.7363C91.8675 33.7363 89.82 32.945 88.3037 31.3623C86.7985 29.7686 86.0459 27.5384 86.0459 24.6719C86.0459 21.7057 86.8096 19.4036 88.3369 17.7656C89.8643 16.1276 91.8454 15.3086 94.2803 15.3086C96.6377 15.3086 98.5635 16.111 100.058 17.7158C101.552 19.3206 102.299 21.5785 102.299 24.4893C102.299 24.6663 102.293 24.932 102.282 25.2861H89.1338C89.2445 27.223 89.7923 28.7061 90.7773 29.7354C91.7624 30.7646 92.9909 31.2793 94.4629 31.2793C95.5586 31.2793 96.4938 30.9915 97.2686 30.416C98.0433 29.8405 98.6576 28.9219 99.1113 27.6602ZM89.2998 22.8291H99.1445C99.0117 21.346 98.6354 20.2337 98.0156 19.4922C97.0638 18.3411 95.8298 17.7656 94.3135 17.7656C92.9411 17.7656 91.7845 18.2249 90.8438 19.1436C89.9141 20.0622 89.3994 21.2907 89.2998 22.8291Z" fill="black" fill-opacity="0.2"/>
<path d="M99.1113 27.6602L102.199 28.042C101.712 29.846 100.81 31.2461 99.4932 32.2422C98.1761 33.2383 96.4938 33.7363 94.4463 33.7363C91.8675 33.7363 89.82 32.945 88.3037 31.3623C86.7985 29.7686 86.0459 27.5384 86.0459 24.6719C86.0459 21.7057 86.8096 19.4036 88.3369 17.7656C89.8643 16.1276 91.8454 15.3086 94.2803 15.3086C96.6377 15.3086 98.5635 16.111 100.058 17.7158C101.552 19.3206 102.299 21.5785 102.299 24.4893C102.299 24.6663 102.293 24.932 102.282 25.2861H89.1338C89.2445 27.223 89.7923 28.7061 90.7773 29.7354C91.7624 30.7646 92.9909 31.2793 94.4629 31.2793C95.5586 31.2793 96.4938 30.9915 97.2686 30.416C98.0433 29.8405 98.6576 28.9219 99.1113 27.6602ZM89.2998 22.8291H99.1445C99.0117 21.346 98.6354 20.2337 98.0156 19.4922C97.0638 18.3411 95.8298 17.7656 94.3135 17.7656C92.9411 17.7656 91.7845 18.2249 90.8438 19.1436C89.9141 20.0622 89.3994 21.2907 89.2998 22.8291Z" fill="black" fill-opacity="0.2"/>
<path d="M99.1113 27.6602L102.199 28.042C101.712 29.846 100.81 31.2461 99.4932 32.2422C98.1761 33.2383 96.4938 33.7363 94.4463 33.7363C91.8675 33.7363 89.82 32.945 88.3037 31.3623C86.7985 29.7686 86.0459 27.5384 86.0459 24.6719C86.0459 21.7057 86.8096 19.4036 88.3369 17.7656C89.8643 16.1276 91.8454 15.3086 94.2803 15.3086C96.6377 15.3086 98.5635 16.111 100.058 17.7158C101.552 19.3206 102.299 21.5785 102.299 24.4893C102.299 24.6663 102.293 24.932 102.282 25.2861H89.1338C89.2445 27.223 89.7923 28.7061 90.7773 29.7354C91.7624 30.7646 92.9909 31.2793 94.4629 31.2793C95.5586 31.2793 96.4938 30.9915 97.2686 30.416C98.0433 29.8405 98.6576 28.9219 99.1113 27.6602ZM89.2998 22.8291H99.1445C99.0117 21.346 98.6354 20.2337 98.0156 19.4922C97.0638 18.3411 95.8298 17.7656 94.3135 17.7656C92.9411 17.7656 91.7845 18.2249 90.8438 19.1436C89.9141 20.0622 89.3994 21.2907 89.2998 22.8291Z" fill="black" fill-opacity="0.2"/>
<path d="M99.1113 27.6602L102.199 28.042C101.712 29.846 100.81 31.2461 99.4932 32.2422C98.1761 33.2383 96.4938 33.7363 94.4463 33.7363C91.8675 33.7363 89.82 32.945 88.3037 31.3623C86.7985 29.7686 86.0459 27.5384 86.0459 24.6719C86.0459 21.7057 86.8096 19.4036 88.3369 17.7656C89.8643 16.1276 91.8454 15.3086 94.2803 15.3086C96.6377 15.3086 98.5635 16.111 100.058 17.7158C101.552 19.3206 102.299 21.5785 102.299 24.4893C102.299 24.6663 102.293 24.932 102.282 25.2861H89.1338C89.2445 27.223 89.7923 28.7061 90.7773 29.7354C91.7624 30.7646 92.9909 31.2793 94.4629 31.2793C95.5586 31.2793 96.4938 30.9915 97.2686 30.416C98.0433 29.8405 98.6576 28.9219 99.1113 27.6602ZM89.2998 22.8291H99.1445C99.0117 21.346 98.6354 20.2337 98.0156 19.4922C97.0638 18.3411 95.8298 17.7656 94.3135 17.7656C92.9411 17.7656 91.7845 18.2249 90.8438 19.1436C89.9141 20.0622 89.3994 21.2907 89.2998 22.8291Z" fill="black" fill-opacity="0.2"/>
<path d="M99.1113 27.6602L102.199 28.042C101.712 29.846 100.81 31.2461 99.4932 32.2422C98.1761 33.2383 96.4938 33.7363 94.4463 33.7363C91.8675 33.7363 89.82 32.945 88.3037 31.3623C86.7985 29.7686 86.0459 27.5384 86.0459 24.6719C86.0459 21.7057 86.8096 19.4036 88.3369 17.7656C89.8643 16.1276 91.8454 15.3086 94.2803 15.3086C96.6377 15.3086 98.5635 16.111 100.058 17.7158C101.552 19.3206 102.299 21.5785 102.299 24.4893C102.299 24.6663 102.293 24.932 102.282 25.2861H89.1338C89.2445 27.223 89.7923 28.7061 90.7773 29.7354C91.7624 30.7646 92.9909 31.2793 94.4629 31.2793C95.5586 31.2793 96.4938 30.9915 97.2686 30.416C98.0433 29.8405 98.6576 28.9219 99.1113 27.6602ZM89.2998 22.8291H99.1445C99.0117 21.346 98.6354 20.2337 98.0156 19.4922C97.0638 18.3411 95.8298 17.7656 94.3135 17.7656C92.9411 17.7656 91.7845 18.2249 90.8438 19.1436C89.9141 20.0622 89.3994 21.2907 89.2998 22.8291Z" fill="black" fill-opacity="0.2"/>
<path d="M118.348 31.1631C117.241 32.1038 116.173 32.7679 115.144 33.1553C114.125 33.5426 113.03 33.7363 111.856 33.7363C109.92 33.7363 108.431 33.266 107.391 32.3252C106.35 31.3734 105.83 30.1615 105.83 28.6895C105.83 27.8262 106.024 27.0404 106.411 26.332C106.81 25.6126 107.324 25.0371 107.955 24.6055C108.597 24.1738 109.316 23.8473 110.113 23.626C110.7 23.471 111.585 23.3216 112.77 23.1777C115.182 22.89 116.959 22.5469 118.099 22.1484C118.11 21.7389 118.115 21.4788 118.115 21.3682C118.115 20.1507 117.833 19.293 117.269 18.7949C116.505 18.1198 115.37 17.7822 113.865 17.7822C112.46 17.7822 111.419 18.0312 110.744 18.5293C110.08 19.0163 109.588 19.8851 109.267 21.1357L106.345 20.7373C106.61 19.4867 107.048 18.4795 107.656 17.7158C108.265 16.9411 109.145 16.349 110.296 15.9395C111.447 15.5189 112.781 15.3086 114.297 15.3086C115.802 15.3086 117.025 15.4857 117.966 15.8398C118.907 16.194 119.598 16.6423 120.041 17.1846C120.484 17.7158 120.794 18.391 120.971 19.21C121.07 19.7191 121.12 20.6377 121.12 21.9658V25.9502C121.12 28.7282 121.181 30.488 121.303 31.2295C121.436 31.96 121.69 32.6628 122.066 33.3379H118.945C118.635 32.7181 118.436 31.9932 118.348 31.1631ZM118.099 24.4893C117.014 24.932 115.387 25.3083 113.218 25.6182C111.989 25.7952 111.12 25.9945 110.611 26.2158C110.102 26.4372 109.709 26.7637 109.433 27.1953C109.156 27.6159 109.018 28.0863 109.018 28.6064C109.018 29.4033 109.316 30.0674 109.914 30.5986C110.523 31.1299 111.408 31.3955 112.57 31.3955C113.721 31.3955 114.745 31.1465 115.642 30.6484C116.538 30.1393 117.197 29.4476 117.617 28.5732C117.938 27.8981 118.099 26.902 118.099 25.585V24.4893Z" fill="#151618"/>
<path d="M118.348 31.1631C117.241 32.1038 116.173 32.7679 115.144 33.1553C114.125 33.5426 113.03 33.7363 111.856 33.7363C109.92 33.7363 108.431 33.266 107.391 32.3252C106.35 31.3734 105.83 30.1615 105.83 28.6895C105.83 27.8262 106.024 27.0404 106.411 26.332C106.81 25.6126 107.324 25.0371 107.955 24.6055C108.597 24.1738 109.316 23.8473 110.113 23.626C110.7 23.471 111.585 23.3216 112.77 23.1777C115.182 22.89 116.959 22.5469 118.099 22.1484C118.11 21.7389 118.115 21.4788 118.115 21.3682C118.115 20.1507 117.833 19.293 117.269 18.7949C116.505 18.1198 115.37 17.7822 113.865 17.7822C112.46 17.7822 111.419 18.0312 110.744 18.5293C110.08 19.0163 109.588 19.8851 109.267 21.1357L106.345 20.7373C106.61 19.4867 107.048 18.4795 107.656 17.7158C108.265 16.9411 109.145 16.349 110.296 15.9395C111.447 15.5189 112.781 15.3086 114.297 15.3086C115.802 15.3086 117.025 15.4857 117.966 15.8398C118.907 16.194 119.598 16.6423 120.041 17.1846C120.484 17.7158 120.794 18.391 120.971 19.21C121.07 19.7191 121.12 20.6377 121.12 21.9658V25.9502C121.12 28.7282 121.181 30.488 121.303 31.2295C121.436 31.96 121.69 32.6628 122.066 33.3379H118.945C118.635 32.7181 118.436 31.9932 118.348 31.1631ZM118.099 24.4893C117.014 24.932 115.387 25.3083 113.218 25.6182C111.989 25.7952 111.12 25.9945 110.611 26.2158C110.102 26.4372 109.709 26.7637 109.433 27.1953C109.156 27.6159 109.018 28.0863 109.018 28.6064C109.018 29.4033 109.316 30.0674 109.914 30.5986C110.523 31.1299 111.408 31.3955 112.57 31.3955C113.721 31.3955 114.745 31.1465 115.642 30.6484C116.538 30.1393 117.197 29.4476 117.617 28.5732C117.938 27.8981 118.099 26.902 118.099 25.585V24.4893Z" fill="black" fill-opacity="0.2"/>
<path d="M118.348 31.1631C117.241 32.1038 116.173 32.7679 115.144 33.1553C114.125 33.5426 113.03 33.7363 111.856 33.7363C109.92 33.7363 108.431 33.266 107.391 32.3252C106.35 31.3734 105.83 30.1615 105.83 28.6895C105.83 27.8262 106.024 27.0404 106.411 26.332C106.81 25.6126 107.324 25.0371 107.955 24.6055C108.597 24.1738 109.316 23.8473 110.113 23.626C110.7 23.471 111.585 23.3216 112.77 23.1777C115.182 22.89 116.959 22.5469 118.099 22.1484C118.11 21.7389 118.115 21.4788 118.115 21.3682C118.115 20.1507 117.833 19.293 117.269 18.7949C116.505 18.1198 115.37 17.7822 113.865 17.7822C112.46 17.7822 111.419 18.0312 110.744 18.5293C110.08 19.0163 109.588 19.8851 109.267 21.1357L106.345 20.7373C106.61 19.4867 107.048 18.4795 107.656 17.7158C108.265 16.9411 109.145 16.349 110.296 15.9395C111.447 15.5189 112.781 15.3086 114.297 15.3086C115.802 15.3086 117.025 15.4857 117.966 15.8398C118.907 16.194 119.598 16.6423 120.041 17.1846C120.484 17.7158 120.794 18.391 120.971 19.21C121.07 19.7191 121.12 20.6377 121.12 21.9658V25.9502C121.12 28.7282 121.181 30.488 121.303 31.2295C121.436 31.96 121.69 32.6628 122.066 33.3379H118.945C118.635 32.7181 118.436 31.9932 118.348 31.1631ZM118.099 24.4893C117.014 24.932 115.387 25.3083 113.218 25.6182C111.989 25.7952 111.12 25.9945 110.611 26.2158C110.102 26.4372 109.709 26.7637 109.433 27.1953C109.156 27.6159 109.018 28.0863 109.018 28.6064C109.018 29.4033 109.316 30.0674 109.914 30.5986C110.523 31.1299 111.408 31.3955 112.57 31.3955C113.721 31.3955 114.745 31.1465 115.642 30.6484C116.538 30.1393 117.197 29.4476 117.617 28.5732C117.938 27.8981 118.099 26.902 118.099 25.585V24.4893Z" fill="black" fill-opacity="0.2"/>
<path d="M118.348 31.1631C117.241 32.1038 116.173 32.7679 115.144 33.1553C114.125 33.5426 113.03 33.7363 111.856 33.7363C109.92 33.7363 108.431 33.266 107.391 32.3252C106.35 31.3734 105.83 30.1615 105.83 28.6895C105.83 27.8262 106.024 27.0404 106.411 26.332C106.81 25.6126 107.324 25.0371 107.955 24.6055C108.597 24.1738 109.316 23.8473 110.113 23.626C110.7 23.471 111.585 23.3216 112.77 23.1777C115.182 22.89 116.959 22.5469 118.099 22.1484C118.11 21.7389 118.115 21.4788 118.115 21.3682C118.115 20.1507 117.833 19.293 117.269 18.7949C116.505 18.1198 115.37 17.7822 113.865 17.7822C112.46 17.7822 111.419 18.0312 110.744 18.5293C110.08 19.0163 109.588 19.8851 109.267 21.1357L106.345 20.7373C106.61 19.4867 107.048 18.4795 107.656 17.7158C108.265 16.9411 109.145 16.349 110.296 15.9395C111.447 15.5189 112.781 15.3086 114.297 15.3086C115.802 15.3086 117.025 15.4857 117.966 15.8398C118.907 16.194 119.598 16.6423 120.041 17.1846C120.484 17.7158 120.794 18.391 120.971 19.21C121.07 19.7191 121.12 20.6377 121.12 21.9658V25.9502C121.12 28.7282 121.181 30.488 121.303 31.2295C121.436 31.96 121.69 32.6628 122.066 33.3379H118.945C118.635 32.7181 118.436 31.9932 118.348 31.1631ZM118.099 24.4893C117.014 24.932 115.387 25.3083 113.218 25.6182C111.989 25.7952 111.12 25.9945 110.611 26.2158C110.102 26.4372 109.709 26.7637 109.433 27.1953C109.156 27.6159 109.018 28.0863 109.018 28.6064C109.018 29.4033 109.316 30.0674 109.914 30.5986C110.523 31.1299 111.408 31.3955 112.57 31.3955C113.721 31.3955 114.745 31.1465 115.642 30.6484C116.538 30.1393 117.197 29.4476 117.617 28.5732C117.938 27.8981 118.099 26.902 118.099 25.585V24.4893Z" fill="black" fill-opacity="0.2"/>
<path d="M118.348 31.1631C117.241 32.1038 116.173 32.7679 115.144 33.1553C114.125 33.5426 113.03 33.7363 111.856 33.7363C109.92 33.7363 108.431 33.266 107.391 32.3252C106.35 31.3734 105.83 30.1615 105.83 28.6895C105.83 27.8262 106.024 27.0404 106.411 26.332C106.81 25.6126 107.324 25.0371 107.955 24.6055C108.597 24.1738 109.316 23.8473 110.113 23.626C110.7 23.471 111.585 23.3216 112.77 23.1777C115.182 22.89 116.959 22.5469 118.099 22.1484C118.11 21.7389 118.115 21.4788 118.115 21.3682C118.115 20.1507 117.833 19.293 117.269 18.7949C116.505 18.1198 115.37 17.7822 113.865 17.7822C112.46 17.7822 111.419 18.0312 110.744 18.5293C110.08 19.0163 109.588 19.8851 109.267 21.1357L106.345 20.7373C106.61 19.4867 107.048 18.4795 107.656 17.7158C108.265 16.9411 109.145 16.349 110.296 15.9395C111.447 15.5189 112.781 15.3086 114.297 15.3086C115.802 15.3086 117.025 15.4857 117.966 15.8398C118.907 16.194 119.598 16.6423 120.041 17.1846C120.484 17.7158 120.794 18.391 120.971 19.21C121.07 19.7191 121.12 20.6377 121.12 21.9658V25.9502C121.12 28.7282 121.181 30.488 121.303 31.2295C121.436 31.96 121.69 32.6628 122.066 33.3379H118.945C118.635 32.7181 118.436 31.9932 118.348 31.1631ZM118.099 24.4893C117.014 24.932 115.387 25.3083 113.218 25.6182C111.989 25.7952 111.12 25.9945 110.611 26.2158C110.102 26.4372 109.709 26.7637 109.433 27.1953C109.156 27.6159 109.018 28.0863 109.018 28.6064C109.018 29.4033 109.316 30.0674 109.914 30.5986C110.523 31.1299 111.408 31.3955 112.57 31.3955C113.721 31.3955 114.745 31.1465 115.642 30.6484C116.538 30.1393 117.197 29.4476 117.617 28.5732C117.938 27.8981 118.099 26.902 118.099 25.585V24.4893Z" fill="black" fill-opacity="0.2"/>
<path d="M118.348 31.1631C117.241 32.1038 116.173 32.7679 115.144 33.1553C114.125 33.5426 113.03 33.7363 111.856 33.7363C109.92 33.7363 108.431 33.266 107.391 32.3252C106.35 31.3734 105.83 30.1615 105.83 28.6895C105.83 27.8262 106.024 27.0404 106.411 26.332C106.81 25.6126 107.324 25.0371 107.955 24.6055C108.597 24.1738 109.316 23.8473 110.113 23.626C110.7 23.471 111.585 23.3216 112.77 23.1777C115.182 22.89 116.959 22.5469 118.099 22.1484C118.11 21.7389 118.115 21.4788 118.115 21.3682C118.115 20.1507 117.833 19.293 117.269 18.7949C116.505 18.1198 115.37 17.7822 113.865 17.7822C112.46 17.7822 111.419 18.0312 110.744 18.5293C110.08 19.0163 109.588 19.8851 109.267 21.1357L106.345 20.7373C106.61 19.4867 107.048 18.4795 107.656 17.7158C108.265 16.9411 109.145 16.349 110.296 15.9395C111.447 15.5189 112.781 15.3086 114.297 15.3086C115.802 15.3086 117.025 15.4857 117.966 15.8398C118.907 16.194 119.598 16.6423 120.041 17.1846C120.484 17.7158 120.794 18.391 120.971 19.21C121.07 19.7191 121.12 20.6377 121.12 21.9658V25.9502C121.12 28.7282 121.181 30.488 121.303 31.2295C121.436 31.96 121.69 32.6628 122.066 33.3379H118.945C118.635 32.7181 118.436 31.9932 118.348 31.1631ZM118.099 24.4893C117.014 24.932 115.387 25.3083 113.218 25.6182C111.989 25.7952 111.12 25.9945 110.611 26.2158C110.102 26.4372 109.709 26.7637 109.433 27.1953C109.156 27.6159 109.018 28.0863 109.018 28.6064C109.018 29.4033 109.316 30.0674 109.914 30.5986C110.523 31.1299 111.408 31.3955 112.57 31.3955C113.721 31.3955 114.745 31.1465 115.642 30.6484C116.538 30.1393 117.197 29.4476 117.617 28.5732C117.938 27.8981 118.099 26.902 118.099 25.585V24.4893Z" fill="black" fill-opacity="0.2"/>
<path d="M138.082 33.3379V31.1133C136.964 32.862 135.321 33.7363 133.151 33.7363C131.746 33.7363 130.451 33.349 129.267 32.5742C128.093 31.7995 127.18 30.7204 126.527 29.3369C125.885 27.9424 125.564 26.3431 125.564 24.5391C125.564 22.7793 125.858 21.1855 126.444 19.7578C127.031 18.319 127.911 17.2178 129.084 16.4541C130.257 15.6904 131.569 15.3086 133.019 15.3086C134.081 15.3086 135.027 15.5355 135.857 15.9893C136.688 16.432 137.363 17.013 137.883 17.7324V9H140.854V33.3379H138.082ZM128.636 24.5391C128.636 26.7969 129.112 28.4847 130.063 29.6025C131.015 30.7204 132.139 31.2793 133.434 31.2793C134.74 31.2793 135.846 30.748 136.754 29.6855C137.673 28.612 138.132 26.9795 138.132 24.7881C138.132 22.3753 137.667 20.6045 136.737 19.4756C135.808 18.3467 134.662 17.7822 133.301 17.7822C131.973 17.7822 130.86 18.3245 129.964 19.4092C129.078 20.4938 128.636 22.2038 128.636 24.5391Z" fill="#151618"/>
<path d="M138.082 33.3379V31.1133C136.964 32.862 135.321 33.7363 133.151 33.7363C131.746 33.7363 130.451 33.349 129.267 32.5742C128.093 31.7995 127.18 30.7204 126.527 29.3369C125.885 27.9424 125.564 26.3431 125.564 24.5391C125.564 22.7793 125.858 21.1855 126.444 19.7578C127.031 18.319 127.911 17.2178 129.084 16.4541C130.257 15.6904 131.569 15.3086 133.019 15.3086C134.081 15.3086 135.027 15.5355 135.857 15.9893C136.688 16.432 137.363 17.013 137.883 17.7324V9H140.854V33.3379H138.082ZM128.636 24.5391C128.636 26.7969 129.112 28.4847 130.063 29.6025C131.015 30.7204 132.139 31.2793 133.434 31.2793C134.74 31.2793 135.846 30.748 136.754 29.6855C137.673 28.612 138.132 26.9795 138.132 24.7881C138.132 22.3753 137.667 20.6045 136.737 19.4756C135.808 18.3467 134.662 17.7822 133.301 17.7822C131.973 17.7822 130.86 18.3245 129.964 19.4092C129.078 20.4938 128.636 22.2038 128.636 24.5391Z" fill="black" fill-opacity="0.2"/>
<path d="M138.082 33.3379V31.1133C136.964 32.862 135.321 33.7363 133.151 33.7363C131.746 33.7363 130.451 33.349 129.267 32.5742C128.093 31.7995 127.18 30.7204 126.527 29.3369C125.885 27.9424 125.564 26.3431 125.564 24.5391C125.564 22.7793 125.858 21.1855 126.444 19.7578C127.031 18.319 127.911 17.2178 129.084 16.4541C130.257 15.6904 131.569 15.3086 133.019 15.3086C134.081 15.3086 135.027 15.5355 135.857 15.9893C136.688 16.432 137.363 17.013 137.883 17.7324V9H140.854V33.3379H138.082ZM128.636 24.5391C128.636 26.7969 129.112 28.4847 130.063 29.6025C131.015 30.7204 132.139 31.2793 133.434 31.2793C134.74 31.2793 135.846 30.748 136.754 29.6855C137.673 28.612 138.132 26.9795 138.132 24.7881C138.132 22.3753 137.667 20.6045 136.737 19.4756C135.808 18.3467 134.662 17.7822 133.301 17.7822C131.973 17.7822 130.86 18.3245 129.964 19.4092C129.078 20.4938 128.636 22.2038 128.636 24.5391Z" fill="black" fill-opacity="0.2"/>
<path d="M138.082 33.3379V31.1133C136.964 32.862 135.321 33.7363 133.151 33.7363C131.746 33.7363 130.451 33.349 129.267 32.5742C128.093 31.7995 127.18 30.7204 126.527 29.3369C125.885 27.9424 125.564 26.3431 125.564 24.5391C125.564 22.7793 125.858 21.1855 126.444 19.7578C127.031 18.319 127.911 17.2178 129.084 16.4541C130.257 15.6904 131.569 15.3086 133.019 15.3086C134.081 15.3086 135.027 15.5355 135.857 15.9893C136.688 16.432 137.363 17.013 137.883 17.7324V9H140.854V33.3379H138.082ZM128.636 24.5391C128.636 26.7969 129.112 28.4847 130.063 29.6025C131.015 30.7204 132.139 31.2793 133.434 31.2793C134.74 31.2793 135.846 30.748 136.754 29.6855C137.673 28.612 138.132 26.9795 138.132 24.7881C138.132 22.3753 137.667 20.6045 136.737 19.4756C135.808 18.3467 134.662 17.7822 133.301 17.7822C131.973 17.7822 130.86 18.3245 129.964 19.4092C129.078 20.4938 128.636 22.2038 128.636 24.5391Z" fill="black" fill-opacity="0.2"/>
<path d="M138.082 33.3379V31.1133C136.964 32.862 135.321 33.7363 133.151 33.7363C131.746 33.7363 130.451 33.349 129.267 32.5742C128.093 31.7995 127.18 30.7204 126.527 29.3369C125.885 27.9424 125.564 26.3431 125.564 24.5391C125.564 22.7793 125.858 21.1855 126.444 19.7578C127.031 18.319 127.911 17.2178 129.084 16.4541C130.257 15.6904 131.569 15.3086 133.019 15.3086C134.081 15.3086 135.027 15.5355 135.857 15.9893C136.688 16.432 137.363 17.013 137.883 17.7324V9H140.854V33.3379H138.082ZM128.636 24.5391C128.636 26.7969 129.112 28.4847 130.063 29.6025C131.015 30.7204 132.139 31.2793 133.434 31.2793C134.74 31.2793 135.846 30.748 136.754 29.6855C137.673 28.612 138.132 26.9795 138.132 24.7881C138.132 22.3753 137.667 20.6045 136.737 19.4756C135.808 18.3467 134.662 17.7822 133.301 17.7822C131.973 17.7822 130.86 18.3245 129.964 19.4092C129.078 20.4938 128.636 22.2038 128.636 24.5391Z" fill="black" fill-opacity="0.2"/>
<path d="M138.082 33.3379V31.1133C136.964 32.862 135.321 33.7363 133.151 33.7363C131.746 33.7363 130.451 33.349 129.267 32.5742C128.093 31.7995 127.18 30.7204 126.527 29.3369C125.885 27.9424 125.564 26.3431 125.564 24.5391C125.564 22.7793 125.858 21.1855 126.444 19.7578C127.031 18.319 127.911 17.2178 129.084 16.4541C130.257 15.6904 131.569 15.3086 133.019 15.3086C134.081 15.3086 135.027 15.5355 135.857 15.9893C136.688 16.432 137.363 17.013 137.883 17.7324V9H140.854V33.3379H138.082ZM128.636 24.5391C128.636 26.7969 129.112 28.4847 130.063 29.6025C131.015 30.7204 132.139 31.2793 133.434 31.2793C134.74 31.2793 135.846 30.748 136.754 29.6855C137.673 28.612 138.132 26.9795 138.132 24.7881C138.132 22.3753 137.667 20.6045 136.737 19.4756C135.808 18.3467 134.662 17.7822 133.301 17.7822C131.973 17.7822 130.86 18.3245 129.964 19.4092C129.078 20.4938 128.636 22.2038 128.636 24.5391Z" fill="black" fill-opacity="0.2"/>
<path d="M146.826 33.3379V9H156.007C157.623 9 158.857 9.07747 159.709 9.23242C160.904 9.43164 161.906 9.81348 162.714 10.3779C163.522 10.9313 164.169 11.7116 164.656 12.7188C165.154 13.7259 165.403 14.8327 165.403 16.0391C165.403 18.1087 164.745 19.863 163.428 21.3018C162.111 22.7295 159.731 23.4434 156.289 23.4434H150.047V33.3379H146.826ZM150.047 20.5713H156.339C158.42 20.5713 159.897 20.1839 160.771 19.4092C161.646 18.6344 162.083 17.5443 162.083 16.1387C162.083 15.1204 161.823 14.2516 161.303 13.5322C160.794 12.8018 160.118 12.3203 159.277 12.0879C158.735 11.944 157.733 11.8721 156.272 11.8721H150.047V20.5713Z" fill="#151618"/>
<path d="M146.826 33.3379V9H156.007C157.623 9 158.857 9.07747 159.709 9.23242C160.904 9.43164 161.906 9.81348 162.714 10.3779C163.522 10.9313 164.169 11.7116 164.656 12.7188C165.154 13.7259 165.403 14.8327 165.403 16.0391C165.403 18.1087 164.745 19.863 163.428 21.3018C162.111 22.7295 159.731 23.4434 156.289 23.4434H150.047V33.3379H146.826ZM150.047 20.5713H156.339C158.42 20.5713 159.897 20.1839 160.771 19.4092C161.646 18.6344 162.083 17.5443 162.083 16.1387C162.083 15.1204 161.823 14.2516 161.303 13.5322C160.794 12.8018 160.118 12.3203 159.277 12.0879C158.735 11.944 157.733 11.8721 156.272 11.8721H150.047V20.5713Z" fill="black" fill-opacity="0.2"/>
<path d="M146.826 33.3379V9H156.007C157.623 9 158.857 9.07747 159.709 9.23242C160.904 9.43164 161.906 9.81348 162.714 10.3779C163.522 10.9313 164.169 11.7116 164.656 12.7188C165.154 13.7259 165.403 14.8327 165.403 16.0391C165.403 18.1087 164.745 19.863 163.428 21.3018C162.111 22.7295 159.731 23.4434 156.289 23.4434H150.047V33.3379H146.826ZM150.047 20.5713H156.339C158.42 20.5713 159.897 20.1839 160.771 19.4092C161.646 18.6344 162.083 17.5443 162.083 16.1387C162.083 15.1204 161.823 14.2516 161.303 13.5322C160.794 12.8018 160.118 12.3203 159.277 12.0879C158.735 11.944 157.733 11.8721 156.272 11.8721H150.047V20.5713Z" fill="black" fill-opacity="0.2"/>
<path d="M146.826 33.3379V9H156.007C157.623 9 158.857 9.07747 159.709 9.23242C160.904 9.43164 161.906 9.81348 162.714 10.3779C163.522 10.9313 164.169 11.7116 164.656 12.7188C165.154 13.7259 165.403 14.8327 165.403 16.0391C165.403 18.1087 164.745 19.863 163.428 21.3018C162.111 22.7295 159.731 23.4434 156.289 23.4434H150.047V33.3379H146.826ZM150.047 20.5713H156.339C158.42 20.5713 159.897 20.1839 160.771 19.4092C161.646 18.6344 162.083 17.5443 162.083 16.1387C162.083 15.1204 161.823 14.2516 161.303 13.5322C160.794 12.8018 160.118 12.3203 159.277 12.0879C158.735 11.944 157.733 11.8721 156.272 11.8721H150.047V20.5713Z" fill="black" fill-opacity="0.2"/>
<path d="M146.826 33.3379V9H156.007C157.623 9 158.857 9.07747 159.709 9.23242C160.904 9.43164 161.906 9.81348 162.714 10.3779C163.522 10.9313 164.169 11.7116 164.656 12.7188C165.154 13.7259 165.403 14.8327 165.403 16.0391C165.403 18.1087 164.745 19.863 163.428 21.3018C162.111 22.7295 159.731 23.4434 156.289 23.4434H150.047V33.3379H146.826ZM150.047 20.5713H156.339C158.42 20.5713 159.897 20.1839 160.771 19.4092C161.646 18.6344 162.083 17.5443 162.083 16.1387C162.083 15.1204 161.823 14.2516 161.303 13.5322C160.794 12.8018 160.118 12.3203 159.277 12.0879C158.735 11.944 157.733 11.8721 156.272 11.8721H150.047V20.5713Z" fill="black" fill-opacity="0.2"/>
<path d="M146.826 33.3379V9H156.007C157.623 9 158.857 9.07747 159.709 9.23242C160.904 9.43164 161.906 9.81348 162.714 10.3779C163.522 10.9313 164.169 11.7116 164.656 12.7188C165.154 13.7259 165.403 14.8327 165.403 16.0391C165.403 18.1087 164.745 19.863 163.428 21.3018C162.111 22.7295 159.731 23.4434 156.289 23.4434H150.047V33.3379H146.826ZM150.047 20.5713H156.339C158.42 20.5713 159.897 20.1839 160.771 19.4092C161.646 18.6344 162.083 17.5443 162.083 16.1387C162.083 15.1204 161.823 14.2516 161.303 13.5322C160.794 12.8018 160.118 12.3203 159.277 12.0879C158.735 11.944 157.733 11.8721 156.272 11.8721H150.047V20.5713Z" fill="black" fill-opacity="0.2"/>
<path d="M168.885 24.5225C168.885 21.2575 169.792 18.8392 171.607 17.2676C173.124 15.9616 174.972 15.3086 177.152 15.3086C179.576 15.3086 181.557 16.1055 183.096 17.6992C184.634 19.2819 185.403 21.4733 185.403 24.2734C185.403 26.5423 185.06 28.3298 184.374 29.6357C183.699 30.9307 182.708 31.9378 181.402 32.6572C180.107 33.3766 178.691 33.7363 177.152 33.7363C174.684 33.7363 172.687 32.945 171.159 31.3623C169.643 29.7796 168.885 27.4997 168.885 24.5225ZM171.956 24.5225C171.956 26.7803 172.449 28.4736 173.434 29.6025C174.419 30.7204 175.658 31.2793 177.152 31.2793C178.635 31.2793 179.869 30.7148 180.854 29.5859C181.84 28.457 182.332 26.736 182.332 24.4229C182.332 22.2425 181.834 20.5934 180.838 19.4756C179.853 18.3467 178.624 17.7822 177.152 17.7822C175.658 17.7822 174.419 18.3411 173.434 19.459C172.449 20.5768 171.956 22.2646 171.956 24.5225Z" fill="#151618"/>
<path d="M168.885 24.5225C168.885 21.2575 169.792 18.8392 171.607 17.2676C173.124 15.9616 174.972 15.3086 177.152 15.3086C179.576 15.3086 181.557 16.1055 183.096 17.6992C184.634 19.2819 185.403 21.4733 185.403 24.2734C185.403 26.5423 185.06 28.3298 184.374 29.6357C183.699 30.9307 182.708 31.9378 181.402 32.6572C180.107 33.3766 178.691 33.7363 177.152 33.7363C174.684 33.7363 172.687 32.945 171.159 31.3623C169.643 29.7796 168.885 27.4997 168.885 24.5225ZM171.956 24.5225C171.956 26.7803 172.449 28.4736 173.434 29.6025C174.419 30.7204 175.658 31.2793 177.152 31.2793C178.635 31.2793 179.869 30.7148 180.854 29.5859C181.84 28.457 182.332 26.736 182.332 24.4229C182.332 22.2425 181.834 20.5934 180.838 19.4756C179.853 18.3467 178.624 17.7822 177.152 17.7822C175.658 17.7822 174.419 18.3411 173.434 19.459C172.449 20.5768 171.956 22.2646 171.956 24.5225Z" fill="black" fill-opacity="0.2"/>
<path d="M168.885 24.5225C168.885 21.2575 169.792 18.8392 171.607 17.2676C173.124 15.9616 174.972 15.3086 177.152 15.3086C179.576 15.3086 181.557 16.1055 183.096 17.6992C184.634 19.2819 185.403 21.4733 185.403 24.2734C185.403 26.5423 185.06 28.3298 184.374 29.6357C183.699 30.9307 182.708 31.9378 181.402 32.6572C180.107 33.3766 178.691 33.7363 177.152 33.7363C174.684 33.7363 172.687 32.945 171.159 31.3623C169.643 29.7796 168.885 27.4997 168.885 24.5225ZM171.956 24.5225C171.956 26.7803 172.449 28.4736 173.434 29.6025C174.419 30.7204 175.658 31.2793 177.152 31.2793C178.635 31.2793 179.869 30.7148 180.854 29.5859C181.84 28.457 182.332 26.736 182.332 24.4229C182.332 22.2425 181.834 20.5934 180.838 19.4756C179.853 18.3467 178.624 17.7822 177.152 17.7822C175.658 17.7822 174.419 18.3411 173.434 19.459C172.449 20.5768 171.956 22.2646 171.956 24.5225Z" fill="black" fill-opacity="0.2"/>
<path d="M168.885 24.5225C168.885 21.2575 169.792 18.8392 171.607 17.2676C173.124 15.9616 174.972 15.3086 177.152 15.3086C179.576 15.3086 181.557 16.1055 183.096 17.6992C184.634 19.2819 185.403 21.4733 185.403 24.2734C185.403 26.5423 185.06 28.3298 184.374 29.6357C183.699 30.9307 182.708 31.9378 181.402 32.6572C180.107 33.3766 178.691 33.7363 177.152 33.7363C174.684 33.7363 172.687 32.945 171.159 31.3623C169.643 29.7796 168.885 27.4997 168.885 24.5225ZM171.956 24.5225C171.956 26.7803 172.449 28.4736 173.434 29.6025C174.419 30.7204 175.658 31.2793 177.152 31.2793C178.635 31.2793 179.869 30.7148 180.854 29.5859C181.84 28.457 182.332 26.736 182.332 24.4229C182.332 22.2425 181.834 20.5934 180.838 19.4756C179.853 18.3467 178.624 17.7822 177.152 17.7822C175.658 17.7822 174.419 18.3411 173.434 19.459C172.449 20.5768 171.956 22.2646 171.956 24.5225Z" fill="black" fill-opacity="0.2"/>
<path d="M168.885 24.5225C168.885 21.2575 169.792 18.8392 171.607 17.2676C173.124 15.9616 174.972 15.3086 177.152 15.3086C179.576 15.3086 181.557 16.1055 183.096 17.6992C184.634 19.2819 185.403 21.4733 185.403 24.2734C185.403 26.5423 185.06 28.3298 184.374 29.6357C183.699 30.9307 182.708 31.9378 181.402 32.6572C180.107 33.3766 178.691 33.7363 177.152 33.7363C174.684 33.7363 172.687 32.945 171.159 31.3623C169.643 29.7796 168.885 27.4997 168.885 24.5225ZM171.956 24.5225C171.956 26.7803 172.449 28.4736 173.434 29.6025C174.419 30.7204 175.658 31.2793 177.152 31.2793C178.635 31.2793 179.869 30.7148 180.854 29.5859C181.84 28.457 182.332 26.736 182.332 24.4229C182.332 22.2425 181.834 20.5934 180.838 19.4756C179.853 18.3467 178.624 17.7822 177.152 17.7822C175.658 17.7822 174.419 18.3411 173.434 19.459C172.449 20.5768 171.956 22.2646 171.956 24.5225Z" fill="black" fill-opacity="0.2"/>
<path d="M168.885 24.5225C168.885 21.2575 169.792 18.8392 171.607 17.2676C173.124 15.9616 174.972 15.3086 177.152 15.3086C179.576 15.3086 181.557 16.1055 183.096 17.6992C184.634 19.2819 185.403 21.4733 185.403 24.2734C185.403 26.5423 185.06 28.3298 184.374 29.6357C183.699 30.9307 182.708 31.9378 181.402 32.6572C180.107 33.3766 178.691 33.7363 177.152 33.7363C174.684 33.7363 172.687 32.945 171.159 31.3623C169.643 29.7796 168.885 27.4997 168.885 24.5225ZM171.956 24.5225C171.956 26.7803 172.449 28.4736 173.434 29.6025C174.419 30.7204 175.658 31.2793 177.152 31.2793C178.635 31.2793 179.869 30.7148 180.854 29.5859C181.84 28.457 182.332 26.736 182.332 24.4229C182.332 22.2425 181.834 20.5934 180.838 19.4756C179.853 18.3467 178.624 17.7822 177.152 17.7822C175.658 17.7822 174.419 18.3411 173.434 19.459C172.449 20.5768 171.956 22.2646 171.956 24.5225Z" fill="black" fill-opacity="0.2"/>
<path d="M189.814 12.4365V9H192.803V12.4365H189.814ZM189.814 33.3379V15.707H192.803V33.3379H189.814Z" fill="#151618"/>
<path d="M189.814 12.4365V9H192.803V12.4365H189.814ZM189.814 33.3379V15.707H192.803V33.3379H189.814Z" fill="black" fill-opacity="0.2"/>
<path d="M189.814 12.4365V9H192.803V12.4365H189.814ZM189.814 33.3379V15.707H192.803V33.3379H189.814Z" fill="black" fill-opacity="0.2"/>
<path d="M189.814 12.4365V9H192.803V12.4365H189.814ZM189.814 33.3379V15.707H192.803V33.3379H189.814Z" fill="black" fill-opacity="0.2"/>
<path d="M189.814 12.4365V9H192.803V12.4365H189.814ZM189.814 33.3379V15.707H192.803V33.3379H189.814Z" fill="black" fill-opacity="0.2"/>
<path d="M189.814 12.4365V9H192.803V12.4365H189.814ZM189.814 33.3379V15.707H192.803V33.3379H189.814Z" fill="black" fill-opacity="0.2"/>
<path d="M198.243 33.3379V15.707H200.933V18.2139C202.228 16.277 204.098 15.3086 206.544 15.3086C207.606 15.3086 208.58 15.5023 209.466 15.8896C210.362 16.266 211.032 16.764 211.475 17.3838C211.917 18.0036 212.227 18.7396 212.404 19.5918C212.515 20.1452 212.57 21.1136 212.57 22.4971V33.3379H209.582V22.6133C209.582 21.3958 209.466 20.4883 209.233 19.8906C209.001 19.2819 208.586 18.8005 207.988 18.4463C207.402 18.0811 206.71 17.8984 205.913 17.8984C204.64 17.8984 203.539 18.3024 202.609 19.1104C201.691 19.9183 201.231 21.4512 201.231 23.709V33.3379H198.243Z" fill="#151618"/>
<path d="M198.243 33.3379V15.707H200.933V18.2139C202.228 16.277 204.098 15.3086 206.544 15.3086C207.606 15.3086 208.58 15.5023 209.466 15.8896C210.362 16.266 211.032 16.764 211.475 17.3838C211.917 18.0036 212.227 18.7396 212.404 19.5918C212.515 20.1452 212.57 21.1136 212.57 22.4971V33.3379H209.582V22.6133C209.582 21.3958 209.466 20.4883 209.233 19.8906C209.001 19.2819 208.586 18.8005 207.988 18.4463C207.402 18.0811 206.71 17.8984 205.913 17.8984C204.64 17.8984 203.539 18.3024 202.609 19.1104C201.691 19.9183 201.231 21.4512 201.231 23.709V33.3379H198.243Z" fill="black" fill-opacity="0.2"/>
<path d="M198.243 33.3379V15.707H200.933V18.2139C202.228 16.277 204.098 15.3086 206.544 15.3086C207.606 15.3086 208.58 15.5023 209.466 15.8896C210.362 16.266 211.032 16.764 211.475 17.3838C211.917 18.0036 212.227 18.7396 212.404 19.5918C212.515 20.1452 212.57 21.1136 212.57 22.4971V33.3379H209.582V22.6133C209.582 21.3958 209.466 20.4883 209.233 19.8906C209.001 19.2819 208.586 18.8005 207.988 18.4463C207.402 18.0811 206.71 17.8984 205.913 17.8984C204.64 17.8984 203.539 18.3024 202.609 19.1104C201.691 19.9183 201.231 21.4512 201.231 23.709V33.3379H198.243Z" fill="black" fill-opacity="0.2"/>
<path d="M198.243 33.3379V15.707H200.933V18.2139C202.228 16.277 204.098 15.3086 206.544 15.3086C207.606 15.3086 208.58 15.5023 209.466 15.8896C210.362 16.266 211.032 16.764 211.475 17.3838C211.917 18.0036 212.227 18.7396 212.404 19.5918C212.515 20.1452 212.57 21.1136 212.57 22.4971V33.3379H209.582V22.6133C209.582 21.3958 209.466 20.4883 209.233 19.8906C209.001 19.2819 208.586 18.8005 207.988 18.4463C207.402 18.0811 206.71 17.8984 205.913 17.8984C204.64 17.8984 203.539 18.3024 202.609 19.1104C201.691 19.9183 201.231 21.4512 201.231 23.709V33.3379H198.243Z" fill="black" fill-opacity="0.2"/>
<path d="M198.243 33.3379V15.707H200.933V18.2139C202.228 16.277 204.098 15.3086 206.544 15.3086C207.606 15.3086 208.58 15.5023 209.466 15.8896C210.362 16.266 211.032 16.764 211.475 17.3838C211.917 18.0036 212.227 18.7396 212.404 19.5918C212.515 20.1452 212.57 21.1136 212.57 22.4971V33.3379H209.582V22.6133C209.582 21.3958 209.466 20.4883 209.233 19.8906C209.001 19.2819 208.586 18.8005 207.988 18.4463C207.402 18.0811 206.71 17.8984 205.913 17.8984C204.64 17.8984 203.539 18.3024 202.609 19.1104C201.691 19.9183 201.231 21.4512 201.231 23.709V33.3379H198.243Z" fill="black" fill-opacity="0.2"/>
<path d="M198.243 33.3379V15.707H200.933V18.2139C202.228 16.277 204.098 15.3086 206.544 15.3086C207.606 15.3086 208.58 15.5023 209.466 15.8896C210.362 16.266 211.032 16.764 211.475 17.3838C211.917 18.0036 212.227 18.7396 212.404 19.5918C212.515 20.1452 212.57 21.1136 212.57 22.4971V33.3379H209.582V22.6133C209.582 21.3958 209.466 20.4883 209.233 19.8906C209.001 19.2819 208.586 18.8005 207.988 18.4463C207.402 18.0811 206.71 17.8984 205.913 17.8984C204.64 17.8984 203.539 18.3024 202.609 19.1104C201.691 19.9183 201.231 21.4512 201.231 23.709V33.3379H198.243Z" fill="black" fill-opacity="0.2"/>
<path d="M224.568 30.665L225 33.3047C224.159 33.4818 223.406 33.5703 222.742 33.5703C221.658 33.5703 220.816 33.3988 220.219 33.0557C219.621 32.7126 219.201 32.2643 218.957 31.7109C218.714 31.1465 218.592 29.9678 218.592 28.1748V18.0312H216.4V15.707H218.592V11.3408L221.563 9.54785V15.707H224.568V18.0312H221.563V28.3408C221.563 29.193 221.613 29.7409 221.713 29.9844C221.824 30.2279 221.995 30.4215 222.228 30.5654C222.471 30.7093 222.814 30.7812 223.257 30.7812C223.589 30.7812 224.026 30.7425 224.568 30.665Z" fill="#151618"/>
<path d="M224.568 30.665L225 33.3047C224.159 33.4818 223.406 33.5703 222.742 33.5703C221.658 33.5703 220.816 33.3988 220.219 33.0557C219.621 32.7126 219.201 32.2643 218.957 31.7109C218.714 31.1465 218.592 29.9678 218.592 28.1748V18.0312H216.4V15.707H218.592V11.3408L221.563 9.54785V15.707H224.568V18.0312H221.563V28.3408C221.563 29.193 221.613 29.7409 221.713 29.9844C221.824 30.2279 221.995 30.4215 222.228 30.5654C222.471 30.7093 222.814 30.7812 223.257 30.7812C223.589 30.7812 224.026 30.7425 224.568 30.665Z" fill="black" fill-opacity="0.2"/>
<path d="M224.568 30.665L225 33.3047C224.159 33.4818 223.406 33.5703 222.742 33.5703C221.658 33.5703 220.816 33.3988 220.219 33.0557C219.621 32.7126 219.201 32.2643 218.957 31.7109C218.714 31.1465 218.592 29.9678 218.592 28.1748V18.0312H216.4V15.707H218.592V11.3408L221.563 9.54785V15.707H224.568V18.0312H221.563V28.3408C221.563 29.193 221.613 29.7409 221.713 29.9844C221.824 30.2279 221.995 30.4215 222.228 30.5654C222.471 30.7093 222.814 30.7812 223.257 30.7812C223.589 30.7812 224.026 30.7425 224.568 30.665Z" fill="black" fill-opacity="0.2"/>
<path d="M224.568 30.665L225 33.3047C224.159 33.4818 223.406 33.5703 222.742 33.5703C221.658 33.5703 220.816 33.3988 220.219 33.0557C219.621 32.7126 219.201 32.2643 218.957 31.7109C218.714 31.1465 218.592 29.9678 218.592 28.1748V18.0312H216.4V15.707H218.592V11.3408L221.563 9.54785V15.707H224.568V18.0312H221.563V28.3408C221.563 29.193 221.613 29.7409 221.713 29.9844C221.824 30.2279 221.995 30.4215 222.228 30.5654C222.471 30.7093 222.814 30.7812 223.257 30.7812C223.589 30.7812 224.026 30.7425 224.568 30.665Z" fill="black" fill-opacity="0.2"/>
<path d="M224.568 30.665L225 33.3047C224.159 33.4818 223.406 33.5703 222.742 33.5703C221.658 33.5703 220.816 33.3988 220.219 33.0557C219.621 32.7126 219.201 32.2643 218.957 31.7109C218.714 31.1465 218.592 29.9678 218.592 28.1748V18.0312H216.4V15.707H218.592V11.3408L221.563 9.54785V15.707H224.568V18.0312H221.563V28.3408C221.563 29.193 221.613 29.7409 221.713 29.9844C221.824 30.2279 221.995 30.4215 222.228 30.5654C222.471 30.7093 222.814 30.7812 223.257 30.7812C223.589 30.7812 224.026 30.7425 224.568 30.665Z" fill="black" fill-opacity="0.2"/>
<path d="M224.568 30.665L225 33.3047C224.159 33.4818 223.406 33.5703 222.742 33.5703C221.658 33.5703 220.816 33.3988 220.219 33.0557C219.621 32.7126 219.201 32.2643 218.957 31.7109C218.714 31.1465 218.592 29.9678 218.592 28.1748V18.0312H216.4V15.707H218.592V11.3408L221.563 9.54785V15.707H224.568V18.0312H221.563V28.3408C221.563 29.193 221.613 29.7409 221.713 29.9844C221.824 30.2279 221.995 30.4215 222.228 30.5654C222.471 30.7093 222.814 30.7812 223.257 30.7812C223.589 30.7812 224.026 30.7425 224.568 30.665Z" fill="black" fill-opacity="0.2"/>
<path d="M73.2305 43.8242L74.5566 44.1592C74.2786 45.2484 73.7773 46.0801 73.0527 46.6543C72.3327 47.224 71.4508 47.5088 70.4072 47.5088C69.3271 47.5088 68.4476 47.29 67.7686 46.8525C67.0941 46.4105 66.5791 45.7725 66.2236 44.9385C65.8727 44.1045 65.6973 43.209 65.6973 42.252C65.6973 41.2083 65.8955 40.2992 66.292 39.5244C66.693 38.7451 67.2604 38.1549 67.9941 37.7539C68.7324 37.3483 69.5436 37.1455 70.4277 37.1455C71.4303 37.1455 72.2734 37.4007 72.957 37.9111C73.6406 38.4215 74.1169 39.1393 74.3857 40.0645L73.0801 40.3721C72.8477 39.6429 72.5104 39.112 72.0684 38.7793C71.6263 38.4466 71.0703 38.2803 70.4004 38.2803C69.6302 38.2803 68.9854 38.4648 68.4658 38.834C67.9508 39.2031 67.5885 39.6999 67.3789 40.3242C67.1693 40.944 67.0645 41.5843 67.0645 42.2451C67.0645 43.0973 67.1875 43.8424 67.4336 44.4805C67.6842 45.1139 68.0716 45.5879 68.5957 45.9023C69.1198 46.2168 69.6872 46.374 70.2979 46.374C71.0407 46.374 71.6696 46.1598 72.1846 45.7314C72.6995 45.3031 73.0482 44.6673 73.2305 43.8242Z" fill="#3A6FB6"/>
<path d="M76.457 43.708C76.457 42.3636 76.8307 41.3678 77.5781 40.7207C78.2025 40.1829 78.9635 39.9141 79.8613 39.9141C80.8594 39.9141 81.6751 40.2422 82.3086 40.8984C82.9421 41.5501 83.2588 42.4525 83.2588 43.6055C83.2588 44.5397 83.1175 45.2757 82.835 45.8135C82.557 46.3467 82.1491 46.7614 81.6113 47.0576C81.0781 47.3538 80.4948 47.502 79.8613 47.502C78.8451 47.502 78.0225 47.1761 77.3936 46.5244C76.7692 45.8727 76.457 44.9339 76.457 43.708ZM77.7217 43.708C77.7217 44.6377 77.9245 45.335 78.3301 45.7998C78.7357 46.2601 79.2461 46.4902 79.8613 46.4902C80.472 46.4902 80.9801 46.2578 81.3857 45.793C81.7913 45.3281 81.9941 44.6195 81.9941 43.667C81.9941 42.7692 81.7891 42.0902 81.3789 41.6299C80.9733 41.165 80.4674 40.9326 79.8613 40.9326C79.2461 40.9326 78.7357 41.1628 78.3301 41.623C77.9245 42.0833 77.7217 42.7783 77.7217 43.708Z" fill="#3A6FB6"/>
<path d="M85.583 47.3379V40.0781H86.6836V41.0967C86.9115 40.7412 87.2145 40.4564 87.5928 40.2422C87.971 40.0234 88.4017 39.9141 88.8848 39.9141C89.4225 39.9141 89.8623 40.0257 90.2041 40.249C90.5505 40.4723 90.7943 40.7845 90.9355 41.1855C91.5098 40.3379 92.2572 39.9141 93.1777 39.9141C93.8978 39.9141 94.4515 40.1146 94.8389 40.5156C95.2262 40.9121 95.4199 41.5251 95.4199 42.3545V47.3379H94.1963V42.7646C94.1963 42.2725 94.1553 41.9193 94.0732 41.7051C93.9958 41.4863 93.8522 41.3109 93.6426 41.1787C93.4329 41.0465 93.1868 40.9805 92.9043 40.9805C92.3939 40.9805 91.9701 41.1514 91.6328 41.4932C91.2956 41.8304 91.127 42.3727 91.127 43.1201V47.3379H89.8965V42.6211C89.8965 42.0742 89.7962 41.6641 89.5957 41.3906C89.3952 41.1172 89.0671 40.9805 88.6113 40.9805C88.265 40.9805 87.9437 41.0716 87.6475 41.2539C87.3558 41.4362 87.1439 41.7028 87.0117 42.0537C86.8796 42.4046 86.8135 42.9105 86.8135 43.5713V47.3379H85.583Z" fill="#3A6FB6"/>
<path d="M98.1201 50.1201V40.0781H99.2412V41.0215C99.5055 40.6523 99.804 40.3766 100.137 40.1943C100.469 40.0075 100.873 39.9141 101.347 39.9141C101.966 39.9141 102.513 40.0736 102.987 40.3926C103.461 40.7116 103.819 41.1628 104.061 41.7461C104.302 42.3249 104.423 42.9606 104.423 43.6533C104.423 44.3962 104.288 45.0661 104.02 45.6631C103.755 46.2555 103.368 46.7113 102.857 47.0303C102.352 47.3447 101.818 47.502 101.258 47.502C100.848 47.502 100.479 47.4154 100.15 47.2422C99.8268 47.069 99.5602 46.8503 99.3506 46.5859V50.1201H98.1201ZM99.2344 43.749C99.2344 44.6833 99.4235 45.3737 99.8018 45.8203C100.18 46.2669 100.638 46.4902 101.176 46.4902C101.723 46.4902 102.19 46.2601 102.577 45.7998C102.969 45.335 103.165 44.6172 103.165 43.6465C103.165 42.7214 102.974 42.0286 102.591 41.5684C102.213 41.1081 101.759 40.8779 101.23 40.8779C100.706 40.8779 100.242 41.124 99.8359 41.6162C99.4349 42.1038 99.2344 42.8148 99.2344 43.749Z" fill="#3A6FB6"/>
<path d="M106.761 47.3379V37.3164H107.991V47.3379H106.761Z" fill="#3A6FB6"/>
<path d="M110.787 38.7314V37.3164H112.018V38.7314H110.787ZM110.787 47.3379V40.0781H112.018V47.3379H110.787Z" fill="#3A6FB6"/>
<path d="M119.51 46.4424C119.054 46.8298 118.614 47.1032 118.19 47.2627C117.771 47.4222 117.32 47.502 116.837 47.502C116.039 47.502 115.426 47.3083 114.998 46.9209C114.57 46.529 114.355 46.0299 114.355 45.4238C114.355 45.0684 114.435 44.7448 114.595 44.4531C114.759 44.1569 114.971 43.9199 115.23 43.7422C115.495 43.5645 115.791 43.43 116.119 43.3389C116.361 43.2751 116.725 43.2135 117.213 43.1543C118.206 43.0358 118.938 42.8945 119.407 42.7305C119.412 42.5618 119.414 42.4548 119.414 42.4092C119.414 41.9079 119.298 41.5547 119.065 41.3496C118.751 41.0716 118.284 40.9326 117.664 40.9326C117.085 40.9326 116.657 41.0352 116.379 41.2402C116.105 41.4408 115.903 41.7985 115.771 42.3135L114.567 42.1494C114.677 41.6344 114.857 41.2197 115.107 40.9053C115.358 40.5863 115.72 40.3424 116.194 40.1738C116.668 40.0007 117.217 39.9141 117.842 39.9141C118.462 39.9141 118.965 39.987 119.353 40.1328C119.74 40.2786 120.025 40.4632 120.207 40.6865C120.389 40.9053 120.517 41.1833 120.59 41.5205C120.631 41.7301 120.651 42.1084 120.651 42.6553V44.2959C120.651 45.4398 120.676 46.1644 120.727 46.4697C120.781 46.7705 120.886 47.0599 121.041 47.3379H119.756C119.628 47.0827 119.546 46.7842 119.51 46.4424ZM119.407 43.6943C118.961 43.8766 118.291 44.0316 117.397 44.1592C116.892 44.2321 116.534 44.3141 116.324 44.4053C116.115 44.4964 115.953 44.6309 115.839 44.8086C115.725 44.9818 115.668 45.1755 115.668 45.3896C115.668 45.7178 115.791 45.9912 116.037 46.21C116.288 46.4287 116.652 46.5381 117.131 46.5381C117.605 46.5381 118.026 46.4355 118.396 46.2305C118.765 46.0208 119.036 45.736 119.209 45.376C119.341 45.098 119.407 44.6878 119.407 44.1455V43.6943Z" fill="#3A6FB6"/>
<path d="M123.44 47.3379V40.0781H124.548V41.1104C125.081 40.3128 125.851 39.9141 126.858 39.9141C127.296 39.9141 127.697 39.9938 128.062 40.1533C128.431 40.3083 128.706 40.5133 128.889 40.7686C129.071 41.0238 129.199 41.3268 129.271 41.6777C129.317 41.9056 129.34 42.3044 129.34 42.874V47.3379H128.109V42.9219C128.109 42.4206 128.062 42.0469 127.966 41.8008C127.87 41.5501 127.699 41.3519 127.453 41.2061C127.212 41.0557 126.927 40.9805 126.599 40.9805C126.075 40.9805 125.621 41.1468 125.238 41.4795C124.86 41.8122 124.671 42.4434 124.671 43.373V47.3379H123.44Z" fill="#3A6FB6"/>
<path d="M136.846 44.6787L138.056 44.8359C137.924 45.6699 137.584 46.3239 137.037 46.7979C136.495 47.2673 135.827 47.502 135.034 47.502C134.041 47.502 133.241 47.1784 132.635 46.5312C132.033 45.8796 131.732 44.9476 131.732 43.7354C131.732 42.9515 131.862 42.2656 132.122 41.6777C132.382 41.0898 132.776 40.6501 133.305 40.3584C133.838 40.0622 134.417 39.9141 135.041 39.9141C135.829 39.9141 136.474 40.1146 136.976 40.5156C137.477 40.9121 137.798 41.4772 137.939 42.2109L136.743 42.3955C136.629 41.9079 136.426 41.541 136.135 41.2949C135.848 41.0488 135.499 40.9258 135.089 40.9258C134.469 40.9258 133.965 41.1491 133.578 41.5957C133.191 42.0378 132.997 42.7396 132.997 43.7012C132.997 44.6764 133.184 45.3851 133.558 45.8271C133.931 46.2692 134.419 46.4902 135.021 46.4902C135.504 46.4902 135.907 46.3421 136.23 46.0459C136.554 45.7497 136.759 45.2939 136.846 44.6787Z" fill="#3A6FB6"/>
<path d="M144.953 45L146.225 45.1572C146.024 45.9001 145.653 46.4766 145.11 46.8867C144.568 47.2969 143.875 47.502 143.032 47.502C141.97 47.502 141.127 47.1761 140.503 46.5244C139.883 45.8682 139.573 44.9499 139.573 43.7695C139.573 42.5482 139.888 41.6003 140.517 40.9258C141.146 40.2513 141.961 39.9141 142.964 39.9141C143.935 39.9141 144.728 40.2445 145.343 40.9053C145.958 41.5661 146.266 42.4958 146.266 43.6943C146.266 43.7673 146.263 43.8766 146.259 44.0225H140.845C140.89 44.82 141.116 45.4307 141.521 45.8545C141.927 46.2783 142.433 46.4902 143.039 46.4902C143.49 46.4902 143.875 46.3717 144.194 46.1348C144.513 45.8978 144.766 45.5195 144.953 45ZM140.913 43.0107H144.967C144.912 42.4001 144.757 41.9421 144.502 41.6367C144.11 41.1628 143.602 40.9258 142.978 40.9258C142.412 40.9258 141.936 41.1149 141.549 41.4932C141.166 41.8714 140.954 42.3773 140.913 43.0107Z" fill="#3A6FB6"/>
</svg>
