<svg width="60" height="60" viewBox="0 0 60 60" fill="none" xmlns="http://www.w3.org/2000/svg">
<path d="M13.5 37.0537C13.2239 37.0537 13 36.8299 13 36.5537V12.5C13 12.2239 13.2239 12 13.5 12H15.8154C16.0916 12 16.3154 12.2239 16.3154 12.5V33.5972C16.3154 33.8733 16.5393 34.0972 16.8154 34.0972H28.6543V37.0537H13.5Z" fill="#151618"/>
<path d="M13.5 37.0537C13.2239 37.0537 13 36.8299 13 36.5537V12.5C13 12.2239 13.2239 12 13.5 12H15.8154C16.0916 12 16.3154 12.2239 16.3154 12.5V33.5972C16.3154 33.8733 16.5393 34.0972 16.8154 34.0972H28.6543V37.0537H13.5Z" fill="black" fill-opacity="0.2"/>
<path d="M13.5 37.0537C13.2239 37.0537 13 36.8299 13 36.5537V12.5C13 12.2239 13.2239 12 13.5 12H15.8154C16.0916 12 16.3154 12.2239 16.3154 12.5V33.5972C16.3154 33.8733 16.5393 34.0972 16.8154 34.0972H28.6543V37.0537H13.5Z" fill="black" fill-opacity="0.2"/>
<path d="M13.5 37.0537C13.2239 37.0537 13 36.8299 13 36.5537V12.5C13 12.2239 13.2239 12 13.5 12H15.8154C16.0916 12 16.3154 12.2239 16.3154 12.5V33.5972C16.3154 33.8733 16.5393 34.0972 16.8154 34.0972H28.6543V37.0537H13.5Z" fill="black" fill-opacity="0.2"/>
<path d="M13.5 37.0537C13.2239 37.0537 13 36.8299 13 36.5537V12.5C13 12.2239 13.2239 12 13.5 12H15.8154C16.0916 12 16.3154 12.2239 16.3154 12.5V33.5972C16.3154 33.8733 16.5393 34.0972 16.8154 34.0972H28.6543V37.0537H13.5Z" fill="black" fill-opacity="0.2"/>
<path d="M13.5 37.0537C13.2239 37.0537 13 36.8299 13 36.5537V12.5C13 12.2239 13.2239 12 13.5 12H15.8154C16.0916 12 16.3154 12.2239 16.3154 12.5V33.5972C16.3154 33.8733 16.5393 34.0972 16.8154 34.0972H28.6543V37.0537H13.5Z" fill="black" fill-opacity="0.2"/>
<path d="M28.6367 51.0537C28.3606 51.0537 28.1367 50.8299 28.1367 50.5537V22.5C28.1367 22.2239 28.3606 22 28.6367 22H37.5874C39.2508 22 40.5212 22.0798 41.3984 22.2393C42.6289 22.4443 43.66 22.8374 44.4917 23.4185C45.3234 23.9881 45.9899 24.7913 46.4912 25.8281C47.0039 26.8649 47.2603 28.0042 47.2603 29.2461C47.2603 31.3766 46.5824 33.1825 45.2266 34.6636C43.8708 36.1333 41.4212 36.8682 37.8779 36.8682H31.9521C31.676 36.8682 31.4521 37.092 31.4521 37.3682V50.5537C31.4521 50.8299 31.2283 51.0537 30.9521 51.0537H28.6367ZM31.4521 33.4116C31.4521 33.6878 31.676 33.9116 31.9521 33.9116H37.9292C40.0711 33.9116 41.5921 33.5129 42.4922 32.7153C43.3923 31.9178 43.8423 30.7956 43.8423 29.3486C43.8423 28.3005 43.5745 27.4061 43.0391 26.6655C42.515 25.9136 41.82 25.418 40.9541 25.1787C40.3958 25.0306 39.3647 24.9565 37.8608 24.9565H31.4521V33.4116Z" fill="#151618"/>
<path d="M28.6367 51.0537C28.3606 51.0537 28.1367 50.8299 28.1367 50.5537V22.5C28.1367 22.2239 28.3606 22 28.6367 22H37.5874C39.2508 22 40.5212 22.0798 41.3984 22.2393C42.6289 22.4443 43.66 22.8374 44.4917 23.4185C45.3234 23.9881 45.9899 24.7913 46.4912 25.8281C47.0039 26.8649 47.2603 28.0042 47.2603 29.2461C47.2603 31.3766 46.5824 33.1825 45.2266 34.6636C43.8708 36.1333 41.4212 36.8682 37.8779 36.8682H31.9521C31.676 36.8682 31.4521 37.092 31.4521 37.3682V50.5537C31.4521 50.8299 31.2283 51.0537 30.9521 51.0537H28.6367ZM31.4521 33.4116C31.4521 33.6878 31.676 33.9116 31.9521 33.9116H37.9292C40.0711 33.9116 41.5921 33.5129 42.4922 32.7153C43.3923 31.9178 43.8423 30.7956 43.8423 29.3486C43.8423 28.3005 43.5745 27.4061 43.0391 26.6655C42.515 25.9136 41.82 25.418 40.9541 25.1787C40.3958 25.0306 39.3647 24.9565 37.8608 24.9565H31.4521V33.4116Z" fill="black" fill-opacity="0.2"/>
<path d="M28.6367 51.0537C28.3606 51.0537 28.1367 50.8299 28.1367 50.5537V22.5C28.1367 22.2239 28.3606 22 28.6367 22H37.5874C39.2508 22 40.5212 22.0798 41.3984 22.2393C42.6289 22.4443 43.66 22.8374 44.4917 23.4185C45.3234 23.9881 45.9899 24.7913 46.4912 25.8281C47.0039 26.8649 47.2603 28.0042 47.2603 29.2461C47.2603 31.3766 46.5824 33.1825 45.2266 34.6636C43.8708 36.1333 41.4212 36.8682 37.8779 36.8682H31.9521C31.676 36.8682 31.4521 37.092 31.4521 37.3682V50.5537C31.4521 50.8299 31.2283 51.0537 30.9521 51.0537H28.6367ZM31.4521 33.4116C31.4521 33.6878 31.676 33.9116 31.9521 33.9116H37.9292C40.0711 33.9116 41.5921 33.5129 42.4922 32.7153C43.3923 31.9178 43.8423 30.7956 43.8423 29.3486C43.8423 28.3005 43.5745 27.4061 43.0391 26.6655C42.515 25.9136 41.82 25.418 40.9541 25.1787C40.3958 25.0306 39.3647 24.9565 37.8608 24.9565H31.4521V33.4116Z" fill="black" fill-opacity="0.2"/>
<path d="M28.6367 51.0537C28.3606 51.0537 28.1367 50.8299 28.1367 50.5537V22.5C28.1367 22.2239 28.3606 22 28.6367 22H37.5874C39.2508 22 40.5212 22.0798 41.3984 22.2393C42.6289 22.4443 43.66 22.8374 44.4917 23.4185C45.3234 23.9881 45.9899 24.7913 46.4912 25.8281C47.0039 26.8649 47.2603 28.0042 47.2603 29.2461C47.2603 31.3766 46.5824 33.1825 45.2266 34.6636C43.8708 36.1333 41.4212 36.8682 37.8779 36.8682H31.9521C31.676 36.8682 31.4521 37.092 31.4521 37.3682V50.5537C31.4521 50.8299 31.2283 51.0537 30.9521 51.0537H28.6367ZM31.4521 33.4116C31.4521 33.6878 31.676 33.9116 31.9521 33.9116H37.9292C40.0711 33.9116 41.5921 33.5129 42.4922 32.7153C43.3923 31.9178 43.8423 30.7956 43.8423 29.3486C43.8423 28.3005 43.5745 27.4061 43.0391 26.6655C42.515 25.9136 41.82 25.418 40.9541 25.1787C40.3958 25.0306 39.3647 24.9565 37.8608 24.9565H31.4521V33.4116Z" fill="black" fill-opacity="0.2"/>
<path d="M28.6367 51.0537C28.3606 51.0537 28.1367 50.8299 28.1367 50.5537V22.5C28.1367 22.2239 28.3606 22 28.6367 22H37.5874C39.2508 22 40.5212 22.0798 41.3984 22.2393C42.6289 22.4443 43.66 22.8374 44.4917 23.4185C45.3234 23.9881 45.9899 24.7913 46.4912 25.8281C47.0039 26.8649 47.2603 28.0042 47.2603 29.2461C47.2603 31.3766 46.5824 33.1825 45.2266 34.6636C43.8708 36.1333 41.4212 36.8682 37.8779 36.8682H31.9521C31.676 36.8682 31.4521 37.092 31.4521 37.3682V50.5537C31.4521 50.8299 31.2283 51.0537 30.9521 51.0537H28.6367ZM31.4521 33.4116C31.4521 33.6878 31.676 33.9116 31.9521 33.9116H37.9292C40.0711 33.9116 41.5921 33.5129 42.4922 32.7153C43.3923 31.9178 43.8423 30.7956 43.8423 29.3486C43.8423 28.3005 43.5745 27.4061 43.0391 26.6655C42.515 25.9136 41.82 25.418 40.9541 25.1787C40.3958 25.0306 39.3647 24.9565 37.8608 24.9565H31.4521V33.4116Z" fill="black" fill-opacity="0.2"/>
<path d="M28.6367 51.0537C28.3606 51.0537 28.1367 50.8299 28.1367 50.5537V22.5C28.1367 22.2239 28.3606 22 28.6367 22H37.5874C39.2508 22 40.5212 22.0798 41.3984 22.2393C42.6289 22.4443 43.66 22.8374 44.4917 23.4185C45.3234 23.9881 45.9899 24.7913 46.4912 25.8281C47.0039 26.8649 47.2603 28.0042 47.2603 29.2461C47.2603 31.3766 46.5824 33.1825 45.2266 34.6636C43.8708 36.1333 41.4212 36.8682 37.8779 36.8682H31.9521C31.676 36.8682 31.4521 37.092 31.4521 37.3682V50.5537C31.4521 50.8299 31.2283 51.0537 30.9521 51.0537H28.6367ZM31.4521 33.4116C31.4521 33.6878 31.676 33.9116 31.9521 33.9116H37.9292C40.0711 33.9116 41.5921 33.5129 42.4922 32.7153C43.3923 31.9178 43.8423 30.7956 43.8423 29.3486C43.8423 28.3005 43.5745 27.4061 43.0391 26.6655C42.515 25.9136 41.82 25.418 40.9541 25.1787C40.3958 25.0306 39.3647 24.9565 37.8608 24.9565H31.4521V33.4116Z" fill="black" fill-opacity="0.2"/>
<circle cx="30" cy="30" r="29.75" stroke="#3A6FB6" stroke-width="0.5"/>
</svg>
