<svg width="20" height="20" viewBox="0 0 20 20" fill="none" xmlns="http://www.w3.org/2000/svg">
<path d="M18.082 7.80469L12.1953 1.91797C11.8203 1.54297 11.3125 1.33203 10.7812 1.33203H8.28516C8.25 1.26953 8.21484 1.20703 8.17187 1.14453C8.0625 0.972656 7.92969 0.816406 7.78125 0.675781C7.55859 0.464844 7.28906 0.292969 6.98437 0.175781C6.68359 0.0585938 6.35156 0 6 0C5.58203 0 5.19141 0.0859375 4.84766 0.25C4.58984 0.375 4.35937 0.539062 4.16797 0.734375C4.02344 0.882812 3.89844 1.04297 3.79297 1.21875C3.63672 1.48047 3.51953 1.76563 3.44531 2.06641C3.37109 2.36719 3.33203 2.67969 3.33203 3V9C3.33203 9.24609 3.38281 9.48047 3.47656 9.6875C3.54687 9.84375 3.64062 9.98438 3.74609 10.1055C3.91016 10.2891 4.10547 10.4258 4.32031 10.5195C4.53125 10.6133 4.76172 10.6641 4.99219 10.6641V10.668C5 10.668 5.00781 10.668 5.01562 10.668C5.02344 10.668 5.03125 10.668 5.03906 10.668C5.26562 10.6641 5.48047 10.6172 5.67578 10.5312C5.96875 10.4023 6.21875 10.1953 6.39062 9.93359C6.47656 9.80078 6.54687 9.65625 6.59375 9.50391C6.64062 9.34766 6.66797 9.18359 6.66797 9.01562C6.66797 9.01172 6.66797 9.00391 6.66797 9C6.66797 8.99609 6.66797 8.99609 6.66797 8.99219V2.66797C6.66797 2.30078 6.37109 2 6 2C5.62891 2 5.33203 2.29688 5.33203 2.66797V9.00391V9.00781V9.01172C5.33203 9.05859 5.32422 9.09766 5.30859 9.13672C5.28516 9.19141 5.24609 9.24219 5.19531 9.27734C5.17187 9.29297 5.14062 9.30859 5.11328 9.31641C5.08203 9.32422 5.05469 9.33203 5.01953 9.33203H5.01562H5.01172H5.00781H5C4.96094 9.33203 4.91406 9.32422 4.87109 9.30859C4.83984 9.29688 4.8125 9.28125 4.78516 9.26172C4.74609 9.23438 4.71875 9.19922 4.69922 9.16016C4.67969 9.12109 4.66406 9.07422 4.66406 9V3C4.66406 2.74219 4.69922 2.5 4.76172 2.29297C4.80859 2.13672 4.875 2 4.94922 1.87891C5.00391 1.78906 5.06641 1.71484 5.13672 1.64844C5.23828 1.55078 5.35547 1.47266 5.49609 1.41797C5.63281 1.36328 5.79688 1.33203 6 1.33203C6.23828 1.33203 6.42578 1.37891 6.58203 1.44922C6.69922 1.50391 6.79687 1.57422 6.88672 1.66406C6.95312 1.73047 7.01562 1.80859 7.07031 1.89453C7.15234 2.02734 7.21875 2.1875 7.26562 2.36719C7.3125 2.54688 7.33594 2.75391 7.33594 2.96875V8.75C7.33594 9.125 7.27344 9.47656 7.16406 9.78906C7.08203 10.0234 6.96875 10.2383 6.83594 10.4219C6.63281 10.7031 6.38281 10.9219 6.07812 11.0781C5.77734 11.2344 5.42187 11.3242 5 11.3242C4.62891 11.3242 4.30469 11.25 4.02734 11.1289C3.81641 11.0352 3.63281 10.9102 3.46875 10.7617C3.22266 10.5352 3.02344 10.2461 2.88672 9.90625C2.75 9.56641 2.67187 9.17188 2.67187 8.75V5.32812C2.67187 4.96094 2.375 4.66016 2.00391 4.66016C1.63281 4.66016 1.33594 4.95703 1.33594 5.32812V8.75C1.33594 9.26953 1.41797 9.77344 1.58594 10.2344C1.71094 10.582 1.87891 10.9102 2.08984 11.2031C2.40625 11.6445 2.82422 12.0117 3.32031 12.2656C3.72266 12.4727 4.17969 12.6055 4.66406 12.6445V17.332C4.66406 17.6992 4.73828 18.0508 4.875 18.3711C5.07812 18.8516 5.41406 19.2578 5.83984 19.543C6.05078 19.6875 6.28906 19.8008 6.53906 19.8789C6.78906 19.957 7.05859 20 7.33203 20H16C16.3672 20 16.7187 19.9258 17.0391 19.7891C17.5195 19.5859 17.9258 19.25 18.2109 18.8242C18.3555 18.6133 18.4687 18.375 18.5469 18.125C18.625 17.875 18.668 17.6055 18.668 17.332V9.21875C18.668 8.6875 18.457 8.17969 18.082 7.80469ZM16.3828 7.99219H12.6641C12.5703 7.99219 12.4844 7.97266 12.4062 7.94141C12.2891 7.89062 12.1836 7.80469 12.1133 7.69922C12.0781 7.64453 12.0508 7.58594 12.0312 7.52734C12.0117 7.46484 12 7.39844 12 7.32812V3.60938L16.3828 7.99219ZM17.2305 17.8555C17.1289 18.0938 16.9609 18.2969 16.7461 18.4414C16.6406 18.5117 16.5234 18.5703 16.3984 18.6094C16.2734 18.6484 16.1406 18.668 16 18.668H7.33203C7.14453 18.668 6.97266 18.6289 6.8125 18.5625C6.57422 18.4609 6.37109 18.293 6.22656 18.0781C6.15625 17.9727 6.09766 17.8555 6.05859 17.7305C6.01953 17.6055 6 17.4727 6 17.332V12.5312C6.17969 12.4844 6.35547 12.4219 6.51953 12.3477C6.86328 12.1953 7.17187 11.9883 7.4375 11.7461C7.83984 11.3789 8.14844 10.918 8.35547 10.4102C8.5625 9.89844 8.66797 9.33594 8.66797 8.75391V2.97266C8.66797 2.87109 8.66406 2.76953 8.65625 2.66797H10.668V7.33203C10.668 7.60547 10.7227 7.87109 10.8242 8.10938C10.9766 8.46875 11.2305 8.77344 11.5469 8.98828C11.707 9.09766 11.8828 9.17969 12.0703 9.23828C12.2578 9.29688 12.4609 9.32812 12.6641 9.32812H17.3359V17.3359C17.3359 17.5234 17.2969 17.6953 17.2305 17.8555Z" fill="black"/>
<path d="M9.90423 17.4322H2.50147C2.19862 17.4322 1.95312 17.1867 1.95312 16.8839V14.1421C1.95312 13.8392 2.19862 13.5938 2.50147 13.5938H9.90423C10.2071 13.5938 10.4526 13.8392 10.4526 14.1421V16.8839C10.4526 17.1867 10.2071 17.4322 9.90423 17.4322Z" fill="#FF5050"/>
<path d="M4.14676 14.4141H3.05007C2.89853 14.4141 2.77588 14.5367 2.77588 14.6883V16.3333C2.77588 16.4849 2.8985 16.6075 3.05007 16.6075C3.2016 16.6075 3.32426 16.4849 3.32426 16.3333V16.0591H4.14679C4.60035 16.0591 4.96933 15.6902 4.96933 15.2366C4.96927 14.783 4.60032 14.4141 4.14676 14.4141ZM4.14676 15.5108H3.32423V14.9624H4.14676C4.29805 14.9624 4.42095 15.0853 4.42095 15.2366C4.42092 15.3879 4.29802 15.5108 4.14676 15.5108Z" fill="white"/>
<path d="M6.34038 14.4141H5.51784C5.3663 14.4141 5.24365 14.5367 5.24365 14.6883V16.3333C5.24365 16.4849 5.36627 16.6075 5.51784 16.6075H6.34038C6.94522 16.6075 7.43707 16.1156 7.43707 15.5108C7.43707 14.906 6.94522 14.4141 6.34038 14.4141ZM6.34038 16.0591H5.79203V14.9624H6.34038C6.64264 14.9624 6.88872 15.2085 6.88872 15.5108C6.88872 15.8131 6.64267 16.0591 6.34038 16.0591Z" fill="white"/>
<path d="M9.35601 14.4141H7.98513C7.83359 14.4141 7.71094 14.5367 7.71094 14.6883V16.3333C7.71094 16.4849 7.83356 16.6075 7.98513 16.6075C8.13666 16.6075 8.25932 16.4849 8.25932 16.3333V15.785H8.80766C8.9592 15.785 9.08185 15.6624 9.08185 15.5108C9.08185 15.3592 8.95923 15.2366 8.80766 15.2366H8.25932V14.9624H9.35601C9.50755 14.9624 9.6302 14.8398 9.6302 14.6882C9.6302 14.5367 9.50755 14.4141 9.35601 14.4141Z" fill="white"/>
</svg>
