<svg width="30" height="30" viewBox="0 0 30 30" fill="none" xmlns="http://www.w3.org/2000/svg">
<g id="UI/search_FILL0_wght500_GRAD0_opsz48 1">
<path id="Vector" d="M24.8675 26.4281L16.6039 18.172C15.9839 18.6983 15.2589 19.1089 14.4289 19.4037C13.5989 19.6985 12.7118 19.8459 11.7677 19.8459C9.47943 19.8459 7.54245 19.0522 5.95672 17.4648C4.37099 15.8774 3.57812 13.962 3.57812 11.7188C3.57812 9.47562 4.37183 7.56031 5.95925 5.97289C7.54665 4.3855 9.46716 3.5918 11.7208 3.5918C13.9744 3.5918 15.8897 4.3855 17.4667 5.97289C19.0437 7.56031 19.8322 9.47718 19.8322 11.7235C19.8322 12.6262 19.6901 13.4905 19.4059 14.3163C19.1217 15.1422 18.6954 15.9172 18.127 16.6414L26.4219 24.8737L24.8675 26.4281ZM11.7391 17.7168C13.4001 17.7168 14.8094 17.1309 15.9669 15.9591C17.1244 14.7874 17.7031 13.374 17.7031 11.7188C17.7031 10.0637 17.124 8.65027 15.9658 7.47852C14.8076 6.30675 13.3986 5.72086 11.7391 5.72086C10.0621 5.72086 8.63755 6.30675 7.46541 7.47852C6.29326 8.65027 5.70719 10.0637 5.70719 11.7188C5.70719 13.374 6.2929 14.7874 7.46431 15.9591C8.63571 17.1309 10.0606 17.7168 11.7391 17.7168Z" fill="#C3CAD2"/>
</g>
</svg>
