<svg width="90" height="53" viewBox="0 0 90 53" fill="none" xmlns="http://www.w3.org/2000/svg">
<g clip-path="url(#clip0_2538_17489)">
<path d="M32.6297 14.5247C32.6297 14.3833 32.6297 14.2773 32.6297 14.1359C32.6297 6.99708 38.4256 1.20117 45.5645 1.20117C48.003 1.20117 50.4062 1.90799 52.4913 3.2156" stroke="#1C3564" stroke-width="2.01443" stroke-miterlimit="2.61313" stroke-linecap="round" stroke-linejoin="bevel"/>
<path d="M55.672 23.4665C53.9049 25.4103 51.6078 26.7886 49.0986 27.46C44.0095 28.8383 38.567 27.142 35.1036 23.1484" stroke="#1C3564" stroke-width="2.01443" stroke-miterlimit="2.61313" stroke-linecap="round" stroke-linejoin="bevel"/>
<path fill-rule="evenodd" clip-rule="evenodd" d="M40.5461 13.7123C48.5685 10.3549 54.7178 5.79591 58.888 0C60.5844 0.706818 62.2454 1.44898 63.9418 2.1558C57.121 8.76455 49.2753 12.5107 40.5814 13.7123H40.5461Z" fill="#3A6FB6"/>
<path fill-rule="evenodd" clip-rule="evenodd" d="M32.1349 16.9278C42.7726 15.9736 52.6327 13.1817 61.3972 7.5625C61.998 9.36489 62.5988 11.1673 63.1996 12.9697C54.117 17.0339 43.9035 18.6595 32.1703 16.9278H32.1349Z" fill="#3A6FB6"/>
<path fill-rule="evenodd" clip-rule="evenodd" d="M27.0105 18.0248C38.8144 20.0392 49.346 19.5444 58.6053 16.6465C59.5948 17.9894 60.6197 19.3324 61.6092 20.6753C48.4271 23.2199 36.5525 23.0078 27.0458 18.0248H27.0105Z" fill="#3A6FB6"/>
</g>
<path d="M8.57812 38.348C8.50994 37.7429 8.22869 37.2741 7.73437 36.9418C7.24006 36.6051 6.6179 36.4368 5.8679 36.4368C5.33097 36.4368 4.86648 36.522 4.47443 36.6925C4.08239 36.8587 3.7777 37.0888 3.56037 37.3828C3.3473 37.6726 3.24077 38.0028 3.24077 38.3736C3.24077 38.6847 3.31321 38.9531 3.4581 39.179C3.60724 39.4048 3.80114 39.5945 4.03977 39.7479C4.28267 39.897 4.54261 40.0227 4.8196 40.125C5.09659 40.223 5.36293 40.304 5.61861 40.3679L6.89702 40.7003C7.31463 40.8026 7.7429 40.9411 8.18182 41.1158C8.62074 41.2905 9.0277 41.5206 9.4027 41.8061C9.7777 42.0916 10.0803 42.4453 10.3104 42.8672C10.5447 43.2891 10.6619 43.794 10.6619 44.3821C10.6619 45.1236 10.4702 45.782 10.0866 46.3572C9.70739 46.9325 9.15554 47.3864 8.43111 47.7188C7.71094 48.0511 6.83949 48.2173 5.81676 48.2173C4.83665 48.2173 3.98864 48.0618 3.27273 47.7507C2.55682 47.4396 1.99645 46.9986 1.59162 46.4276C1.18679 45.8523 0.963068 45.1705 0.920455 44.3821H2.90199C2.94034 44.8551 3.09375 45.2493 3.36222 45.5646C3.63494 45.8757 3.98224 46.108 4.40412 46.2614C4.83026 46.4105 5.29687 46.4851 5.80398 46.4851C6.36222 46.4851 6.85866 46.3977 7.29332 46.223C7.73224 46.044 8.07741 45.7969 8.32883 45.4815C8.58026 45.1619 8.70597 44.7891 8.70597 44.3629C8.70597 43.9751 8.59517 43.6577 8.37358 43.4105C8.15625 43.1634 7.86008 42.9588 7.48508 42.7969C7.11435 42.6349 6.6946 42.4922 6.22585 42.3686L4.67898 41.9467C3.63068 41.6612 2.79972 41.2415 2.18608 40.6875C1.5767 40.1335 1.27202 39.4006 1.27202 38.4886C1.27202 37.7344 1.47656 37.076 1.88565 36.5135C2.29474 35.951 2.84872 35.5142 3.54759 35.2031C4.24645 34.8878 5.0348 34.7301 5.91264 34.7301C6.79901 34.7301 7.58097 34.8857 8.25852 35.1967C8.94034 35.5078 9.47727 35.9361 9.86932 36.4815C10.2614 37.0227 10.4659 37.6449 10.483 38.348H8.57812ZM17.1003 48.1982C16.133 48.1982 15.2999 47.9915 14.601 47.5781C13.9064 47.1605 13.3695 46.5746 12.9902 45.8203C12.6152 45.0618 12.4277 44.1733 12.4277 43.1548C12.4277 42.1491 12.6152 41.2628 12.9902 40.4957C13.3695 39.7287 13.8979 39.13 14.5755 38.6996C15.2573 38.2692 16.0542 38.054 16.9661 38.054C17.5201 38.054 18.057 38.1456 18.5769 38.3288C19.0968 38.5121 19.5634 38.7997 19.9767 39.1918C20.3901 39.5838 20.7161 40.093 20.9547 40.7195C21.1934 41.3416 21.3127 42.098 21.3127 42.9886V43.6662H13.508V42.2344H19.4398C19.4398 41.7315 19.3375 41.2862 19.133 40.8984C18.9284 40.5064 18.6408 40.1974 18.2701 39.9716C17.9036 39.7457 17.4732 39.6328 16.9789 39.6328C16.4419 39.6328 15.9732 39.7649 15.5726 40.0291C15.1763 40.2891 14.8695 40.63 14.6522 41.0518C14.4391 41.4695 14.3326 41.9233 14.3326 42.4134V43.532C14.3326 44.1882 14.4476 44.7464 14.6777 45.2067C14.9121 45.6669 15.2381 46.0185 15.6557 46.2614C16.0733 46.5 16.5613 46.6193 17.1195 46.6193C17.4817 46.6193 17.812 46.5682 18.1103 46.4659C18.4086 46.3594 18.6664 46.2017 18.8837 45.9929C19.101 45.7841 19.2672 45.5263 19.3823 45.2195L21.1912 45.5455C21.0463 46.0781 20.7864 46.5447 20.4114 46.9453C20.0407 47.3416 19.574 47.6506 19.0115 47.8722C18.4533 48.0895 17.8162 48.1982 17.1003 48.1982ZM27.5689 48.1982C26.6186 48.1982 25.8004 47.983 25.1143 47.5526C24.4325 47.1179 23.9084 46.5192 23.5419 45.7564C23.1754 44.9936 22.9922 44.12 22.9922 43.1357C22.9922 42.1385 23.1797 41.2585 23.5547 40.4957C23.9297 39.7287 24.4581 39.13 25.1399 38.6996C25.8217 38.2692 26.625 38.054 27.5497 38.054C28.2955 38.054 28.9602 38.1925 29.544 38.4695C30.1278 38.7422 30.5987 39.1257 30.9567 39.62C31.3189 40.1143 31.5341 40.6918 31.6023 41.3523H29.7422C29.6399 40.892 29.4055 40.4957 29.0391 40.1634C28.6768 39.831 28.191 39.6648 27.5817 39.6648C27.049 39.6648 26.5824 39.8054 26.1818 40.0866C25.7855 40.3636 25.4766 40.7599 25.255 41.2756C25.0334 41.7869 24.9226 42.392 24.9226 43.0909C24.9226 43.8068 25.0312 44.4247 25.2486 44.9446C25.4659 45.4645 25.7727 45.8672 26.169 46.1527C26.5696 46.4382 27.0405 46.581 27.5817 46.581C27.9439 46.581 28.272 46.5149 28.566 46.3828C28.8643 46.2464 29.1136 46.0526 29.3139 45.8011C29.5185 45.5497 29.6612 45.2472 29.7422 44.8935H31.6023C31.5341 45.5284 31.3274 46.0952 30.9822 46.5938C30.6371 47.0923 30.1747 47.4844 29.5952 47.7699C29.0199 48.0554 28.3445 48.1982 27.5689 48.1982ZM39.8656 43.9283V38.1818H41.7832V48H39.9039V46.2997H39.8017C39.5758 46.8239 39.2136 47.2607 38.715 47.6101C38.2207 47.9553 37.6049 48.1278 36.8677 48.1278C36.237 48.1278 35.6788 47.9893 35.193 47.7124C34.7115 47.4311 34.3322 47.0156 34.0552 46.4659C33.7825 45.9162 33.6461 45.2365 33.6461 44.4268V38.1818H35.5573V44.1967C35.5573 44.8658 35.7427 45.3984 36.1135 45.7947C36.4842 46.1911 36.9657 46.3892 37.5581 46.3892C37.916 46.3892 38.2718 46.2997 38.6255 46.1207C38.9835 45.9418 39.2796 45.6712 39.514 45.3089C39.7527 44.9467 39.8698 44.4865 39.8656 43.9283ZM44.3512 48V38.1818H46.1985V39.7415H46.3008C46.4798 39.2131 46.7951 38.7976 47.2468 38.495C47.7028 38.1882 48.2184 38.0348 48.7937 38.0348C48.913 38.0348 49.0536 38.0391 49.2155 38.0476C49.3817 38.0561 49.5117 38.0668 49.6055 38.0795V39.9077C49.5288 39.8864 49.3924 39.8629 49.1964 39.8374C49.0004 39.8075 48.8043 39.7926 48.6083 39.7926C48.1566 39.7926 47.7539 39.8885 47.4002 40.0803C47.0508 40.2678 46.7738 40.5298 46.5692 40.8665C46.3647 41.1989 46.2624 41.5781 46.2624 42.0043V48H44.3512ZM55.1394 48.1982C54.172 48.1982 53.339 47.9915 52.6401 47.5781C51.9455 47.1605 51.4086 46.5746 51.0293 45.8203C50.6543 45.0618 50.4668 44.1733 50.4668 43.1548C50.4668 42.1491 50.6543 41.2628 51.0293 40.4957C51.4086 39.7287 51.937 39.13 52.6145 38.6996C53.2963 38.2692 54.0932 38.054 55.0051 38.054C55.5591 38.054 56.0961 38.1456 56.6159 38.3288C57.1358 38.5121 57.6024 38.7997 58.0158 39.1918C58.4292 39.5838 58.7551 40.093 58.9938 40.7195C59.2324 41.3416 59.3517 42.098 59.3517 42.9886V43.6662H51.547V42.2344H57.4789C57.4789 41.7315 57.3766 41.2862 57.172 40.8984C56.9675 40.5064 56.6799 40.1974 56.3091 39.9716C55.9426 39.7457 55.5122 39.6328 55.0179 39.6328C54.481 39.6328 54.0122 39.7649 53.6117 40.0291C53.2154 40.2891 52.9086 40.63 52.6912 41.0518C52.4782 41.4695 52.3716 41.9233 52.3716 42.4134V43.532C52.3716 44.1882 52.4867 44.7464 52.7168 45.2067C52.9512 45.6669 53.2772 46.0185 53.6948 46.2614C54.1124 46.5 54.6003 46.6193 55.1586 46.6193C55.5208 46.6193 55.851 46.5682 56.1493 46.4659C56.4476 46.3594 56.7054 46.2017 56.9228 45.9929C57.1401 45.7841 57.3063 45.5263 57.4213 45.2195L59.2303 45.5455C59.0854 46.0781 58.8255 46.5447 58.4505 46.9453C58.0797 47.3416 57.6131 47.6506 57.0506 47.8722C56.4924 48.0895 55.8553 48.1982 55.1394 48.1982Z" fill="#1C3564"/>
<path d="M61.6257 48V34.9091H66.2919C67.3061 34.9091 68.1477 35.0838 68.8168 35.4332C69.4901 35.7827 69.9929 36.2663 70.3253 36.8842C70.6577 37.4979 70.8239 38.2074 70.8239 39.0128C70.8239 39.8139 70.6555 40.5192 70.3189 41.1286C69.9865 41.7337 69.4837 42.2045 68.8104 42.5412C68.1413 42.8778 67.2997 43.0462 66.2855 43.0462H62.7507V41.3459H66.1065C66.7457 41.3459 67.2656 41.2543 67.6662 41.071C68.071 40.8878 68.3672 40.6214 68.5547 40.272C68.7422 39.9226 68.8359 39.5028 68.8359 39.0128C68.8359 38.5185 68.7401 38.0902 68.5483 37.728C68.3608 37.3658 68.0646 37.0888 67.6598 36.897C67.2592 36.701 66.733 36.603 66.081 36.603H63.6008V48H61.6257ZM68.0881 42.0938L71.3224 48H69.0724L65.902 42.0938H68.0881ZM75.2024 34.9091V48H73.2273V34.9091H75.2024ZM79.1847 48H77.0881L81.799 34.9091H84.081L88.7919 48H86.6953L82.9943 37.2869H82.892L79.1847 48ZM79.5362 42.8736H86.3373V44.5355H79.5362V42.8736Z" fill="#3A6FB6"/>
<defs>
<clipPath id="clip0_2538_17489">
<rect width="36.9169" height="28.9089" fill="white" transform="translate(27)"/>
</clipPath>
</defs>
</svg>
