<svg width="36" height="36" viewBox="0 0 36 36" fill="none" xmlns="http://www.w3.org/2000/svg">
<g id="UI">
<path id="Vector" d="M5.6145 28.6971V26.1332H8.8452V14.9093C8.8452 12.755 9.47591 10.8308 10.7373 9.1368C11.9987 7.44275 13.6689 6.37301 15.7477 5.92758V4.88868C15.7477 4.26883 15.9687 3.75571 16.4109 3.34931C16.853 2.94293 17.3828 2.73975 18.0001 2.73975C18.6175 2.73975 19.1472 2.94293 19.5894 3.34931C20.0315 3.75571 20.2526 4.26883 20.2526 4.88868V5.92758C22.3374 6.37301 24.0167 7.44125 25.2906 9.1323C26.5645 10.8233 27.2015 12.749 27.2015 14.9093V26.1332H30.3947V28.6971H5.6145ZM18.0046 33.224C17.184 33.224 16.4661 32.9232 15.851 32.3217C15.2359 31.7201 14.9284 30.997 14.9284 30.1523H21.0808C21.0808 31.0012 20.7789 31.7254 20.1751 32.3248C19.5713 32.9243 18.8478 33.224 18.0046 33.224ZM11.4001 26.1332H24.6376V14.9093C24.6376 13.0593 24.0001 11.4843 22.7251 10.1843C21.4501 8.88432 19.8876 8.23432 18.0376 8.23432C16.1876 8.23432 14.6189 8.88432 13.3314 10.1843C12.0439 11.4843 11.4001 13.0593 11.4001 14.9093V26.1332Z" fill="#5C6670" fill-opacity="0.8"/>
</g>
</svg>
